<?xml version="1.0" encoding="UTF-8"?>
<svg version="1.1" xmlns="http://www.w3.org/2000/svg" width="500" height="500">
<path d="M0 0 C1.85227252 0.09357692 3.7078718 0.12993909 5.5625 0.125 C7.01849609 0.12886719 7.01849609 0.12886719 8.50390625 0.1328125 C10.99952953 0.16650953 10.99952953 0.16650953 13 -1 C31.01830485 -2.4061648 46.8300717 -0.58074138 63.3515625 6.8515625 C68.2969311 8.99601437 72.15238327 10.22112708 77.5625 9.875 C92.09207362 9.6776848 105.36629195 17.20349807 116.70703125 25.73828125 C117.13371094 26.15464844 117.56039063 26.57101563 118 27 C118 27.66 118 28.32 118 29 C118.66 29 119.32 29 120 29 C120 29.66 120 30.32 120 31 C120.71929687 31.2784375 121.43859375 31.556875 122.1796875 31.84375 C124.89592235 32.95733105 127.50152497 34.18425105 130.125 35.5 C130.97320312 35.9228125 131.82140625 36.345625 132.6953125 36.78125 C135 38 135 38 138 40 C138 40.66 138 41.32 138 42 C138.680625 42.185625 139.36125 42.37125 140.0625 42.5625 C148.59448226 46.73772536 153.85556227 55.76166647 158 64 C158.34134739 65.99864781 158.67659269 67.99837096 159 70 C161.46255685 71.45291273 161.46255685 71.45291273 164 72 C164 72.66 164 73.32 164 74 C164.61875 74.226875 165.2375 74.45375 165.875 74.6875 C168.61410209 76.37929835 169.05024472 77.99244161 170 81 C170.66 81 171.32 81 172 81 C172.99088927 83.01511121 173.96718737 85.03740047 174.9375 87.0625 C175.75541016 88.75052734 175.75541016 88.75052734 176.58984375 90.47265625 C178.01934052 94.04837809 178.55633432 97.19186959 179 101 C179.95584438 103.33588323 179.95584438 103.33588323 181 105 C181.66 105 182.32 105 183 105 C190.13760071 116.8671274 194.96544257 127.0815142 196.20800781 141.02099609 C196.70953873 146.32021155 197.70169688 151.25123268 199.125 156.375 C201.72075873 165.96955412 201.97144072 173.86320556 198.71484375 183.2578125 C197.84224893 186.60514343 197.74353708 189.73196463 197.625 193.1875 C197.11786368 203.60492523 193.80709643 212.76531475 189 222 C188.34 222 187.68 222 187 222 C186.34 223.65 185.68 225.3 185 227 C184.34 227 183.68 227 183 227 C183 227.66 183 228.32 183 229 C182.34 229 181.68 229 181 229 C181 229.66 181 230.32 181 231 C174.57735897 235.01216835 168.36989466 237.305613 161 239 C161.061875 240.11375 161.12375 241.2275 161.1875 242.375 C161.0956156 252.8681985 156.10204785 261.73438105 150 270 C149.34 270 148.68 270 148 270 C148 270.66 148 271.32 148 272 C147.34 272 146.68 272 146 272 C145.34 273.32 144.68 274.64 144 276 C143.34 276 142.68 276 142 276 C142 276.66 142 277.32 142 278 C141.34 278 140.68 278 140 278 C140 278.66 140 279.32 140 280 C136.71474361 281.92780985 133.42069355 283.84009673 130.125 285.75 C129.2071875 286.28882813 128.289375 286.82765625 127.34375 287.3828125 C115.42642786 294.26464641 104.49397111 298.39245785 90.6875 298.3125 C89.76557861 298.31121094 88.84365723 298.30992187 87.89379883 298.30859375 C81.25710582 298.2149626 75.22351364 297.44859553 69 295 C70.41086611 301.40768359 72.51566615 307.34816546 75.07446289 313.37255859 C81.62804651 328.84298345 81.62804651 328.84298345 80 337 C79.67 337.66 79.34 338.32 79 339 C78.34 339 77.68 339 77 339 C77 339.66 77 340.32 77 341 C69.78806316 344.31039724 63.9176295 346.75347111 56.0859375 343.9609375 C51.99917051 341.36402987 50.25187784 338.3226676 47.875 334.1875 C47.03979599 332.78471927 46.20386877 331.38236887 45.3671875 329.98046875 C44.97241211 329.3054834 44.57763672 328.63049805 44.17089844 327.93505859 C43.0766846 326.12673106 41.90982398 324.40461752 40.6953125 322.67578125 C39 320 39 320 39 317 C38.34 317 37.68 317 37 317 C36.69707031 316.43152344 36.39414062 315.86304688 36.08203125 315.27734375 C34.09165456 311.6089264 32.12387934 308.16625911 29.625 304.8125 C27.06215516 301.34897486 25.12516515 297.5857562 23.1875 293.75 C22.87312988 293.13487549 22.55875977 292.51975098 22.23486328 291.88598633 C20.8334655 289.0547893 20 287.20262431 20 284 C19.34 284 18.68 284 18 284 C17.59136719 283.25105469 17.18273437 282.50210937 16.76171875 281.73046875 C14.566321 278.32784563 12.36541995 277.20144788 8.8125 275.3125 C6.84617288 274.26052665 4.89913328 273.16892389 3 272 C3 271.34 3 270.68 3 270 C2.29875 269.814375 1.5975 269.62875 0.875 269.4375 C-3.04135028 267.47932486 -5.5338864 264.59323769 -8 261 C-8 260.34 -8 259.68 -8 259 C-8.66 259 -9.32 259 -10 259 C-10 257.68 -10 256.36 -10 255 C-11.051875 255.61875 -12.10375 256.2375 -13.1875 256.875 C-28.46114289 265.5158657 -46.74114736 264.45081563 -63.3203125 260.41015625 C-71.81772087 258.05172794 -81.35110819 253.88235291 -88 248 C-88 247.34 -88 246.68 -88 246 C-88.66 246 -89.32 246 -90 246 C-90.25652344 245.33613281 -90.51304687 244.67226563 -90.77734375 243.98828125 C-93.46487185 237.78977368 -95.66560101 235.14314685 -101.71875 232.2578125 C-108.2016749 228.68332308 -111.57763155 222.79903886 -113.58984375 215.8828125 C-114 214 -114 214 -114 212 C-114.64324219 212.02094727 -115.28648437 212.04189453 -115.94921875 212.06347656 C-147.90163948 212.96370525 -147.90163948 212.96370525 -160 204 C-160.598125 203.319375 -161.19625 202.63875 -161.8125 201.9375 C-164.54695289 199.51555601 -167.08089729 198.89337789 -170.5390625 197.859375 C-174.6359773 196.42870634 -178.28694335 194.22081166 -182 192 C-182 191.34 -182 190.68 -182 190 C-182.598125 189.731875 -183.19625 189.46375 -183.8125 189.1875 C-185.99847854 188.00082594 -187.41332594 186.90400887 -189 185 C-189 184.34 -189 183.68 -189 183 C-189.66 183 -190.32 183 -191 183 C-193.50855172 179.02091796 -195.25528693 175.48310962 -196.5 170.9375 C-197.68234548 166.66684228 -199.4361691 163.6389858 -202 160 C-206.47173475 150.11511266 -204.96157052 138.79554081 -203.3125 128.4375 C-203.15072266 127.29603516 -202.98894531 126.15457031 -202.82226562 124.97851562 C-201.53684874 116.5486843 -199.78918819 108.18378229 -195 101 C-194.34 101 -193.68 101 -193 101 C-193 100.34 -193 99.68 -193 99 C-192.34 99 -191.68 99 -191 99 C-190.896875 97.989375 -190.79375 96.97875 -190.6875 95.9375 C-188.93449809 85.89758 -183.16811515 78.00596702 -175 72 C-174.67 71.34 -174.34 70.68 -174 70 C-173.34 70 -172.68 70 -172 70 C-171.34 68.02 -170.68 66.04 -170 64 C-169.34 64 -168.68 64 -168 64 C-167.75121094 63.43023437 -167.50242188 62.86046875 -167.24609375 62.2734375 C-162.64048509 53.87072828 -154.36840516 49.00959134 -146 45 C-141.80465928 43.28109075 -141.80465928 43.28109075 -139 40 C-138.34 40 -137.68 40 -137 40 C-137 39.34 -137 38.68 -137 38 C-136.34 38 -135.68 38 -135 38 C-135 37.34 -135 36.68 -135 36 C-126.64482233 29.50338891 -116.33941856 24.23145853 -106.0625 21.6875 C-101.57378234 20.47844218 -98.10624244 18.22640839 -94.3125 15.625 C-87.26226188 10.80371653 -80.22467184 8.26330036 -72 6 C-71.37432129 5.82130371 -70.74864258 5.64260742 -70.10400391 5.45849609 C-67.74821262 4.9451315 -65.5663436 4.83985527 -63.15625 4.7890625 C-62.23972656 4.76070313 -61.32320312 4.73234375 -60.37890625 4.703125 C-58.45983139 4.65104698 -56.54052882 4.60677395 -54.62109375 4.5703125 C-53.70457031 4.539375 -52.78804687 4.5084375 -51.84375 4.4765625 C-50.59368164 4.4468335 -50.59368164 4.4468335 -49.31835938 4.41650391 C-46.51610766 3.91306652 -45.17465543 2.79232964 -43 1 C-30.9598761 -3.92550523 -12.27644525 -4.09214842 0 0 Z M-43 9 C-42.01 13.455 -42.01 13.455 -41 18 C-43.375 18.125 -43.375 18.125 -46 18 C-48.1385485 15.8614515 -48.42655063 14.86724686 -49 12 C-60.58001242 8.84880193 -74.44815082 12.71419646 -85.03125 17.86328125 C-91.93232264 21.68471108 -91.93232264 21.68471108 -96 28 C-96.66 28 -97.32 28 -98 28 C-98 28.66 -98 29.32 -98 30 C-98.66 30 -99.32 30 -100 30 C-100 30.66 -100 31.32 -100 32 C-100.66 32 -101.32 32 -102 32 C-102 32.66 -102 33.32 -102 34 C-102.53625 34.226875 -103.0725 34.45375 -103.625 34.6875 C-110.06106329 38.24427182 -113.46682388 42.69969036 -117 49 C-113.61330108 49.80493724 -110.93990965 50.0268878 -107.5 49.5625 C-98.37699548 48.58099055 -89.16283526 48.91706109 -80 49 C-80 50.65 -80 52.3 -80 54 C-80.86882812 53.96519531 -81.73765625 53.93039063 -82.6328125 53.89453125 C-91.33861668 53.46060455 -91.33861668 53.46060455 -99 57 C-103.87128332 61.33371882 -103.87128332 61.33371882 -106 67 C-111.92511267 69.48472467 -117.9642993 71.59480779 -124.25 72.9375 C-128.23337141 74.0661219 -130.16991719 75.00819817 -133 78 C-134.22684993 80.30034361 -135.10082946 82.53911221 -136 85 C-137.32 85 -138.64 85 -140 85 C-140.27918509 80.1607918 -140.25261627 77.65919331 -137 74 C-137 73.34 -137 72.68 -137 72 C-136.34 72 -135.68 72 -135 72 C-135 71.34 -135 70.68 -135 70 C-134.46375 69.87625 -133.9275 69.7525 -133.375 69.625 C-130.91302868 69.01576355 -130.91302868 69.01576355 -128.25 68 C-125.6223657 67.19149714 -123.68161253 66.83993841 -121 66.625 C-116.80863083 66.15307103 -114.26649342 64.74682401 -111 62 C-109.47460719 60.06246689 -108.25979329 58.13195788 -107 56 C-107.91523438 55.95101562 -108.83046875 55.90203125 -109.7734375 55.8515625 C-110.96195312 55.77679688 -112.15046875 55.70203125 -113.375 55.625 C-114.55835938 55.55539063 -115.74171875 55.48578125 -116.9609375 55.4140625 C-120 55 -120 55 -122 53 C-122.72043457 47.77684939 -122.44192563 45.06034042 -119.25 40.8125 C-118.18169129 39.52901063 -117.0990797 38.25723995 -116 37 C-114.824375 35.515 -114.824375 35.515 -113.625 34 C-113.08875 33.34 -112.5525 32.68 -112 32 C-121.54307963 33.35594117 -130.58691824 41.11187514 -137 48 C-137 48.66 -137 49.32 -137 50 C-137.72316406 50.11859375 -138.44632813 50.2371875 -139.19140625 50.359375 C-146.31261705 51.98368456 -152.8008511 55.93767081 -158 61 C-158 61.66 -158 62.32 -158 63 C-158.66 63 -159.32 63 -160 63 C-160 63.66 -160 64.32 -160 65 C-160.66 65 -161.32 65 -162 65 C-164.2773501 67.81509993 -164.2773501 67.81509993 -164 71 C-164.66 71 -165.32 71 -166 71 C-167.3415249 72.59089127 -167.3415249 72.59089127 -168.6875 74.625 C-170.78314611 77.54045876 -172.81390881 79.83176312 -175.625 82.0625 C-180.32899507 85.88189423 -182.5214841 90.08593638 -184 96 C-180.7 96.33 -177.4 96.66 -174 97 C-174.33 98.65 -174.66 100.3 -175 102 C-175.66386719 101.95359375 -176.32773438 101.9071875 -177.01171875 101.859375 C-182.84626553 101.59636968 -182.84626553 101.59636968 -188.125 103.875 C-190.22054055 105.77762162 -190.22054055 105.77762162 -190 108 C-190.66 108 -191.32 108 -192 108 C-194.10502894 112.52900166 -194.82465526 117.04386043 -195.5625 121.9375 C-195.69035889 122.77925781 -195.81821777 123.62101562 -195.94995117 124.48828125 C-198.94720518 143.16850084 -198.94720518 143.16850084 -194 161 C-193.34 161 -192.68 161 -192 161 C-192 161.66 -192 162.32 -192 163 C-191.34 163 -190.68 163 -190 163 C-190.2165625 164.3921875 -190.2165625 164.3921875 -190.4375 165.8125 C-190.40965422 172.69040802 -185.29034709 178.54605669 -180.8125 183.34375 C-173.3894597 190.25130139 -166.84787128 193.56123192 -156.6875 193.6875 C-148.26329086 193.91223638 -148.26329086 193.91223638 -145 195 C-145.33 196.32 -145.66 197.64 -146 199 C-147.98 199.33 -149.96 199.66 -152 200 C-151.11407985 202.35001566 -151.11407985 202.35001566 -148 203.0625 C-140.09381448 205.10866593 -132.05458631 205.13593224 -123.9375 205.0625 C-122.49600586 205.05573242 -122.49600586 205.05573242 -121.02539062 205.04882812 C-118.68352578 205.03717706 -116.34179819 205.02082025 -114 205 C-113.67 202.69 -113.34 200.38 -113 198 C-113.95519531 197.97421875 -114.91039062 197.9484375 -115.89453125 197.921875 C-127.62731519 197.4071766 -136.51815961 195.26268626 -146 188 C-146.66 188 -147.32 188 -148 188 C-148.2475 187.29875 -148.495 186.5975 -148.75 185.875 C-150.74367542 181.28954653 -152.80988036 177.79341309 -157 175 C-159.67197035 174.57885802 -159.67197035 174.57885802 -162.5625 174.4375 C-167.80763359 174.09618321 -167.80763359 174.09618321 -170 173 C-174.05142119 172.74139865 -175.54337669 172.69558446 -179 175 C-179.99 175 -180.98 175 -182 175 C-182.08226668 171.95613276 -181.97608217 169.92824652 -181 167 C-181.66 167 -182.32 167 -183 167 C-183 166.34 -183 165.68 -183 165 C-183.66 165 -184.32 165 -185 165 C-185 164.34 -185 163.68 -185 163 C-185.66 163 -186.32 163 -187 163 C-187.144375 162.401875 -187.28875 161.80375 -187.4375 161.1875 C-187.8872439 159.43849596 -188.42892341 157.71322977 -189 156 C-188.34 156 -187.68 156 -187 156 C-187 155.34 -187 154.68 -187 154 C-183.11778738 155.68284753 -181.29398184 157.85866356 -178.7578125 161.1484375 C-173.90990502 166.25490005 -169.14329054 167.71137264 -162.4375 168.625 C-157.69293206 169.3175173 -153.39660179 169.96276274 -149 172 C-149 172.66 -149 173.32 -149 174 C-148.34 174 -147.68 174 -147 174 C-146.896875 174.556875 -146.79375 175.11375 -146.6875 175.6875 C-144.62280736 182.63237524 -140.04560535 185.53637194 -134 189 C-126.48660827 192.50624948 -117.03752399 192.644039 -109 191 C-108.34 189.35 -107.68 187.7 -107 186 C-108.12277344 185.76925781 -109.24554688 185.53851563 -110.40234375 185.30078125 C-124.92465127 182.18202696 -124.92465127 182.18202696 -131.43359375 177.953125 C-132.97916087 176.82672941 -132.97916087 176.82672941 -135 177 C-135 176.34 -135 175.68 -135 175 C-135.66 175 -136.32 175 -137 175 C-137 174.34 -137 173.68 -137 173 C-137.66 173 -138.32 173 -139 173 C-139.309375 172.21625 -139.61875 171.4325 -139.9375 170.625 C-140.92875038 168.07669872 -140.92875038 168.07669872 -142 166 C-142.58265625 166.02320313 -143.1653125 166.04640625 -143.765625 166.0703125 C-150.92584972 166.22792751 -159.47387123 166.26306438 -166 163 C-165.67 161.68 -165.34 160.36 -165 159 C-164.06148193 159.05329468 -164.06148193 159.05329468 -163.10400391 159.10766602 C-160.27795205 159.26496067 -157.45151826 159.41383248 -154.625 159.5625 C-153.64015625 159.61857422 -152.6553125 159.67464844 -151.640625 159.73242188 C-150.22910156 159.80493164 -150.22910156 159.80493164 -148.7890625 159.87890625 C-147.91975098 159.9260376 -147.05043945 159.97316895 -146.15478516 160.02172852 C-143.94857369 160.15685853 -143.94857369 160.15685853 -142 159 C-142 157.02 -142 155.04 -142 153 C-142.66 153 -143.32 153 -144 153 C-144 152.34 -144 151.68 -144 151 C-144.79921875 150.731875 -145.5984375 150.46375 -146.421875 150.1875 C-154.49639055 147.3064522 -162.69350258 143.99969485 -169 138 C-169.32421875 135.25 -169.32421875 135.25 -169 133 C-164.99190078 133.52792988 -163.02927087 134.54759485 -160.0625 137.25 C-155.19740651 141.271483 -150.15775068 142.86409029 -144.13671875 144.56640625 C-140.1616787 146.38314311 -138.94419571 148.12100082 -137 152 C-136.49609375 155.03515625 -136.49609375 155.03515625 -136.4375 158.0625 C-136.33843039 162.590564 -135.75420853 165.32996663 -133 169 C-132.34 169 -131.68 169 -131 169 C-131 169.66 -131 170.32 -131 171 C-118.11897357 178.35419073 -118.11897357 178.35419073 -103.859375 180.8515625 C-101.32089552 179.68898156 -100.01934933 178.08113476 -98.25 175.9375 C-97.63640625 175.20402344 -97.0228125 174.47054687 -96.390625 173.71484375 C-95.93171875 173.14894531 -95.4728125 172.58304688 -95 172 C-97.25779696 170.26323311 -99.48210316 168.71240717 -101.93359375 167.25 C-105.57393929 164.57886748 -107.61344711 161.73412211 -110.0625 158 C-114.39653286 151.45444642 -118.13454462 147.1950108 -126 145 C-126 143.68 -126 142.36 -126 141 C-119.02742521 141.24902053 -114.95114506 143.04885494 -110 148 C-107.83298136 150.73645419 -105.8177792 153.52501167 -103.859375 156.4140625 C-101.18859619 160.12846496 -98.42621453 163.52459516 -94 165 C-87.53715263 165.63568991 -84.37392443 164.58261629 -79 161 C-80.175625 159.8553125 -80.175625 159.8553125 -81.375 158.6875 C-84 156 -84 156 -86 153 C-86.66 153 -87.32 153 -88 153 C-88.28875 152.236875 -88.5775 151.47375 -88.875 150.6875 C-89.96269013 147.84970692 -89.96269013 147.84970692 -92 145 C-92.66 145 -93.32 145 -94 145 C-94.226875 144.34 -94.45375 143.68 -94.6875 143 C-96.3878815 139.11341372 -98.39623084 135.36320183 -101 132 C-101.66 132 -102.32 132 -103 132 C-103 131.34 -103 130.68 -103 130 C-103.66 130 -104.32 130 -105 130 C-105 129.34 -105 128.68 -105 128 C-113.48009932 122.98999629 -113.48009932 122.98999629 -123 123 C-124.91656607 123.95966584 -126.81081849 124.9645047 -128.6875 126 C-135.18359032 129.47006344 -140.73758029 130.1426207 -148 129 C-151.4681395 127.8361159 -154.11319528 126.38148491 -156.1484375 123.2109375 C-157.49868692 119.70524405 -157.40393425 116.18274356 -157.55859375 112.4609375 C-157.70425781 111.64882812 -157.84992188 110.83671875 -158 110 C-160.81509993 107.7226499 -160.81509993 107.7226499 -164 108 C-164 108.66 -164 109.32 -164 110 C-164.66 110 -165.32 110 -166 110 C-166.18433594 110.61488281 -166.36867188 111.22976562 -166.55859375 111.86328125 C-168.90990365 118.41559816 -168.90990365 118.41559816 -172.1640625 120.16015625 C-174.5625 120.875 -174.5625 120.875 -176.87890625 121.3671875 C-179.38476854 122.11479282 -180.42634773 122.92653994 -182 125 C-182.69606225 132.37825988 -181.14498548 139.72116371 -180 147 C-181.98 147 -183.96 147 -186 147 C-186.06058594 146.14277344 -186.12117188 145.28554687 -186.18359375 144.40234375 C-186.69706583 137.24068449 -186.69706583 137.24068449 -187.625 130.125 C-188.05268251 126.56097906 -187.64609888 123.51764948 -187 120 C-186.34 120 -185.68 120 -185 120 C-185 119.34 -185 118.68 -185 118 C-184.34 118 -183.68 118 -183 118 C-183 117.34 -183 116.68 -183 116 C-181.741875 115.9175 -180.48375 115.835 -179.1875 115.75 C-175.79820511 115.33344381 -175.79820511 115.33344381 -173.125 113.25 C-171.94067236 110.98698206 -171.94067236 110.98698206 -171.0625 108.4375 C-169.7722299 105.4774686 -168.87185867 104.47473824 -166 103 C-161.62467103 102.60934563 -158.7954697 102.83116017 -155 105 C-154.01 105 -153.02 105 -152 105 C-150.02 101.37 -148.04 97.74 -146 94 C-144.68 94.33 -143.36 94.66 -142 95 C-142.57573987 98.70305419 -143.59707726 101.40552025 -145.5 104.625 C-146.97223977 107.13294334 -148.07500549 109.22501648 -149 112 C-149.66 112 -150.32 112 -151 112 C-151.66 113.65 -152.32 115.3 -153 117 C-149.7500287 121.4787611 -149.7500287 121.4787611 -145 124 C-139.96976736 124.4197892 -136.80563827 123.28036732 -132.3125 121.0625 C-124.08914545 117.05041353 -118.25557225 115.7242209 -109.4375 118.5625 C-98.19111328 123.04867902 -92.47673809 134.07534342 -86.1640625 143.83984375 C-85.37128906 145.06380859 -85.37128906 145.06380859 -84.5625 146.3125 C-84.11003906 147.03050781 -83.65757812 147.74851563 -83.19140625 148.48828125 C-82.79824219 148.98714844 -82.40507812 149.48601562 -82 150 C-81.34 150 -80.68 150 -80 150 C-80 150.66 -80 151.32 -80 152 C-79.34 152 -78.68 152 -78 152 C-78 152.66 -78 153.32 -78 154 C-77.34 154 -76.68 154 -76 154 C-76 154.66 -76 155.32 -76 156 C-71.60187272 158.63887637 -68.13015527 157.79893844 -63.3828125 156.71484375 C-60.59861983 155.87958595 -58.34340841 154.7184995 -56 153 C-56.26041335 151.47734784 -56.53397316 149.95694316 -56.8125 148.4375 C-56.96332031 147.59058594 -57.11414063 146.74367187 -57.26953125 145.87109375 C-57.92643493 142.87751431 -57.92643493 142.87751431 -59.54296875 139.85546875 C-61.68750516 135.01562055 -61.53195613 130.09194543 -61.5 124.875 C-61.49718018 123.85760742 -61.49436035 122.84021484 -61.49145508 121.79199219 C-61.29245611 112.50340112 -59.92805667 103.74520474 -53 97 C-53 96.34 -53 95.68 -53 95 C-50.525 94.01 -50.525 94.01 -48 93 C-48.17917969 92.20078125 -48.35835937 91.4015625 -48.54296875 90.578125 C-50.15826638 82.23731541 -49.69491294 76.04127249 -47 68 C-46.34 68 -45.68 68 -45 68 C-42.60179695 65.36315253 -42.60179695 65.36315253 -42 62 C-41.45472656 61.77699219 -40.90945312 61.55398437 -40.34765625 61.32421875 C-37.26939087 59.58789269 -34.91968859 57.28798903 -32.4375 54.8125 C-31.95603516 54.35552734 -31.47457031 53.89855469 -30.97851562 53.42773438 C-27.37206711 49.85105022 -25.7356009 46.66854671 -24 42 C-23.608125 41.030625 -23.21625 40.06125 -22.8125 39.0625 C-22.544375 38.381875 -22.27625 37.70125 -22 37 C-21.01 37 -20.02 37 -19 37 C-18.64596657 42.90055709 -18.93352099 46.76143169 -22 52 C-22 52.66 -22 53.32 -22 54 C-22.66 54 -23.32 54 -24 54 C-24 54.66 -24 55.32 -24 56 C-24.66 56 -25.32 56 -26 56 C-26 56.66 -26 57.32 -26 58 C-26.66 58 -27.32 58 -28 58 C-28 58.66 -28 59.32 -28 60 C-28.99 60.33 -29.98 60.66 -31 61 C-31 61.66 -31 62.32 -31 63 C-31.66 63 -32.32 63 -33 63 C-33 63.66 -33 64.32 -33 65 C-33.61875 65.2475 -34.2375 65.495 -34.875 65.75 C-37.35068687 67.20628639 -37.95125002 68.37812506 -39 71 C-39.66 71 -40.32 71 -41 71 C-43.64341818 74.96512728 -44.07446707 78.27134121 -44 83 C-43.13509406 86.92968135 -41.77170081 90.53074757 -39.90234375 94.08984375 C-38.76880652 96.48940957 -38.8543956 98.37912079 -39 101 C-41.31 100.34 -43.62 99.68 -46 99 C-52.294259 104.59489689 -55.57096309 111.11766859 -56.30859375 119.51171875 C-56.77541392 130.72622759 -54.49102263 139.74902313 -50 150 C-48.12756019 151.87243981 -45.06340482 151.17380392 -42.5625 151.1875 C-41.38816406 151.20167969 -40.21382812 151.21585938 -39.00390625 151.23046875 C-35.88503098 151.31899256 -35.88503098 151.31899256 -34 149 C-34.474375 148.113125 -34.94875 147.22625 -35.4375 146.3125 C-37.91132425 141.0679926 -38.11322992 136.77472579 -38 131 C-36.0625 130.4375 -36.0625 130.4375 -34 130 C-32.25445321 131.74554679 -32.53983047 134.37339012 -32.25 136.75 C-31.40120798 142.23450231 -30.44847058 144.72217957 -26 148 C-25.38125 147.566875 -24.7625 147.13375 -24.125 146.6875 C-16.09209468 142.34973112 -8.22944182 141.60147609 0.75463867 141.37841797 C6.16906744 141.22186349 6.16906744 141.22186349 11 139 C10.76023437 138.42894531 10.52046875 137.85789063 10.2734375 137.26953125 C7.264927 129.04190907 7.82789541 121.45404364 11.0703125 113.3125 C11.77102228 111.8228792 12.50721398 110.34890995 13.29296875 108.90234375 C14.18757737 106.49530286 13.92253832 105.36946686 13 103 C12.319375 102.195625 11.63875 101.39125 10.9375 100.5625 C8.77092135 97.69702501 8.60081817 96.49284103 9 93 C10.65 93.33 12.3 93.66 14 94 C14.33 94.99 14.66 95.98 15 97 C15.99 97.33 16.98 97.66 18 98 C18.31453125 96.77023438 18.6290625 95.54046875 18.953125 94.2734375 C19.38482917 92.64046957 19.81715378 91.00766558 20.25 89.375 C20.55744141 88.16263672 20.55744141 88.16263672 20.87109375 86.92578125 C22.23016052 81.86016874 23.94238966 78.24668102 27 74 C27 73.34 27 72.68 27 72 C27.66 72 28.32 72 29 72 C29 71.34 29 70.68 29 70 C29.66 70 30.32 70 31 70 C31 69.34 31 68.68 31 68 C31.66 68 32.32 68 33 68 C33 67.34 33 66.68 33 66 C34.98 65.01 34.98 65.01 37 64 C37.33986878 61.05161682 37.33986878 61.05161682 35.71484375 59.61328125 C32.65805041 57.37611162 30.36693346 56.08154077 26.625 55.25 C20.28760935 56.56118427 15.97431571 60.33257345 12.1640625 65.48046875 C9.90900407 69.11606294 8.17864895 72.37472868 7 76.5 C6 79 6 79 3.5 80.25 C1.53791898 80.67044593 -0.42869175 81.07376838 -2.40625 81.4140625 C-7.79646866 82.3719628 -11.76773468 83.27157579 -16 87 C-19.62625189 92.29379838 -20.60472803 95.95908411 -20.375 102.3125 C-20.36210937 103.06160645 -20.34921875 103.81071289 -20.3359375 104.58251953 C-20.20168039 109.43150874 -19.57398797 113.9560507 -18.453125 118.6796875 C-16.91578804 126.55191297 -18.12993727 134.30268823 -20 142 C-21.65 142 -23.3 142 -25 142 C-24.855625 141.32195312 -24.71125 140.64390625 -24.5625 139.9453125 C-22.68659673 130.53974192 -22.50608499 122.91203482 -24.5 113.5 C-26.54843599 103.81382412 -26.84455571 97.1308198 -23 88 C-23 87.01 -23 86.02 -23 85 C-22.34 85 -21.68 85 -21 85 C-21 84.34 -21 83.68 -21 83 C-20.34 83 -19.68 83 -19 83 C-19 82.34 -19 81.68 -19 81 C-18.34 81 -17.68 81 -17 81 C-17 80.34 -17 79.68 -17 79 C-16.071875 78.71125 -15.14375 78.4225 -14.1875 78.125 C-10.90208333 77.1125 -10.90208333 77.1125 -8 75 C-7.83010046 72.20112867 -7.81261233 69.60008695 -7.9375 66.8125 C-8.26878551 58.68543212 -7.1194748 52.2090809 -3 45 C-2.34 44.67 -1.68 44.34 -1 44 C-1 43.34 -1 42.68 -1 42 C-0.195625 41.79375 0.60875 41.5875 1.4375 41.375 C6.11626349 39.56916146 9.93561746 36.90418607 14 34 C14.70898438 33.52433594 15.41796875 33.04867187 16.1484375 32.55859375 C18.23831895 30.79938975 19.07931759 29.56272424 20 27 C20.23979762 24.63777768 20.23979762 24.63777768 20.125 22.25 C20.10695313 21.45078125 20.08890625 20.6515625 20.0703125 19.828125 C20.04710937 19.22484375 20.02390625 18.6215625 20 18 C19.34 18 18.68 18 18 18 C17.74734375 17.39414063 17.4946875 16.78828125 17.234375 16.1640625 C14.73821969 11.78789149 9.69739847 9.71667935 5.1875 7.8125 C-3.5696578 5.58028331 -12.03264081 4.63655452 -21.0625 4.625 C-22.5794043 4.58826172 -22.5794043 4.58826172 -24.12695312 4.55078125 C-31.21327171 4.52340333 -36.63482288 5.89696517 -43 9 Z M17 7 C18.11375 7.7425 18.11375 7.7425 19.25 8.5 C23.59401075 12.44910069 25.69640404 16.61460317 26.4375 22.4375 C25.89131453 26.88501028 24.59004618 30.82612878 23 35 C22.34 35 21.68 35 21 35 C20.18015625 36.11761719 20.18015625 36.11761719 19.34375 37.2578125 C16.02551887 41.14014292 12.07753285 42.70885407 7.48828125 44.78515625 C3.42562832 46.77188273 0.73048273 48.71135311 -1.35546875 52.93066406 C-2.63636607 57.04312076 -2.40958085 61.17485 -2.25 65.4375 C-2.23195312 66.35982422 -2.21390625 67.28214844 -2.1953125 68.23242188 C-2.14853601 70.48938733 -2.08301871 72.74412612 -2 75 C1.13696159 74.31230476 1.13696159 74.31230476 2.359375 71.77734375 C3.04773438 70.37162109 3.04773438 70.37162109 3.75 68.9375 C7.97047075 60.92276367 13.34710029 53.52883619 22 50 C26.32453973 48.99016987 29.54560405 49.20019747 33.46484375 51.35546875 C35.02652895 52.42105946 36.55975031 53.53012927 38.0546875 54.6875 C40.02336924 56.27965065 40.02336924 56.27965065 43 56 C46.55178749 52.67793011 49.24752093 48.59705921 50.25 43.8125 C50.1675 42.554375 50.085 41.29625 50 40 C47.64545825 37.90775118 47.64545825 37.90775118 45.7578125 36.67578125 C42.4901222 33.56058316 41.13186646 29.25310659 39.39453125 25.15625 C38.11141382 22.25216348 36.80688362 19.61048416 35 17 C34.34 17 33.68 17 33 17 C33 15.35 33 13.7 33 12 C33.99 11.67 34.98 11.34 36 11 C41.9436601 16.78302063 44.62669758 21.1226558 47 29 C47.66 29 48.32 29 49 29 C49.495 30.98 49.495 30.98 50 33 C51.57692688 30.63460967 52.584921 28.68936925 53.6875 26.125 C55.89716156 21.55444529 58.80917067 19.74015764 63 17 C63 16.34 63 15.68 63 15 C54.13220879 9.22562433 25.87991589 -1.87991589 17 7 Z M68 20 C66.906875 20.680625 65.81375 21.36125 64.6875 22.0625 C63.3571875 23.0215625 63.3571875 23.0215625 62 24 C62 24.66 62 25.32 62 26 C61.34 26 60.68 26 60 26 C57.11522985 31.19258627 55.77090897 35.60250257 55.5 41.5625 C55.05712874 50.00657871 52.57058335 54.85484138 46.42578125 60.51171875 C44.54840243 62.47139363 43.50663165 64.76489538 42.2578125 67.15234375 C40.65368841 69.50871237 38.73949716 71.10178128 36.5625 72.9375 C29.08227124 79.37369026 26.8799838 84.90086071 24.94921875 94.4765625 C23.54444331 99.69099645 21.15372895 104.15687819 18.62109375 108.90625 C15.42854444 114.99901881 12.55266193 121.88448971 13.3125 128.875 C13.86613248 130.58622766 14.43124618 132.29373855 15 134 C15.66 134 16.32 134 17 134 C17.33 134.66 17.66 135.32 18 136 C19.27445454 135.57316368 20.54445882 135.13302798 21.8125 134.6875 C22.52019531 134.44386719 23.22789062 134.20023437 23.95703125 133.94921875 C26.96774653 132.55035869 28.54616954 130.78823185 30.1875 127.9375 C31.37787032 123.63385345 31.1550775 119.43693967 31 115 C32.65 115.33 34.3 115.66 36 116 C36 120.62 36 125.24 36 130 C37.11117187 129.7834375 38.22234375 129.566875 39.3671875 129.34375 C52.90140714 126.78667746 52.90140714 126.78667746 58.75 127 C62.76393693 127.10848478 64.88414668 126.7696474 68 124 C72.5102115 119.13228321 72.5102115 119.13228321 74 113 C74.66 113 75.32 113 76 113 C76 111.68 76 110.36 76 109 C76.66 109 77.32 109 78 109 C80.20324775 103.76728658 80.83144618 98.60742772 80 93 C78.12498069 90.62280307 78.12498069 90.62280307 76 89 C76 87.68 76 86.36 76 85 C77.65 85 79.3 85 81 85 C81.33 85.66 81.66 86.32 82 87 C82.66 87 83.32 87 84 87 C87.18511968 97.81334749 85.36566706 106.78096637 80.28540039 116.45605469 C76.18707611 123.84431381 72.49137164 130.48803344 64 133 C61.81834685 133.17800965 59.7328193 133.12129073 57.546875 133.01953125 C48.78321546 132.95232527 40.26011466 135.30399035 32 138 C30.66747331 138.40242033 29.33406389 138.80192407 28 139.19921875 C26.56245139 139.63265131 25.12495152 140.06624555 23.6875 140.5 C23.00518311 140.70149658 22.32286621 140.90299316 21.61987305 141.1105957 C18.68185811 142.01156766 16.20789522 142.85345666 13.68359375 144.6328125 C9.42482522 146.80249079 5.08370424 146.35807354 0.375 146.375 C-9.07411252 146.59917184 -15.81100798 147.9930244 -23.828125 153.18359375 C-29.20710974 156.37590426 -34.52847899 156.42714099 -40.63671875 156.64208984 C-47.91162283 156.93135998 -53.90522424 158.64264221 -60.5625 161.5625 C-63.32655334 162.71837685 -65.25335711 163.26531254 -68.125 163.75 C-78.77494523 165.98539806 -88.31244977 172.51527865 -95 181 C-95 181.66 -95 182.32 -95 183 C-95.66 183 -96.32 183 -97 183 C-99.31592022 186.22114157 -99.31592022 186.22114157 -100 190 C-100.66 190 -101.32 190 -102 190 C-105.79003266 197.08331348 -108.85151156 203.76872161 -108 212 C-106.46657921 216.32540392 -104.54424408 220.18363388 -102 224 C-101.34 224 -100.68 224 -100 224 C-100 224.66 -100 225.32 -100 226 C-98.39125 226.9590625 -98.39125 226.9590625 -96.75 227.9375 C-96.14671875 228.29714844 -95.5434375 228.65679687 -94.921875 229.02734375 C-93.02843379 230.10377644 -93.02843379 230.10377644 -90.84375 230.37109375 C-90.2353125 230.57863281 -89.626875 230.78617188 -89 231 C-88.234375 232.8203125 -88.234375 232.8203125 -87.75 235.125 C-85.71001706 242.09863733 -80.6179605 245.13002821 -74.9375 249.1875 C-60.34810729 257.00444944 -38.85649119 258.74992319 -22.97265625 254.18359375 C-18.10669024 252.24615919 -13.67704333 249.63887023 -9.203125 246.93359375 C4.38960585 238.72822573 22.09322007 233.43965639 38.05078125 235.625 C48.79935111 236.99170557 58.61791018 235.97464371 69 233 C76.64686112 231.2457201 84.19583441 230.63119126 92.0078125 230.24609375 C94.88108577 230.33450313 94.88108577 230.33450313 96 229 C100.43043816 228.7136895 104.8739448 228.76797896 109.3125 228.75 C111.15811523 228.7190625 111.15811523 228.7190625 113.04101562 228.6875 C120.12670268 228.65755521 126.16437181 229.39263669 132.96948242 231.30126953 C138.60036997 232.5995536 144.24561584 232.55307688 150 232.5625 C151.18078125 232.59923828 152.3615625 232.63597656 153.578125 232.67382812 C162.87736645 232.71991467 170.86939749 230.54293959 177.96948242 224.25610352 C181.84393528 220.11618008 184.46254986 215.02974993 187 210 C187.86625 208.3603125 187.86625 208.3603125 188.75 206.6875 C190.52299196 201.45717373 190.69043494 196.51025807 191 191 C187.37 190.01 183.74 189.02 180 188 C180.33 186.35 180.66 184.7 181 183 C184.12290635 183.48578543 186.99580359 183.9986012 190 185 C190.66 184.67 191.32 184.34 192 184 C195.26178948 174.21463155 195.70532919 160.41065838 191 151 C190.81761071 148.98213755 190.6784248 146.96026943 190.5625 144.9375 C189.86167215 135.76666702 188.17436395 128.93675157 184.125 120.6875 C183.78525146 119.99293701 183.44550293 119.29837402 183.09545898 118.58276367 C181.15666673 114.78413451 179.26310509 111.84607148 176 109 C175.69255859 110.57201172 175.69255859 110.57201172 175.37890625 112.17578125 C175.10687314 113.55470769 174.83473209 114.93361283 174.5625 116.3125 C174.36043945 117.34793945 174.36043945 117.34793945 174.15429688 118.40429688 C173.57225668 121.34289007 172.94847772 124.15456685 172 127 C169.36 127.33 166.72 127.66 164 128 C164 126.02 164 124.04 164 122 C164.99 122 165.98 122 167 122 C167.27714844 120.85660156 167.55429687 119.71320313 167.83984375 118.53515625 C168.20554378 117.04422535 168.57143929 115.55334239 168.9375 114.0625 C169.11990234 113.30775391 169.30230469 112.55300781 169.49023438 111.77539062 C170.88671875 106.11328125 170.88671875 106.11328125 172 105 C171.84918599 95.80034539 168.06360124 86.97479815 162 80 C161.34 80 160.68 80 160 80 C160 79.34 160 78.68 160 78 C158.3603125 77.01 158.3603125 77.01 156.6875 76 C152.49766915 73.1674383 151.77337859 70.15131077 150.61328125 65.3828125 C149.87964264 62.53236949 148.79061994 60.33559122 147 58 C146.34 58 145.68 58 145 58 C144.62294922 57.12794922 144.62294922 57.12794922 144.23828125 56.23828125 C139.66181966 47.96600209 129.47006769 42.40678 121 39 C117.7327548 38.49977349 115.30998269 38.60729019 112 39 C112.33 36.69 112.66 34.38 113 32 C111.35 31.34 109.7 30.68 108 30 C108 29.34 108 28.68 108 28 C105.18490007 25.7226499 105.18490007 25.7226499 102 26 C102 25.34 102 24.68 102 24 C92.35285544 18.81912607 77.87440449 12.10047641 68 20 Z M86.0078125 242.015625 C80.02328608 245.96385802 73.45974827 248.91438823 67 252 C67 252.33 67 252.66 67 253 C69.60365928 253.22171552 72.20696493 253.42784859 74.8125 253.625 C75.55048828 253.68945312 76.28847656 253.75390625 77.04882812 253.8203125 C81.80558496 254.17970261 81.80558496 254.17970261 86 252 C85.34 252 84.68 252 84 252 C84 250.35 84 248.7 84 247 C84.680625 246.7525 85.36125 246.505 86.0625 246.25 C88.89925261 245.04287123 91.45256838 243.56834213 94.10546875 242.0078125 C96.69087976 240.63248046 99.37898309 239.70310524 102.1328125 238.72265625 C104.6209888 237.75965915 106.80491871 236.50911838 109 235 C109 234.67 109 234.34 109 234 C99.27542552 233.47904065 93.74910159 236.33706185 86.0078125 242.015625 Z M119 235 C119 235.66 119 236.32 119 237 C118.01 237 117.02 237 116 237 C116 237.66 116 238.32 116 239 C115.42040527 239.12979248 114.84081055 239.25958496 114.24365234 239.39331055 C110.50520966 240.40419521 107.11668776 242.15964781 103.625 243.8125 C102.8825 244.15603516 102.14 244.49957031 101.375 244.85351562 C96.97833364 246.92367744 92.92628339 249.12695771 89 252 C89 252.33 89 252.66 89 253 C93.21878192 253.19622241 96.17010894 252.80230168 100 251 C100 250.34 100 249.68 100 249 C101.3303125 248.5978125 101.3303125 248.5978125 102.6875 248.1875 C105.93866161 247.15626138 105.93866161 247.15626138 108.34765625 245.5234375 C111.16651891 243.90435585 113.59109957 243.16872695 116.75 242.4375 C118.31427734 242.06625 118.31427734 242.06625 119.91015625 241.6875 C122.66419026 241.07471873 125.42361498 240.50354365 128.1875 239.9375 C129.445625 239.628125 130.70375 239.31875 132 239 C132.33 238.34 132.66 237.68 133 237 C126.08840962 235.27071163 126.08840962 235.27071163 119 235 Z M71.125 238.4375 C64.33415479 240.27262397 57.9002356 241.13050939 50.859375 241.0625 C49.54195312 241.05476562 48.22453125 241.04703125 46.8671875 241.0390625 C45.49478623 241.02662777 44.12239021 241.01360085 42.75 241 C40.03641531 240.9733838 37.32307474 240.9534943 34.609375 240.9375 C33.41280273 240.92589844 32.21623047 240.91429687 30.98339844 240.90234375 C27.94520521 240.85991957 27.94520521 240.85991957 25 242 C25.32038962 249.20876652 26.68143654 253.68143654 31.9375 258.9375 C33.97471018 260.19601767 33.97471018 260.19601767 36.4375 259.9375 C39.55620533 258.79651024 41.59123231 257.27112383 44 255 C44 254.34 44 253.68 44 253 C48.09106038 251.58717134 52.18215738 250.44063934 56.375 249.375 C64.87195141 246.98353393 75.66877493 243.33122507 82 237 C78.10579715 236.83595849 74.87887954 237.41858984 71.125 238.4375 Z M135.38671875 243.4296875 C131.53063459 245.21762964 127.89498075 246.05247525 123.75 246.875 C116.6890774 248.30801977 110.75479311 250.72948974 104.44042969 254.18310547 C95.67719751 258.96619665 87.92429816 259.25945556 78.0625 259.125 C76.17821289 259.11146484 76.17821289 259.11146484 74.25585938 259.09765625 C71.17037478 259.07419249 68.08528795 259.04136201 65 259 C65.33 257.02 65.66 255.04 66 253 C59.01573108 254.51383169 52.99835839 256.04653652 47 260 C47 260.99 47 261.98 47 263 C47.589021 262.99476318 48.17804199 262.98952637 48.78491211 262.98413086 C51.50243017 262.96310197 54.21993101 262.95025854 56.9375 262.9375 C57.86369141 262.92912109 58.78988281 262.92074219 59.74414062 262.91210938 C64.89021258 262.89405298 69.89418702 263.09362846 74.99902344 263.7590332 C85.68387589 265.04575226 94.94925565 262.39914771 104.6875 258.0625 C112.4752315 254.66436897 120.52039418 253.54797334 128.9050293 252.46899414 C137.46532233 251.31726043 147.91742383 249.71180819 154 243 C154 241.68 154 240.36 154 239 C146.44344517 238.09722575 141.95441451 239.81367063 135.38671875 243.4296875 Z M-5 252 C-2.17419881 257.52443806 -2.17419881 257.52443806 2 262 C2.66 262 3.32 262 4 262 C4 262.66 4 263.32 4 264 C5.74899651 265.02732319 7.5035342 266.04626797 9.28344727 267.01904297 C19.1383216 272.49192285 23.28816921 277.99012474 28 288 C29.20549973 290.15921787 30.43366769 292.30598507 31.6875 294.4375 C32.25726563 295.41460937 32.82703125 296.39171875 33.4140625 297.3984375 C35.05943415 300.09749542 36.85206559 302.60896012 38.73828125 305.140625 C41.91258943 309.81855285 44.47383798 314.94767596 47 320 C47.66 320 48.32 320 49 320 C49.10828125 320.54527344 49.2165625 321.09054687 49.328125 321.65234375 C50.14632171 324.51127528 51.36182087 326.93283078 52.75 329.5625 C53.23984375 330.51253906 53.7296875 331.46257812 54.234375 332.44140625 C56.20664689 335.29945511 57.88968558 336.51005906 61 338 C61.66 338 62.32 338 63 338 C61.46700448 329.96596792 58.99139081 322.62525026 55.5078125 315.23046875 C54.36641026 312.78502923 53.26054769 310.33534206 52.1796875 307.86328125 C47.75418206 297.74343458 43.0190479 287.83777903 38 278 C36.99819127 276.00090539 35.99754375 274.00122624 35 272 C34.34 272 33.68 272 33 272 C32.8453125 270.8553125 32.8453125 270.8553125 32.6875 269.6875 C31.93370671 266.74085352 31.26931329 265.92018817 29 264 C28.484375 263.443125 27.96875 262.88625 27.4375 262.3125 C26.07826341 260.77524355 26.07826341 260.77524355 24 261 C22 255 20 249 18 243 C9.82393245 243 1.50564706 247.40777855 -5 252 Z M151 252 C150.38253906 252.26554688 149.76507813 252.53109375 149.12890625 252.8046875 C140.59432008 256.36401263 132.80482766 258.11667674 123.578125 258.65625 C120.79208867 259.02772151 118.55848642 259.85880462 116 261 C116 261.33 116 261.66 116 262 C133.16182898 263.10372098 133.16182898 263.10372098 148.90625 257.6875 C150.46042253 256.24372315 150.46042253 256.24372315 152 254 C151.505 253.01 151.505 253.01 151 252 Z M98.3125 266.875 C89.19798666 269.93031655 80.48470379 269.32442079 71 269 C68.93598921 268.93935662 66.87190845 268.88155295 64.80781555 268.82377625 C56.20402325 268.58219646 47.60189605 268.30137094 39 268 C39.99 269.485 39.99 269.485 41 271 C41.66 271 42.32 271 43 271 C43 271.66 43 272.32 43 273 C44.98 273.66 46.96 274.32 49 275 C49 275.66 49 276.32 49 277 C49.71285156 277.38671875 50.42570313 277.7734375 51.16015625 278.171875 C52.11792969 278.69265625 53.07570313 279.2134375 54.0625 279.75 C55.07054687 280.29785156 56.07859375 280.84570312 57.1171875 281.41015625 C59.33446313 282.63296273 61.51481859 283.8889439 63.6875 285.1875 C74.25835665 290.97155364 87.10177922 293.97455519 99 291 C99 290.67 99 290.34 99 290 C97.88882813 289.90203125 96.77765625 289.8040625 95.6328125 289.703125 C85.63930275 288.73524965 76.57868596 287.69991574 68.4375 281.3125 C64.61608524 278.33216217 60.7312862 278.11801394 56 278 C55.67 276.35 55.34 274.7 55 273 C56.23153809 273.00523682 57.46307617 273.01047363 58.73193359 273.01586914 C63.29035722 273.03393553 67.84877767 273.04543804 72.40722656 273.05493164 C74.38216687 273.0599681 76.35710343 273.06679751 78.33203125 273.07543945 C81.16667605 273.08753508 84.00127166 273.0932351 86.8359375 273.09765625 C87.72243988 273.10281754 88.60894226 273.10797882 89.52230835 273.11329651 C93.89771239 273.25402092 93.89771239 273.25402092 98 272 C99.8795139 271.90269196 101.76250118 271.86923271 103.64453125 271.8671875 C104.79759766 271.86589844 105.95066406 271.86460937 107.13867188 271.86328125 C108.35103516 271.86714844 109.56339844 271.87101562 110.8125 271.875 C112.56723633 271.86919922 112.56723633 271.86919922 114.35742188 271.86328125 C120.35980035 271.86991005 126.1175405 272.12531584 132.07421875 272.8828125 C136.24897657 273.36652084 136.24897657 273.36652084 139.92114258 271.72998047 C141.51118657 269.93204873 141.51118657 269.93204873 143 267 C142.06728271 267.01047363 141.13456543 267.02094727 140.17358398 267.03173828 C136.68657927 267.06598623 133.19975542 267.09097934 129.71264648 267.10986328 C128.20838587 267.11987124 126.70414447 267.1334818 125.19995117 267.15087891 C123.02778357 267.17535809 120.85587496 267.18653523 118.68359375 267.1953125 C116.72764282 267.21102295 116.72764282 267.21102295 114.73217773 267.22705078 C106.40540582 265.55991726 106.40540582 265.55991726 98.3125 266.875 Z M95.82421875 278.51953125 C89.95536089 279.51796765 83.93200339 279.14586894 78 279 C78.88817774 281.35603162 78.88817774 281.35603162 82.03515625 282.06640625 C88.32402409 283.49117314 94.78659069 283.62831892 101.20825195 283.8527832 C103.43047453 283.93723302 105.64873532 284.05911688 107.86914062 284.18164062 C115.98532579 284.53074954 122.3508072 284.25589479 129 279 C129 278.67 129 278.34 129 278 C112.33154623 276.70024076 112.33154623 276.70024076 95.82421875 278.51953125 Z M49 284 C49.81078762 287.8512412 51.2802253 291.42654863 52.75 295.0625 C53.01876953 295.73152344 53.28753906 296.40054687 53.56445312 297.08984375 C55.12299598 300.93646015 56.75536689 304.73317852 58.5 308.5 C60.52140729 312.86990314 62.38764257 317.28547559 64.1875 321.75 C64.67605469 322.96171875 65.16460937 324.1734375 65.66796875 325.421875 C66.97365521 328.92923218 68.0236831 332.39086644 69 336 C70.98 335.505 70.98 335.505 73 335 C74.58361113 330.21212307 73.13467442 326.77132553 71.3125 322.3125 C71.0343042 321.59989014 70.7561084 320.88728027 70.46948242 320.15307617 C69.29037315 317.1468418 68.0685739 314.16241186 66.8125 311.1875 C66.4825 310.40375 66.1525 309.62 65.8125 308.8125 C65.49023438 308.049375 65.16796875 307.28625 64.8359375 306.5 C63.82244378 303.46899075 63.43233468 300.4679675 62.9375 297.3125 C62.09305979 293.23023474 61.50341845 291.46178233 58.40234375 288.6171875 C54.01714683 285.4767161 54.01714683 285.4767161 49 284 Z " fill="#C4C4C4" transform="translate(252,79)"/>
<path d="M0 0 C1.2065625 0.0309375 1.2065625 0.0309375 2.4375 0.0625 C4.57944316 4.34638631 4.45733892 9.72751341 5 14.4375 C5.20786133 16.13326172 5.20786133 16.13326172 5.41992188 17.86328125 C8.32157462 42.82035361 8.32157462 42.82035361 1.90625 51.01953125 C0.26405738 53.30375131 -0.16457301 55.01654012 -0.75 57.75 C-2.71703201 64.85024922 -7.50476505 70.02401003 -13.5625 74.0625 C-15.88760612 74.33357607 -18.22444569 74.51053276 -20.5625 74.625 C-25.65214128 74.86407219 -25.65214128 74.86407219 -30.5625 76.0625 C-31.37799921 78.82308654 -31.37799921 78.82308654 -31.875 82.125 C-33.78033837 91.18528087 -38.15452607 96.70354014 -45.5625 102.0625 C-49.22559727 103.80800273 -52.21385565 104.29739352 -56.25 104.4375 C-61.58061593 104.78672453 -65.75733665 106.02002282 -70.6015625 108.22265625 C-72.5625 109.0625 -72.5625 109.0625 -74.5625 109.0625 C-74.5625 109.7225 -74.5625 110.3825 -74.5625 111.0625 C-72.5825 111.5575 -72.5825 111.5575 -70.5625 112.0625 C-70.5625 112.7225 -70.5625 113.3825 -70.5625 114.0625 C-69.9025 114.0625 -69.2425 114.0625 -68.5625 114.0625 C-68.5625 114.7225 -68.5625 115.3825 -68.5625 116.0625 C-67.9025 116.0625 -67.2425 116.0625 -66.5625 116.0625 C-66.5625 116.7225 -66.5625 117.3825 -66.5625 118.0625 C-65.9025 118.0625 -65.2425 118.0625 -64.5625 118.0625 C-62.77840198 121.12496747 -62.33369979 123.28329273 -62.4375 126.8125 C-62.45554687 127.61171875 -62.47359375 128.4109375 -62.4921875 129.234375 C-62.51539063 129.83765625 -62.53859375 130.4409375 -62.5625 131.0625 C-64.9375 131.6875 -64.9375 131.6875 -67.5625 132.0625 C-70.32841336 129.29658664 -70.0362411 126.87787701 -70.5625 123.0625 C-71.10467768 120.72585851 -71.10467768 120.72585851 -72.5625 119.0625 C-75.29435596 117.76190936 -75.29435596 117.76190936 -78.5625 117.0625 C-79.655625 116.794375 -80.74875 116.52625 -81.875 116.25 C-85.96944375 116.04180794 -88.52928651 116.82006073 -92.30859375 118.24609375 C-94.39758866 119.00276608 -96.3902379 119.49268291 -98.5625 119.9375 C-103.3773103 121.08388341 -107.32535753 123.58276636 -111.5625 126.0625 C-112.90791462 126.80769184 -114.26185871 127.53775201 -115.625 128.25 C-116.19347656 128.55292969 -116.76195312 128.85585938 -117.34765625 129.16796875 C-125.26960229 132.36748488 -132.39649419 132.19610076 -140.78515625 131.72070312 C-146.71997493 131.55224757 -150.18226298 132.41877189 -154.98632812 135.9753418 C-156.5625 137.0625 -156.5625 137.0625 -158.5625 137.0625 C-158.5625 137.7225 -158.5625 138.3825 -158.5625 139.0625 C-159.2225 139.0625 -159.8825 139.0625 -160.5625 139.0625 C-161.5525 141.0425 -161.5525 141.0425 -162.5625 143.0625 C-164.2125 143.0625 -165.8625 143.0625 -167.5625 143.0625 C-168 140.5 -168 140.5 -167.5625 137.0625 C-164.605081 133.05409739 -161.58862567 129.91872052 -156.5625 129.0625 C-156.5625 128.4025 -156.5625 127.7425 -156.5625 127.0625 C-149.98334287 123.28102184 -141.79442716 124.00614449 -134.40893555 124.15014648 C-124.99957812 124.31779895 -119.06754167 123.07186522 -111.47265625 117.328125 C-106.70542661 114.16946978 -101.12026073 112.33760234 -95.5625 111.125 C-89.79655531 109.8113876 -84.73806791 106.77481603 -79.5703125 103.98828125 C-70.60851605 99.28426776 -61.38600238 96.76974847 -51.375 95.45703125 C-49.03523729 95.12881454 -46.83605812 94.69100765 -44.5625 94.0625 C-44.5625 93.4025 -44.5625 92.7425 -44.5625 92.0625 C-43.9025 92.0625 -43.2425 92.0625 -42.5625 92.0625 C-42.38074219 91.36125 -42.19898438 90.66 -42.01171875 89.9375 C-37.47989496 72.8327702 -37.47989496 72.8327702 -32.5625 69.0625 C-29.19374489 68.46527908 -25.98772013 68.19133776 -22.58203125 68.01757812 C-17.03320278 67.56301308 -14.52971078 65.98162338 -10.5625 62.0625 C-8.2046178 58.95438255 -8.21550671 55.74953534 -8.29296875 51.9609375 C-8.66019311 49.37440072 -9.81637113 47.9541396 -11.5625 46.0625 C-11.5625 45.4025 -11.5625 44.7425 -11.5625 44.0625 C-12.366875 43.753125 -13.17125 43.44375 -14 43.125 C-16.5625 42.0625 -16.5625 42.0625 -17.5625 41.0625 C-17.60313832 39.39632885 -17.605221 37.72861905 -17.5625 36.0625 C-11.9375 35.8125 -11.9375 35.8125 -8.5625 38.0625 C-8.5625 38.7225 -8.5625 39.3825 -8.5625 40.0625 C-7.923125 40.330625 -7.28375 40.59875 -6.625 40.875 C-4.5625 42.0625 -4.5625 42.0625 -3.5625 45.0625 C-2.9025 45.0625 -2.2425 45.0625 -1.5625 45.0625 C-1.34509693 33.07690156 -1.44365553 21.37789439 -3.125 9.49609375 C-3.49155233 6.61931252 -3.73479294 3.95379087 -3.5625 1.0625 C-2.5625 0.0625 -2.5625 0.0625 0 0 Z " fill="#BFBFBF" transform="translate(361.5625,153.9375)"/>
<path d="M0 0 C5.41117113 2.28354436 10.01174157 6.20098873 13.046875 11.25 C13.8046875 13.18359375 13.8046875 13.18359375 13.8046875 16.18359375 C15.5371875 16.30734375 15.5371875 16.30734375 17.3046875 16.43359375 C25.0184095 17.42671845 31.54597379 21.52548406 36.8046875 27.18359375 C39.44314538 30.90142076 40.29648946 33.93449848 40.8671875 38.43359375 C41.22327599 41.53965672 41.22327599 41.53965672 41.8046875 44.18359375 C42.4646875 44.51359375 43.1246875 44.84359375 43.8046875 45.18359375 C43.8046875 45.84359375 43.8046875 46.50359375 43.8046875 47.18359375 C44.4646875 47.18359375 45.1246875 47.18359375 45.8046875 47.18359375 C45.8046875 47.84359375 45.8046875 48.50359375 45.8046875 49.18359375 C46.7328125 49.55484375 46.7328125 49.55484375 47.6796875 49.93359375 C50.15537437 51.38988014 50.75593752 52.56171881 51.8046875 55.18359375 C52.4646875 55.18359375 53.1246875 55.18359375 53.8046875 55.18359375 C56.77050555 61.01158567 57.35643007 66.00552297 57.5546875 72.49609375 C57.61849609 73.85444336 57.61849609 73.85444336 57.68359375 75.24023438 C57.95137811 81.89021254 57.95137811 81.89021254 56.8046875 84.18359375 C55.4846875 84.18359375 54.1646875 84.18359375 52.8046875 84.18359375 C50.80452083 81.18334375 50.54459309 80.47434795 50.42578125 77.09375 C50.39162109 76.30935547 50.35746094 75.52496094 50.32226562 74.71679688 C50.28262695 73.49379883 50.28262695 73.49379883 50.2421875 72.24609375 C50.18195663 70.63267522 50.11827074 69.0193812 50.05078125 67.40625 C50.02685303 66.69218994 50.0029248 65.97812988 49.97827148 65.24243164 C49.80036409 63.13231478 49.37320669 61.22023858 48.8046875 59.18359375 C48.1446875 59.18359375 47.4846875 59.18359375 46.8046875 59.18359375 C46.8046875 58.52359375 46.8046875 57.86359375 46.8046875 57.18359375 C46.1446875 57.18359375 45.4846875 57.18359375 44.8046875 57.18359375 C44.8046875 56.52359375 44.8046875 55.86359375 44.8046875 55.18359375 C44.21042969 54.91417969 43.61617188 54.64476562 43.00390625 54.3671875 C40.82067878 53.19220007 39.41865291 51.92774673 37.6171875 50.24609375 C32.88708534 46.56910867 27.84907371 45.97020621 22.05981445 45.20922852 C15.86796359 44.37547855 11.06966615 42.69357952 5.8046875 39.18359375 C5.8046875 38.52359375 5.8046875 37.86359375 5.8046875 37.18359375 C5.1446875 37.18359375 4.4846875 37.18359375 3.8046875 37.18359375 C3.8046875 36.52359375 3.8046875 35.86359375 3.8046875 35.18359375 C3.1446875 35.18359375 2.4846875 35.18359375 1.8046875 35.18359375 C1.8046875 34.52359375 1.8046875 33.86359375 1.8046875 33.18359375 C1.1446875 33.18359375 0.4846875 33.18359375 -0.1953125 33.18359375 C-0.1953125 32.52359375 -0.1953125 31.86359375 -0.1953125 31.18359375 C-0.8553125 31.18359375 -1.5153125 31.18359375 -2.1953125 31.18359375 C-3.8203125 29.80859375 -3.8203125 29.80859375 -5.1953125 28.18359375 C-5.1953125 27.52359375 -5.1953125 26.86359375 -5.1953125 26.18359375 C-5.9790625 25.87421875 -6.7628125 25.56484375 -7.5703125 25.24609375 C-10.1953125 24.18359375 -10.1953125 24.18359375 -12.1953125 23.18359375 C-14.48364061 23.03447964 -16.77730957 22.9621967 -19.0703125 22.93359375 C-20.30523437 22.9078125 -21.54015625 22.88203125 -22.8125 22.85546875 C-26.42618343 23.2059877 -27.51051126 23.90576465 -30.1953125 26.18359375 C-32.9453125 25.87109375 -32.9453125 25.87109375 -35.1953125 25.18359375 C-34.91501164 21.81998338 -34.4826982 20.46526292 -32.03515625 18.06640625 C-26.15643736 14.16882372 -18.03411191 14.59406619 -11.2578125 15.87109375 C-7.28423697 16.94879782 -4.37513313 18.57451016 -1.1953125 21.18359375 C-1.1953125 21.84359375 -1.1953125 22.50359375 -1.1953125 23.18359375 C-0.5353125 23.18359375 0.1246875 23.18359375 0.8046875 23.18359375 C0.8046875 23.84359375 0.8046875 24.50359375 0.8046875 25.18359375 C1.4646875 25.18359375 2.1246875 25.18359375 2.8046875 25.18359375 C4.0347481 26.64636852 5.26210559 28.11160008 6.46875 29.59375 C13.48651553 37.94530138 24.60117746 38.69339039 34.8046875 40.18359375 C34.40714929 38.71993033 33.98587366 37.26270025 33.5546875 35.80859375 C33.32265625 34.99648437 33.090625 34.184375 32.8515625 33.34765625 C31.52977155 30.61529735 30.5887264 30.29624597 27.8046875 29.18359375 C26.87914062 28.69761719 25.95359375 28.21164063 25 27.7109375 C23.98679687 27.18628906 22.97359375 26.66164062 21.9296875 26.12109375 C20.92164063 25.59386719 19.91359375 25.06664062 18.875 24.5234375 C15.85940243 23.0408657 15.85940243 23.0408657 12.5703125 22.74609375 C9.8046875 22.18359375 9.8046875 22.18359375 8.34375 20.40625 C8.04210937 19.69339844 7.74046875 18.98054688 7.4296875 18.24609375 C7.11257813 17.53582031 6.79546875 16.82554688 6.46875 16.09375 C5.8046875 14.18359375 5.8046875 14.18359375 5.8046875 12.18359375 C5.1446875 12.18359375 4.4846875 12.18359375 3.8046875 12.18359375 C3.8046875 11.52359375 3.8046875 10.86359375 3.8046875 10.18359375 C2.6909375 9.75046875 2.6909375 9.75046875 1.5546875 9.30859375 C-1.1953125 8.18359375 -1.1953125 8.18359375 -3.1328125 7.12109375 C-8.20371392 4.81613856 -13.48279502 5.13472595 -18.92578125 5.34375 C-21.1953125 5.18359375 -21.1953125 5.18359375 -24.1953125 3.18359375 C-24.1953125 1.86359375 -24.1953125 0.54359375 -24.1953125 -0.81640625 C-17.512188 -4.1579685 -6.9157618 -1.91696846 0 0 Z " fill="#C6C6C6" transform="translate(350.1953125,108.81640625)"/>
<path d="M0 0 C2.25 -0.375 2.25 -0.375 5 0 C9.50417666 5.41023927 10.53869327 11.34751828 11.97851562 18.09960938 C13.23165907 23.4286335 14.50679145 26.52680144 19 30 C21.94966586 31.70137791 21.94966586 31.70137791 25.0625 33.0625 C30.58470262 35.57639047 34.73597407 38.16060639 37 44 C38.02921385 48.73269648 37.90540003 52.54211688 35.31640625 56.7109375 C33.88020291 58.55033187 32.42926224 60.37830116 30.96484375 62.1953125 C28.41019949 65.84190213 27.59620393 69.25680157 26.640625 73.55078125 C25.44087663 78.13762411 22.67667041 81.99181512 19 85 C18.34 85 17.68 85 17 85 C17 85.66 17 86.32 17 87 C14.35261084 88.4606285 13.10551666 89 10 89 C10.825 89.94875 11.65 90.8975 12.5 91.875 C15 94.75 15 94.75 15 97 C15.66 97 16.32 97 17 97 C19.28504188 102.87582197 20.45140786 107.68028996 20 114 C19 115 19 115 16.4375 115.0625 C15.633125 115.041875 14.82875 115.02125 14 115 C13.94392578 114.12988281 13.94392578 114.12988281 13.88671875 113.2421875 C13.45809099 108.14908122 12.5386772 104.52546806 10 100 C10 99.34 10 98.68 10 98 C9.34 98 8.68 98 8 98 C8 97.34 8 96.68 8 96 C7.2265625 95.62875 7.2265625 95.62875 6.4375 95.25 C4 94 4 94 1 91.875 C-3.90313346 89.04137092 -9.51645525 89.17074459 -15 90 C-16.69357863 90.95371337 -18.36513281 91.94881636 -20 93 C-22.8125 93.1875 -22.8125 93.1875 -25 93 C-25.375 90.25 -25.375 90.25 -25 87 C-19.90894554 82.81402188 -15.95473382 81.86046231 -9.5 81.875 C-8.3553125 81.87242187 -7.210625 81.86984375 -6.03125 81.8671875 C-3 82 -3 82 0 83 C6.03921375 83.59207978 10.03606815 82.26232202 15 79 C18.63059267 75.86002796 19.30582402 72.91408205 20.25 68.375 C21.59816734 62.16270616 24.37287615 58.26911899 28.453125 53.47265625 C30.22436633 51.13230162 30.22436633 51.13230162 29.984375 48.49609375 C27.75438198 42.84146859 24.51943314 40.43657558 19.0625 38.0625 C12.0087344 34.71174655 8.65862449 31.44201314 6 24 C5.22703871 20.73009046 4.5518798 17.44805203 3.87890625 14.15625 C2.99744899 10.99083904 1.70763486 8.77844457 0 6 C-0.1875 2.6875 -0.1875 2.6875 0 0 Z " fill="#C1C1C1" transform="translate(383,169)"/>
<path d="M0 0 C0.680625 -0.00515625 1.36125 -0.0103125 2.0625 -0.015625 C4 0.25 4 0.25 7 2.25 C6.125 6.125 6.125 6.125 5 7.25 C3.2365625 7.2190625 3.2365625 7.2190625 1.4375 7.1875 C-1.78543724 7.51613582 -2.81377741 8.05614818 -5.09765625 10.43359375 C-6.42273986 12.19271245 -7.70778087 13.98291346 -8.9453125 15.8046875 C-12.15378819 19.62313956 -15.2863091 21.07572635 -20.2265625 21.578125 C-21.34804688 21.55234375 -22.46953125 21.5265625 -23.625 21.5 C-24.84058594 21.47550781 -26.05617188 21.45101562 -27.30859375 21.42578125 C-31.74805312 21.21437842 -36.15646744 20.85531277 -40.57421875 20.37109375 C-43.14236352 20.09571375 -43.14236352 20.09571375 -46 21.25 C-46.33 21.91 -46.66 22.57 -47 23.25 C-53.35294118 27.25 -53.35294118 27.25 -57 27.25 C-57 27.91 -57 28.57 -57 29.25 C-57.66 29.25 -58.32 29.25 -59 29.25 C-59.309375 30.03375 -59.61875 30.8175 -59.9375 31.625 C-61 34.25 -61 34.25 -62 36.25 C-62.66 36.25 -63.32 36.25 -64 36.25 C-64 36.91 -64 37.57 -64 38.25 C-69.94305338 41.39714883 -75.22715216 43.45671928 -82 42.25 C-83.21042969 41.75757813 -84.42085937 41.26515625 -85.66796875 40.7578125 C-90.35423729 38.92490985 -94.76233485 38.76971426 -99.75 38.6875 C-101.41165442 38.65293554 -103.07316433 38.6102582 -104.734375 38.55859375 C-105.45850586 38.54626709 -106.18263672 38.53394043 -106.92871094 38.52124023 C-109.29044295 38.2119658 -110.93859025 37.41629338 -113 36.25 C-112.67 34.6 -112.34 32.95 -112 31.25 C-108.70835171 31.22104775 -105.41673601 31.2032177 -102.125 31.1875 C-101.18785156 31.17912109 -100.25070313 31.17074219 -99.28515625 31.16210938 C-97.94130859 31.15727539 -97.94130859 31.15727539 -96.5703125 31.15234375 C-95.32918701 31.14448853 -95.32918701 31.14448853 -94.06298828 31.13647461 C-92 31.25 -92 31.25 -90 32.25 C-90.01160156 31.39535156 -90.02320313 30.54070312 -90.03515625 29.66015625 C-90.04417969 28.55542969 -90.05320313 27.45070313 -90.0625 26.3125 C-90.07410156 25.21035156 -90.08570313 24.10820312 -90.09765625 22.97265625 C-90 20.25 -90 20.25 -89 19.25 C-87.33382885 19.20936168 -85.66611905 19.207279 -84 19.25 C-83.90912109 20.35408203 -83.90912109 20.35408203 -83.81640625 21.48046875 C-83.69072266 22.94419922 -83.69072266 22.94419922 -83.5625 24.4375 C-83.44068359 25.88189453 -83.44068359 25.88189453 -83.31640625 27.35546875 C-83.02333849 30.03649602 -82.57296246 32.6162986 -82 35.25 C-80.41632253 35.10795259 -78.83306682 34.96119847 -77.25 34.8125 C-76.36828125 34.73128906 -75.4865625 34.65007812 -74.578125 34.56640625 C-71.22649069 34.16817404 -71.22649069 34.16817404 -68 33.25 C-67.31974363 31.25458132 -66.65509503 29.25382009 -66 27.25 C-63.3004085 24.05311533 -61.28070699 21.72563411 -57 21.25 C-57 20.59 -57 19.93 -57 19.25 C-55.02 18.59 -53.04 17.93 -51 17.25 C-52.3089572 14.12802522 -52.3089572 14.12802522 -55 12.25 C-54.125 8.375 -54.125 8.375 -53 7.25 C-50.625 6.9375 -50.625 6.9375 -48 7.25 C-46.02389614 9.29424538 -45 10.3676825 -45 13.25 C-43.53240234 13.23259766 -43.53240234 13.23259766 -42.03515625 13.21484375 C-30.0129308 13.1320949 -30.0129308 13.1320949 -24.875 13.8125 C-21.49423873 14.19419885 -19.2295815 14.18762044 -16 13.25 C-16 12.59 -16 11.93 -16 11.25 C-14.33784732 9.91104368 -12.67036393 8.57869858 -11 7.25 C-9.65705519 5.59106818 -8.32255312 3.92523395 -7 2.25 C-4.00261059 0.25174039 -3.36652492 -0.02550398 0 0 Z " fill="#C3C3C3" transform="translate(301,228.75)"/>
<path d="M0 0 C2.375 -0.125 2.375 -0.125 5 0 C7.65499376 2.65499376 7.32897553 4.04963297 7.375 7.75 C7.25500958 13.03589379 6.8699266 16.1300734 3 20 C-4.49149585 26.40627916 -13.65577418 25.88199026 -23 26 C-23 26.66 -23 27.32 -23 28 C-23.66 28 -24.32 28 -25 28 C-25.27585937 28.71542969 -25.55171875 29.43085938 -25.8359375 30.16796875 C-26.98248522 32.95738855 -28.26227115 35.62290358 -29.625 38.3125 C-30.07101562 39.19550781 -30.51703125 40.07851563 -30.9765625 40.98828125 C-31.31429687 41.65214844 -31.65203125 42.31601562 -32 43 C-32.66 43 -33.32 43 -34 43 C-34.2475 43.598125 -34.495 44.19625 -34.75 44.8125 C-36.18072525 47.31626919 -37.5691582 48.48072388 -40 50 C-40.66 50 -41.32 50 -42 50 C-42 50.66 -42 51.32 -42 52 C-42.66 52.66 -43.32 53.32 -44 54 C-42.2984375 54.03867187 -42.2984375 54.03867187 -40.5625 54.078125 C-25.70071538 54.58037922 -25.70071538 54.58037922 -19 59 C-19 59.66 -19 60.32 -19 61 C-18.34 61 -17.68 61 -17 61 C-14.1647887 66.5522888 -13.62047705 70.80112515 -14 77 C-15.65614657 77.38218767 -17.32457024 77.71395102 -19 78 C-20 77 -20 77 -20.3125 73.25 C-20.79289751 69.1259721 -21.91780007 66.9109666 -25 64 C-29.20810153 61.83846151 -33.29634531 61.64651742 -37.9375 61.5 C-42.96691251 61.34033611 -47.23517099 60.68946846 -52 59 C-54.5808609 58.66747327 -57.1341242 58.50327962 -59.73046875 58.34375 C-62 58 -62 58 -65 56 C-64.67 54.35 -64.34 52.7 -64 51 C-63.31035156 50.99742187 -62.62070312 50.99484375 -61.91015625 50.9921875 C-52.0629785 50.58695385 -46.5259045 46.86812968 -39.8125 39.875 C-35.47972454 34.7954937 -32.70888653 29.06421189 -30 23 C-29.34 23 -28.68 23 -28 23 C-28 22.34 -28 21.68 -28 21 C-22.85244907 17.86706565 -18.94749378 17.62006165 -13.125 17.8125 C-11.949375 17.83280273 -11.949375 17.83280273 -10.75 17.85351562 C-8.83303218 17.88858211 -6.91642249 17.94237928 -5 18 C-5 17.34 -5 16.68 -5 16 C-4.34 16 -3.68 16 -3 16 C-3 15.34 -3 14.68 -3 14 C-2.34 14 -1.68 14 -1 14 C-0.22827355 9.62688345 -0.01360777 6.31546601 -1 2 C-0.67 1.34 -0.34 0.68 0 0 Z " fill="#C3C3C3" transform="translate(376,217)"/>
<path d="M0 0 C-0.875 4.875 -0.875 4.875 -2 6 C-3.59910799 6.20971908 -5.20509246 6.3682067 -6.8125 6.5 C-9.98341183 6.76229108 -12.93307212 7.14211808 -16 8 C-16 8.66 -16 9.32 -16 10 C-16.66 10 -17.32 10 -18 10 C-18.2475 10.825 -18.495 11.65 -18.75 12.5 C-19.67837722 15.0994562 -20.62170736 17.32236229 -21.875 19.75 C-27.40992461 29.88748997 -27.40992461 29.88748997 -27 41 C-25.2804327 43.29638418 -24.35990551 43.92575178 -21.51953125 44.51171875 C-20.17955078 44.59873047 -20.17955078 44.59873047 -18.8125 44.6875 C-17.91144531 44.75324219 -17.01039063 44.81898438 -16.08203125 44.88671875 C-15.39496094 44.92410156 -14.70789063 44.96148437 -14 45 C-13 48 -13 48 -14 51 C-25.420154 51.94007365 -25.420154 51.94007365 -29.36328125 49.59375 C-30.64101386 48.46709199 -31.91461942 47.33573229 -33.18359375 46.19921875 C-35.19019864 44.57523873 -35.19019864 44.57523873 -38.875 45.6875 C-39.52726562 45.9246875 -40.17953125 46.161875 -40.8515625 46.40625 C-45.40688611 47.6651758 -50.53871722 46.63516975 -55.05859375 45.46875 C-61.0157321 44.03040674 -66.33799724 45.11266575 -72 47 C-73.34842889 52.85797613 -73.34842889 52.85797613 -71.0625 58.1875 C-70.381875 59.115625 -69.70125 60.04375 -69 61 C-68.75 63.875 -68.75 63.875 -69 66 C-71.6875 66.5 -71.6875 66.5 -75 66 C-78.27417043 62.97964124 -79.79461981 59.53929275 -80.37890625 55.16015625 C-80.47060506 50.60578192 -80.49532153 46.93460255 -78 43 C-71.01269237 37.60071683 -64.63548438 36.28821046 -56 37 C-54.63647216 37.31621703 -53.28059389 37.66841856 -51.9375 38.0625 C-46.19066545 39.71777486 -40.67470691 38.44386472 -35 37 C-34.91234375 35.70449219 -34.8246875 34.40898437 -34.734375 33.07421875 C-34.14883248 27.84425947 -32.45030638 23.55691063 -30.25 18.8125 C-29.91484375 18.04486328 -29.5796875 17.27722656 -29.234375 16.48632812 C-27.05412267 11.66747495 -24.6794474 7.81955881 -21 4 C-20.34 4 -19.68 4 -19 4 C-19 3.34 -19 2.68 -19 2 C-6.0625 -3.03125 -6.0625 -3.03125 0 0 Z " fill="#C5C5C5" transform="translate(205,121)"/>
<path d="M0 0 C3.32960807 1.1920819 6.46277485 2.74194979 9.57128906 4.42163086 C12.86140757 6.16866402 15.65394193 7.22079572 19.328125 7.59765625 C23 8 23 8 25 10 C24.625 12.625 24.625 12.625 24 15 C16.7669136 15.46061446 12.22899788 14.23833482 5.8125 11 C-1.22129938 7.32750948 -1.22129938 7.32750948 -9 7 C-11.70848923 9.37505218 -11.70848923 9.37505218 -14 12 C-14.99 12.33 -15.98 12.66 -17 13 C-17 13.66 -17 14.32 -17 15 C-20.04273179 16.75956285 -22.2286961 17.24821951 -25.73046875 17.23046875 C-27.05788086 17.22756836 -27.05788086 17.22756836 -28.41210938 17.22460938 C-29.32798828 17.21236328 -30.24386719 17.20011719 -31.1875 17.1875 C-32.11498047 17.18685547 -33.04246094 17.18621094 -33.99804688 17.18554688 C-40.85962813 17.14037187 -40.85962813 17.14037187 -42 16 C-50.35777774 14.90985508 -57.86682598 14.72271128 -66 17 C-66 17.66 -66 18.32 -66 19 C-66.66 19 -67.32 19 -68 19 C-68.06058594 19.78246094 -68.12117187 20.56492187 -68.18359375 21.37109375 C-68.26738281 22.38300781 -68.35117188 23.39492187 -68.4375 24.4375 C-68.51871094 25.44683594 -68.59992188 26.45617187 -68.68359375 27.49609375 C-69 30 -69 30 -70 31 C-72.5 31.125 -72.5 31.125 -75 31 C-76.64745596 29.35254404 -76.1709616 27.44664549 -76.1875 25.1875 C-76.20167969 24.31480469 -76.21585938 23.44210938 -76.23046875 22.54296875 C-75.99010406 19.89080915 -75.34187309 18.27535001 -74 16 C-73.34 16 -72.68 16 -72 16 C-72 15.34 -72 14.68 -72 14 C-71.34 14 -70.68 14 -70 14 C-70 13.34 -70 12.68 -70 12 C-60.99795568 6.76244694 -50.76898436 6.52429725 -40.703125 8.71875 C-38.8931831 9.25873267 -37.08785117 9.81457787 -35.2890625 10.390625 C-29.80203857 11.85133444 -24.26000369 9.61020521 -19 8 C-19 7.34 -19 6.68 -19 6 C-18.34 6 -17.68 6 -17 6 C-16.731875 5.38125 -16.46375 4.7625 -16.1875 4.125 C-12.83568681 -1.8729815 -5.92316314 -0.89109534 0 0 Z " fill="#C4C4C4" transform="translate(236,92)"/>
<path d="M0 0 C3.52778597 0.23518573 5.40809819 0.36863807 7.875 3 C9.69313705 7.84836547 10.01429415 12.41376945 8.09765625 17.30078125 C7.36869057 18.80281373 6.63823269 20.30412298 5.90625 21.8046875 C4.38202856 25.49698254 4.47874272 28.02541321 5 32 C6.88413915 35.32808239 6.88413915 35.32808239 9 38 C9 38.66 9 39.32 9 40 C9.66 40 10.32 40 11 40 C11 40.66 11 41.32 11 42 C11.66 42 12.32 42 13 42 C13 42.66 13 43.32 13 44 C13.969375 44.309375 14.93875 44.61875 15.9375 44.9375 C19 46 19 46 20 47 C21.40348735 47.09860131 22.81180477 47.13078937 24.21875 47.1328125 C25.06824219 47.13410156 25.91773438 47.13539063 26.79296875 47.13671875 C27.68628906 47.13285156 28.57960937 47.12898438 29.5 47.125 C30.83998047 47.13080078 30.83998047 47.13080078 32.20703125 47.13671875 C33.48126953 47.13478516 33.48126953 47.13478516 34.78125 47.1328125 C35.56564453 47.13168457 36.35003906 47.13055664 37.15820312 47.12939453 C39.01752988 47.20107442 39.01752988 47.20107442 40 46 C42.4375 45.8125 42.4375 45.8125 45 46 C47 48 47 48 47 51 C45.50390625 52.31640625 45.50390625 52.31640625 43.5625 53.5625 C40.76740279 55.30536929 40.76740279 55.30536929 39 58 C38.34 58 37.68 58 37 58 C36.67 59.32 36.34 60.64 36 62 C33.525 62.495 33.525 62.495 31 63 C29.875 61.25 29.875 61.25 29 59 C29.875 56.75 29.875 56.75 31 55 C29.2984375 55.061875 29.2984375 55.061875 27.5625 55.125 C22.85616438 55.14183841 18.53683996 54.17621777 14 53 C14 52.34 14 51.68 14 51 C13.401875 50.896875 12.80375 50.79375 12.1875 50.6875 C9.68741714 49.90175967 8.62464918 49.03081147 7 47 C7 46.34 7 45.68 7 45 C6.34 45 5.68 45 5 45 C3.52734375 43.57421875 3.52734375 43.57421875 1.9375 41.6875 C1.41027344 41.07261719 0.88304687 40.45773437 0.33984375 39.82421875 C-3.49493324 34.60310839 -2.53135073 27.13778221 -2 21 C-1.13617889 18.68800822 -0.1064939 16.77886979 1.16796875 14.67578125 C2.53921693 11.91397153 1.92148935 9.83028872 1 7 C0.34 6.01 -0.32 5.02 -1 4 C-0.625 1.8125 -0.625 1.8125 0 0 Z " fill="#C2C2C2" transform="translate(172,265)"/>
<path d="M0 0 C5.43751697 -0.32390785 8.83869951 0.49875419 13.6875 2.9375 C27.70325974 9.90420549 39.31972354 6.46292516 53.8046875 2.41015625 C66.25608497 -1.04727984 77.59155159 -0.71291557 90 3 C91 4 91 4 91.0625 6.5625 C91.041875 7.366875 91.02125 8.17125 91 9 C87.17454308 10.2156452 84.61632965 9.42366221 80.75390625 8.48828125 C69.09154933 6.42048747 58.29187655 8.69568241 47.1875 12.0625 C33.52659165 16.02713318 22.97866384 15.19146554 10 10 C10 9.34 10 8.68 10 8 C6.7 7.34 3.4 6.68 0 6 C0 4.02 0 2.04 0 0 Z " fill="#B9B9B9" transform="translate(258,291)"/>
<path d="M0 0 C1.67542976 0.28604898 3.34385343 0.61781233 5 1 C6.87964588 8.1661499 8.96564989 16.2464164 6.01953125 23.37109375 C3.88097685 26.95728498 1.64828498 29.83805334 -2 32 C-1.68417969 32.71414062 -1.36835938 33.42828125 -1.04296875 34.1640625 C1.30434615 40.54664907 1.81621097 48.46164051 0 55 C-2.00312426 58.49262692 -4.13619658 62.13619658 -7 65 C-8.66617115 65.04063832 -10.33388095 65.042721 -12 65 C-12.75 62.8125 -12.75 62.8125 -13 60 C-11.1875 57.4375 -11.1875 57.4375 -9 55 C-6.12992642 50.27044212 -6.25485242 45.36795634 -7 40 C-8.1017752 37.39720005 -9.36613702 35.14312842 -10.90625 32.77734375 C-12 31 -12 31 -12 29 C-12.66 29 -13.32 29 -14 29 C-16.09350689 25.5980513 -16.17942163 22.94727588 -16 19 C-12.25 17.875 -12.25 17.875 -10 19 C-9.27306096 20.97888961 -8.60183749 22.97954558 -8 25 C-5.08482708 23.92598892 -3.22189824 23.22189824 -1 21 C-0.73922461 18.88323538 -0.73922461 18.88323538 -0.83984375 16.46484375 C-0.85080078 15.57345703 -0.86175781 14.68207031 -0.87304688 13.76367188 C-0.89431641 12.83103516 -0.91558594 11.89839844 -0.9375 10.9375 C-0.9717838 9.09252339 -1.00195831 7.24746425 -1.02734375 5.40234375 C-1.04531006 4.58241943 -1.06327637 3.76249512 -1.08178711 2.91772461 C-1 1 -1 1 0 0 Z " fill="#BFBFBF" transform="translate(428,223)"/>
<path d="M0 0 C0.495 2.475 0.495 2.475 1 5 C0.34 5 -0.32 5 -1 5 C-1 5.66 -1 6.32 -1 7 C-4.88470774 8.94235387 -7.69219878 10.20209485 -12.0625 10 C-17.37898805 10 -20.28475809 11.38565468 -24.125 15 C-29.43214636 23.49143417 -30.68599629 32.12458328 -31 42 C-32.65 42 -34.3 42 -36 42 C-39.59976387 34.80047226 -36.22968601 24.18350723 -34 17 C-32.83428858 14.45131195 -31.57207236 12.33100384 -30 10 C-29.34 10 -28.68 10 -28 10 C-28 9.34 -28 8.68 -28 8 C-27.34 8 -26.68 8 -26 8 C-26 7.34 -26 6.68 -26 6 C-22.80325344 4.13147912 -20.30174758 3.73243371 -16.625 3.5625 C-10.56721758 3.12749967 -6.00092416 -0.52949331 0 0 Z " fill="#C8C8C8" transform="translate(339,141)"/>
<path d="M0 0 C4.56500829 0.37050668 8.06570812 1.67906685 12.2734375 3.37890625 C18.71802521 5.82041619 23.04103454 6.97545535 29.8984375 5.31640625 C36.7297628 4.2320689 36.7297628 4.2320689 38.8984375 5.31640625 C38.6484375 7.69140625 38.6484375 7.69140625 37.8984375 10.31640625 C32.11502043 14.31602239 22.25418333 13.84636458 15.5234375 12.87890625 C14.6571875 12.69328125 13.7909375 12.50765625 12.8984375 12.31640625 C12.58390625 12.88230469 12.269375 13.44820313 11.9453125 14.03125 C11.51734375 14.76472656 11.089375 15.49820312 10.6484375 16.25390625 C10.23078125 16.98480469 9.813125 17.71570313 9.3828125 18.46875 C7.8984375 20.31640625 7.8984375 20.31640625 5.8515625 21.1328125 C3.8984375 21.31640625 3.8984375 21.31640625 1.8984375 20.31640625 C2.2284375 18.00640625 2.5584375 15.69640625 2.8984375 13.31640625 C3.5584375 13.31640625 4.2184375 13.31640625 4.8984375 13.31640625 C5.2284375 11.99640625 5.5584375 10.67640625 5.8984375 9.31640625 C5.27195313 9.23003906 4.64546875 9.14367187 4 9.0546875 C1.53060875 8.63013916 -0.74513092 8.17368209 -3.1015625 7.31640625 C-4.6640625 4.69140625 -4.6640625 4.69140625 -5.1015625 2.31640625 C-3.1015625 0.31640625 -3.1015625 0.31640625 0 0 Z " fill="#C0C0C0" transform="translate(228.1015625,297.68359375)"/>
<path d="M0 0 C5.69788171 2.31778239 9.02311887 4.29904627 12.04296875 9.72265625 C13.70910852 13.68738885 14.31997452 17.77559928 15 22 C15.49298203 24.5017686 16.09661632 26.59097686 17 29 C18.82355336 30.03733862 18.82355336 30.03733862 21 31 C22.61307246 32.06024795 24.19604986 33.16735047 25.75 34.3125 C26.94882813 35.17294922 26.94882813 35.17294922 28.171875 36.05078125 C30 38 30 38 30.265625 40.73046875 C30.17796875 41.47941406 30.0903125 42.22835937 30 43 C27.46100862 43.9435441 26.39090725 44.16906025 23.859375 43.07421875 C23.16328125 42.61660156 22.4671875 42.15898437 21.75 41.6875 C21.04359375 41.23761719 20.3371875 40.78773438 19.609375 40.32421875 C19.07828125 39.88722656 18.5471875 39.45023438 18 39 C18 38.34 18 37.68 18 37 C17.443125 36.79375 16.88625 36.5875 16.3125 36.375 C12.43853966 34.07156412 9.73553472 31.05691397 8.22143555 26.82275391 C7.62577313 24.4326429 7.13372042 22.04733941 6.6875 19.625 C6.43516602 18.37783203 6.43516602 18.37783203 6.17773438 17.10546875 C5.76900399 15.07349483 5.38222795 13.03712551 5 11 C4.34 11 3.68 11 3 11 C3 10.34 3 9.68 3 9 C2.34 9 1.68 9 1 9 C1 8.34 1 7.68 1 7 C0.01 7 -0.98 7 -2 7 C-2.33 5.35 -2.66 3.7 -3 2 C-2.01 1.34 -1.02 0.68 0 0 Z " fill="#BBBBBB" transform="translate(155,178)"/>
<path d="M0 0 C0.75 1.75 0.75 1.75 1 4 C-0.8125 6.25 -0.8125 6.25 -3 8 C-3.66 8 -4.32 8 -5 8 C-5 8.66 -5 9.32 -5 10 C-5.66 10 -6.32 10 -7 10 C-7 10.66 -7 11.32 -7 12 C-7.66 12 -8.32 12 -9 12 C-9 12.66 -9 13.32 -9 14 C-9.66 14 -10.32 14 -11 14 C-11.103125 14.53625 -11.20625 15.0725 -11.3125 15.625 C-12.18092697 18.62502044 -13.55620296 21.2379535 -15 24 C-15.66 24 -16.32 24 -17 24 C-17 24.66 -17 25.32 -17 26 C-18.93298465 27.3994459 -20.92274015 28.72108593 -22.9375 30 C-27.13499505 32.3760117 -27.13499505 32.3760117 -30 36 C-31.98 36 -33.96 36 -36 36 C-36 34.02 -36 32.04 -36 30 C-35.34 30 -34.68 30 -34 30 C-33.77183594 29.40316406 -33.54367188 28.80632812 -33.30859375 28.19140625 C-31.6389059 25.39530212 -29.89943231 24.4996874 -27.0625 22.9375 C-21.45551931 19.99661629 -21.45551931 19.99661629 -18.3125 14.8125 C-18.209375 14.214375 -18.10625 13.61625 -18 13 C-17.34 13 -16.68 13 -16 13 C-15.90460938 12.41476563 -15.80921875 11.82953125 -15.7109375 11.2265625 C-14.84746063 8.5222668 -13.66474713 7.32868185 -11.625 5.375 C-11.01914063 4.78460938 -10.41328125 4.19421875 -9.7890625 3.5859375 C-6.39645625 0.57851799 -4.46517301 -0.2413607 0 0 Z " fill="#C5C5C5" transform="translate(116,136)"/>
<path d="M0 0 C1.32 0.33 2.64 0.66 4 1 C4.92588255 3.67477182 4.98021924 5.10329952 4.4375 7.9375 C3.94539533 11.38223269 4.35684785 12.97314077 6 16 C8.23647631 17.11823815 9.64891529 17.19396061 12.1328125 17.31640625 C13.34130859 17.37924805 13.34130859 17.37924805 14.57421875 17.44335938 C15.41597656 17.48267578 16.25773437 17.52199219 17.125 17.5625 C17.97449219 17.60568359 18.82398438 17.64886719 19.69921875 17.69335938 C21.79928223 17.79954236 23.89961948 17.90028497 26 18 C26.33 19.65 26.66 21.3 27 23 C20.52476814 26.06657207 12.41958347 26.20979105 5.53125 24.32421875 C3.625 23.5 3.625 23.5 1 22 C1 21.34 1 20.68 1 20 C0.34 20 -0.32 20 -1 20 C-3.04242247 16.61494922 -3.29778231 13.92471691 -3.3125 10 C-3.32925781 8.96875 -3.34601563 7.9375 -3.36328125 6.875 C-2.96081368 3.68988032 -2.13430263 2.34266462 0 0 Z " fill="#BEBEBE" transform="translate(385,279)"/>
<path d="M0 0 C-0.875 4.875 -0.875 4.875 -2 6 C-3.59910799 6.20971908 -5.20509246 6.3682067 -6.8125 6.5 C-9.98341183 6.76229108 -12.93307212 7.14211808 -16 8 C-16 8.66 -16 9.32 -16 10 C-16.66 10 -17.32 10 -18 10 C-18.2475 10.886875 -18.495 11.77375 -18.75 12.6875 C-20.03934768 16.10427135 -21.59980129 18.2797748 -24 21 C-24.66 20.34 -25.32 19.68 -26 19 C-27.32 19.99 -28.64 20.98 -30 22 C-28.3705883 15.02497447 -26.1629377 9.14855626 -21 4 C-20.34 4 -19.68 4 -19 4 C-19 3.34 -19 2.68 -19 2 C-6.0625 -3.03125 -6.0625 -3.03125 0 0 Z " fill="#C1C1C1" transform="translate(205,121)"/>
<path d="M0 0 C1.30195313 0.08378906 2.60390625 0.16757812 3.9453125 0.25390625 C5.67185396 0.3571234 7.3984177 0.45996835 9.125 0.5625 C10.40890625 0.64661133 10.40890625 0.64661133 11.71875 0.73242188 C16.34652076 0.99940865 20.42336647 0.89300166 25 0 C27.875 0.4375 27.875 0.4375 30 1 C26.62301212 3.04173535 24.05453777 3.23525039 20.140625 3.1953125 C19.02558594 3.18886719 17.91054688 3.18242187 16.76171875 3.17578125 C15.60285156 3.15902344 14.44398438 3.14226562 13.25 3.125 C12.07566406 3.11597656 10.90132813 3.10695313 9.69140625 3.09765625 C6.79406464 3.07410063 3.89713559 3.04120652 1 3 C0.67 2.01 0.34 1.02 0 0 Z " fill="#555555" transform="translate(316,331)"/>
<path d="M0 0 C2.33944736 0.28730055 4.6739143 0.61936779 7 1 C7.38218767 2.65614657 7.71395102 4.32457024 8 6 C7.67 6.33 7.34 6.66 7 7 C4.66055264 6.71269945 2.3260857 6.38063221 0 6 C-0.38218767 4.34385343 -0.71395102 2.67542976 -1 1 C-0.67 0.67 -0.34 0.34 0 0 Z " fill="#929292" transform="translate(156,280)"/>
<path d="M0 0 C0.33 1.32 0.66 2.64 1 4 C0.34 3.34 -0.32 2.68 -1 2 C-4.61991736 2.29168756 -6.32363813 3.99615571 -8.75 6.5625 C-9.36359375 7.20316406 -9.9771875 7.84382812 -10.609375 8.50390625 C-11.06828125 8.99761719 -11.5271875 9.49132812 -12 10 C-12.33 9.01 -12.66 8.02 -13 7 C-11.78521149 5.81836949 -10.55247592 4.65517165 -9.3125 3.5 C-8.28576172 2.52546875 -8.28576172 2.52546875 -7.23828125 1.53125 C-4.59343628 -0.27813784 -3.13837611 -0.3077917 0 0 Z " fill="#848484" transform="translate(116,136)"/>
<path d="M0 0 C1.32 0.33 2.64 0.66 4 1 C5.03115279 4.26913624 4.9638984 6.86041348 4.5625 10.25 C4.46066406 11.14203125 4.35882813 12.0340625 4.25390625 12.953125 C4.17011719 13.62859375 4.08632813 14.3040625 4 15 C3.34 14.67 2.68 14.34 2 14 C2 10.37 2 6.74 2 3 C0.68 3.33 -0.64 3.66 -2 4 C-1.34 2.68 -0.68 1.36 0 0 Z " fill="#424242" transform="translate(385,279)"/>
<path d="M0 0 C2.4138176 0.22117559 4.83114597 0.40572242 7.25 0.5625 C8.51328125 0.64628906 9.7765625 0.73007812 11.078125 0.81640625 C12.04234375 0.87699219 13.0065625 0.93757813 14 1 C14 1.33 14 1.66 14 2 C11.04142591 2.05379226 8.08382279 2.09357093 5.125 2.125 C3.86236328 2.15013672 3.86236328 2.15013672 2.57421875 2.17578125 C1.76855469 2.18222656 0.96289062 2.18867188 0.1328125 2.1953125 C-0.61081543 2.20578613 -1.35444336 2.21625977 -2.12060547 2.22705078 C-4 2 -4 2 -6 0 C-3.41632296 -1.29183852 -2.76931129 -0.7109138 0 0 Z " fill="#2F2F2F" transform="translate(370,340)"/>
<path d="M0 0 C1.18851562 0.00902344 2.37703125 0.01804687 3.6015625 0.02734375 C4.51679688 0.03894531 5.43203125 0.05054687 6.375 0.0625 C6.375 0.3925 6.375 0.7225 6.375 1.0625 C2.745 1.3925 -0.885 1.7225 -4.625 2.0625 C-4.955 3.3825 -5.285 4.7025 -5.625 6.0625 C-6.615 5.7325 -7.605 5.4025 -8.625 5.0625 C-8.625 3.7425 -8.625 2.4225 -8.625 1.0625 C-5.74084117 -0.37957941 -3.20778472 -0.03144887 0 0 Z " fill="#727272" transform="translate(334.625,106.9375)"/>
<path d="M0 0 C0.66 0.33 1.32 0.66 2 1 C2 1.66 2 2.32 2 3 C-0.8125 5.6875 -0.8125 5.6875 -4 8 C-4.99 7.67 -5.98 7.34 -7 7 C-5.37660195 5.29115995 -3.70680947 3.62553283 -2 2 C-1.34 2 -0.68 2 0 2 C0 1.34 0 0.68 0 0 Z " fill="#898989" transform="translate(204,170)"/>
<path d="M0 0 C0.66 0.33 1.32 0.66 2 1 C-0.97 3.97 -3.94 6.94 -7 10 C-7 6.04435836 -5.59478606 4.89133304 -3 2 C-2.01 1.34 -1.02 0.68 0 0 Z " fill="#888888" transform="translate(313,96)"/>
<path d="M0 0 C0.66 0.33 1.32 0.66 2 1 C0.88121617 2.17262904 -0.24523051 3.33795138 -1.375 4.5 C-2.00148437 5.1496875 -2.62796875 5.799375 -3.2734375 6.46875 C-5 8 -5 8 -7 8 C-6.875 6.25 -6.875 6.25 -6 4 C-2.9375 1.75 -2.9375 1.75 0 0 Z " fill="#888888" transform="translate(133,160)"/>
<path d="M0 0 C-1.44077046 3.36179774 -3.24750021 5.59156268 -6 8 C-6.66 8 -7.32 8 -8 8 C-6.48291727 4.46014029 -4.24676932 0 0 0 Z " fill="#8C8C8C" transform="translate(268,133)"/>
<path d="M0 0 C0.99 0.33 1.98 0.66 3 1 C0.69 3.31 -1.62 5.62 -4 8 C-4 4.09161134 -2.49432124 2.88405893 0 0 Z " fill="#8D8D8D" transform="translate(184,125)"/>
<path d="M0 0 C-1.44253657 3.36591866 -3.33264727 5.51047079 -6 8 C-5.62403791 5.21788056 -5.32681541 3.4120716 -3.5625 1.1875 C-2 0 -2 0 0 0 Z " fill="#999999" transform="translate(86,182)"/>
<path d="M0 0 C1.32 0.33 2.64 0.66 4 1 C4.33 2.32 4.66 3.64 5 5 C4.401875 4.649375 3.80375 4.29875 3.1875 3.9375 C0.89186786 2.66695302 0.89186786 2.66695302 -2 4 C-1.34 2.68 -0.68 1.36 0 0 Z " fill="#666666" transform="translate(106,172)"/>
</svg>
