<?xml version="1.0" encoding="UTF-8"?>
<svg version="1.1" xmlns="http://www.w3.org/2000/svg" width="512" height="512">
<path d="M0 0 C4.03295336 1.78458186 7.44792892 4.36262002 11 6.9375 C11.61617188 7.38029297 12.23234375 7.82308594 12.8671875 8.27929688 C15.93544078 10.48830755 18.98614656 12.71700602 22 15 C21.37771042 19.03515899 19.28220695 21.73824369 17 25.0625 C0.00081878 50.77084136 -5.6325865 78.80943891 -5.375 109.25 C-5.37234131 110.17743011 -5.36968262 111.10486023 -5.36694336 112.06039429 C-5.31709355 127.18869235 -4.54751686 142.22400638 -3.5 157.3125 C0.49342175 214.84323854 -0.62276196 269.24158593 -40.22265625 314.87109375 C-48.30967445 324.0468027 -57.17198574 331.77505321 -67 339 C-67.58910156 339.43344727 -68.17820312 339.86689453 -68.78515625 340.31347656 C-112.65458115 372.10675758 -166.86671429 372.62213816 -218.81054688 369.73950195 C-230.60400435 369.08579345 -242.36149607 368.81371735 -254.17333984 368.81469727 C-257.1300264 368.81249626 -260.08634681 368.79419617 -263.04296875 368.77539062 C-276.50641044 368.73606639 -289.77540545 369.28391966 -303 372 C-302.28367905 372.69411484 -301.56735809 373.38822968 -300.82933044 374.1033783 C-294.07760806 380.65226772 -287.35253778 387.227495 -280.65255642 393.82932186 C-277.20720416 397.22251402 -273.75319122 400.60579578 -270.27758789 403.96801758 C-266.92284328 407.21399877 -263.59322723 410.48390771 -260.27949715 413.77173042 C-259.01190652 415.02086247 -257.73555383 416.26116766 -256.45043755 417.49226189 C-254.64915082 419.22078821 -252.88180261 420.97831182 -251.11889648 422.74584961 C-250.58230911 423.24648422 -250.04572174 423.74711884 -249.49287415 424.26292419 C-247.39645531 426.41960397 -246.0448386 428.18521868 -245.87686348 431.23756599 C-246.11230563 433.54875967 -246.48629192 435.73527513 -247 438 C-247.16757529 438.76961028 -247.33515059 439.53922056 -247.50780392 440.33215237 C-247.9825205 442.42233872 -248.51302189 444.49079278 -249.0625 446.5625 C-249.24876953 447.28501953 -249.43503906 448.00753906 -249.62695312 448.75195312 C-250.07914065 450.50273047 -250.53876175 452.25158525 -251 454 C-253.9049176 452.68798194 -255.94766297 451.29260924 -258.17404175 449.0193634 C-258.77668854 448.40934982 -259.37933533 447.79933624 -260.00024414 447.1708374 C-260.64968994 446.50320374 -261.29913574 445.83557007 -261.96826172 445.14770508 C-262.66146515 444.44354965 -263.35466858 443.73939423 -264.06887817 443.01390076 C-265.57252579 441.48591629 -267.07402889 439.95581918 -268.5736351 438.42386818 C-270.94669785 436.00217229 -273.32800973 433.58889617 -275.71218872 431.17814636 C-282.4899503 424.32399454 -289.26096767 417.46341099 -296.00537109 410.57641602 C-300.13170478 406.36405722 -304.27480248 402.16884108 -308.42938614 397.9843502 C-310.01069134 396.38505863 -311.58553174 394.77934856 -313.15377426 393.16724586 C-315.3443819 390.91660762 -317.55563452 388.6883971 -319.77294922 386.46411133 C-320.74104523 385.45355179 -320.74104523 385.45355179 -321.72869873 384.4225769 C-325.31421453 380.74231469 -325.31421453 380.74231469 -330.22976685 379.99369812 C-333.76022063 381.27615417 -337.0358481 382.86923502 -340.3125 384.6875 C-340.96895508 385.04255615 -341.62541016 385.3976123 -342.30175781 385.76342773 C-346.83451793 388.25019679 -351.11776067 390.971585 -355.265625 394.06640625 C-355.83796875 394.37449219 -356.4103125 394.68257813 -357 395 C-360.30588938 393.89803687 -360.83339104 393.2674616 -362.84765625 390.578125 C-363.37037109 389.88203125 -363.89308594 389.1859375 -364.43164062 388.46875 C-365.23891602 387.37046875 -365.23891602 387.37046875 -366.0625 386.25 C-366.60455078 385.53328125 -367.14660156 384.8165625 -367.70507812 384.078125 C-370.35230025 380.51795483 -372.64351431 377.2800915 -374 373 C-346.75498728 349.46333623 -307.94017014 339.87928767 -272.640625 339.83203125 C-271.67403458 339.82802307 -270.70744415 339.82401489 -269.71156311 339.81988525 C-266.55767735 339.81054166 -263.4038979 339.81062716 -260.25 339.8125 C-259.15908051 339.81144257 -258.06816101 339.81038513 -256.94418335 339.80929565 C-239.71767291 339.80444739 -222.56399235 340.35486205 -205.36114502 341.20904541 C-173.93808821 344.37309673 -173.93808821 344.37309673 -144 339 C-144.62862442 338.39802292 -145.25724884 337.79604584 -145.90492249 337.17582703 C-151.83650484 331.48512859 -157.73846196 325.76564818 -163.60938358 320.01236248 C-166.62851347 317.05574707 -169.6577116 314.11126957 -172.71313477 311.19213867 C-175.66398363 308.37210536 -178.58413624 305.5233602 -181.4857769 302.65275002 C-182.59533182 301.56529375 -183.715365 300.48841918 -184.84593391 299.42282677 C-193.6799095 291.07672668 -193.6799095 291.07672668 -194.46861267 285.95967102 C-194.2362587 283.16176072 -193.7543852 280.69880382 -193 278 C-192.74049007 276.54962173 -192.48858103 275.09785242 -192.24609375 273.64453125 C-191.97925781 272.37996094 -191.71242187 271.11539062 -191.4375 269.8125 C-191.29892578 269.14669922 -191.16035156 268.48089844 -191.01757812 267.79492188 C-190.68387723 266.19545896 -190.34279182 264.59753925 -190 263 C-185.30991147 265.46736852 -181.96594111 268.76347698 -178.28198242 272.4909668 C-177.62776306 273.1448941 -176.9735437 273.79882141 -176.29949951 274.4725647 C-174.14671233 276.62674084 -172.00108865 278.78790569 -169.85546875 280.94921875 C-168.36089544 282.44752372 -166.86587882 283.94538659 -165.37043762 285.44282532 C-161.4418595 289.3790278 -157.51932551 293.32120015 -153.59802246 297.26464844 C-149.59307188 301.29008315 -145.58243078 305.30983937 -141.57226562 309.33007812 C-133.70926583 317.21450673 -125.85263996 325.10525422 -118 333 C-116.58160268 332.53926662 -115.16424303 332.07533812 -113.74731445 331.61010742 C-112.9579097 331.35210861 -112.16850494 331.0941098 -111.35517883 330.82829285 C-107.82702189 329.58747533 -104.51853137 328.00358741 -101.1875 326.3125 C-100.50606934 325.96944824 -99.82463867 325.62639648 -99.12255859 325.27294922 C-92.06877475 321.64458181 -84.63549691 317.63549691 -79 312 C-79.54821915 311.45400146 -80.09643829 310.90800293 -80.66127014 310.34545898 C-85.85644166 305.17042053 -91.04913075 299.99290928 -96.23912907 294.81268311 C-98.90669882 292.15030636 -101.57517976 289.48885711 -104.24584961 286.82958984 C-106.82869589 284.25770087 -109.40900923 281.68329451 -111.98766899 279.10720825 C-112.96624512 278.13046344 -113.94569294 277.15459106 -114.92607307 276.17965698 C-119.85881546 271.2732007 -124.6477928 266.32818144 -129.17878723 261.04928589 C-133.01378357 256.73402739 -137.15298073 252.70521851 -141.23828125 248.62890625 C-142.21012184 247.65639044 -143.18181408 246.68372636 -144.15336609 245.71092224 C-146.17297388 243.68985196 -148.19434967 241.670572 -150.21704102 239.65258789 C-152.81075611 237.06461541 -155.39989333 234.47211636 -157.98775959 231.87829685 C-159.98561979 229.87683082 -161.98584582 227.87774291 -163.98680687 225.87937737 C-165.40737545 224.45979922 -166.82593196 223.03820852 -168.24446106 221.61659241 C-169.10262924 220.76157639 -169.96079742 219.90656036 -170.8449707 219.02563477 C-171.60107132 218.27032974 -172.35717194 217.51502472 -173.13618469 216.73683167 C-174.89286981 214.93581719 -174.89286981 214.93581719 -177 214 C-177.24492187 214.55171875 -177.48984375 215.1034375 -177.7421875 215.671875 C-179.25647878 218.47472469 -181.13195147 220.76389766 -183.125 223.25 C-199.37057373 244.39921437 -205.75753049 271.94882977 -206.31640625 298.19140625 C-206.3475779 299.43747902 -206.3475779 299.43747902 -206.37937927 300.70872498 C-206.44404482 303.32657715 -206.50336792 305.9445176 -206.5625 308.5625 C-206.60576445 310.35222217 -206.64938106 312.14193586 -206.69335938 313.93164062 C-206.79963924 318.28767315 -206.90113258 322.64379319 -207 327 C-211.47944035 326.86189095 -215.95846783 326.71322584 -220.4375 326.5625 C-222.3565918 326.50352539 -222.3565918 326.50352539 -224.31445312 326.44335938 C-225.52939453 326.40146484 -226.74433594 326.35957031 -227.99609375 326.31640625 C-229.12200928 326.27974854 -230.2479248 326.24309082 -231.40795898 326.20532227 C-234 326 -234 326 -235 325 C-235.12657819 322.61400118 -235.18826137 320.25867301 -235.203125 317.87109375 C-235.21013931 317.138302 -235.21715363 316.40551025 -235.22438049 315.6505127 C-235.24207105 313.24611416 -235.2482491 310.84196156 -235.25 308.4375 C-235.25067474 307.62000275 -235.25134949 306.80250549 -235.25204468 305.9602356 C-235.19085765 259.35230567 -221.60622867 219.83626421 -188.625 186.3125 C-152.92150282 150.87249727 -104.94672197 138.98585456 -55.875 138.8125 C-50.31074766 138.84462617 -50.31074766 138.84462617 -48 140 C-47.58935547 142.0378418 -47.58935547 142.0378418 -47.3671875 144.69921875 C-47.24150391 146.14264648 -47.24150391 146.14264648 -47.11328125 147.61523438 C-47.03464844 148.62908203 -46.95601563 149.64292969 -46.875 150.6875 C-46.78863281 151.68201172 -46.70226562 152.67652344 -46.61328125 153.70117188 C-46.21278357 158.47853701 -45.88555356 163.20142442 -46 168 C-47.60488281 167.96519531 -47.60488281 167.96519531 -49.2421875 167.9296875 C-59.22782261 167.78644866 -69.10400718 168.17188655 -79.0625 168.9375 C-80.78412354 169.06777588 -80.78412354 169.06777588 -82.54052734 169.20068359 C-87.94121356 169.42813425 -87.94121356 169.42813425 -93 171 C-92.3702124 171.62455078 -91.7404248 172.24910156 -91.09155273 172.89257812 C-88.72064355 175.24628314 -86.352126 177.60234573 -83.98510742 179.95996094 C-82.96682708 180.97326152 -81.94764526 181.98565712 -80.92749023 182.99707031 C-75.70581292 188.17516956 -70.58721791 193.37558929 -65.8034668 198.96728516 C-61.95543578 203.30445941 -57.79486661 207.34805644 -53.6875 211.4375 C-52.78193359 212.34693359 -51.87636719 213.25636719 -50.94335938 214.19335938 C-50.07904297 215.05638672 -49.21472656 215.91941406 -48.32421875 216.80859375 C-47.54135498 217.59032959 -46.75849121 218.37206543 -45.9519043 219.17749023 C-44.12569468 221.05529367 -44.12569468 221.05529367 -42 222 C-42.5466488 230.18088206 -44.17123868 238.01785939 -46 246 C-50 246 -50 246 -51.56978989 244.92240143 C-52.07493244 244.4135717 -52.580075 243.90474197 -53.1005249 243.38049316 C-53.68660019 242.79991653 -54.27267548 242.2193399 -54.87651062 241.62117004 C-55.50733047 240.97596909 -56.13815033 240.33076813 -56.78808594 239.66601562 C-57.79845665 238.65652107 -57.79845665 238.65652107 -58.82923889 237.62663269 C-61.05722701 235.39585394 -63.27070749 233.15123284 -65.484375 230.90625 C-67.02478231 229.35838385 -68.5660741 227.81139744 -70.10821533 226.26525879 C-74.16784943 222.19034056 -78.21532978 218.10355357 -82.26043701 214.01422119 C-86.38903946 209.84472646 -90.52896606 205.68650992 -94.66796875 201.52734375 C-102.78980058 193.36259193 -110.89884378 185.18526314 -119 177 C-120.57952004 177.4555005 -122.1576138 177.91594834 -123.73510742 178.37841797 C-124.61406174 178.6342868 -125.49301605 178.89015564 -126.39860535 179.15377808 C-130.26523347 180.41157473 -133.75180596 182.18176068 -137.3125 184.125 C-138.39229126 184.70399048 -138.39229126 184.70399048 -139.49389648 185.29467773 C-146.34764698 189.04610067 -152.70953169 193.37240331 -159 198 C-157.55406286 201.31228082 -155.75368404 203.49557053 -153.2043457 206.04289246 C-152.01816147 207.23536842 -152.01816147 207.23536842 -150.80801392 208.45193481 C-149.93937714 209.31495209 -149.07074036 210.17796936 -148.17578125 211.06713867 C-146.8049086 212.44085884 -146.8049086 212.44085884 -145.40634155 213.84233093 C-142.90270464 216.35081032 -140.39287024 218.85300302 -137.88174057 221.35397887 C-135.25552025 223.97141184 -132.63457718 226.59411932 -130.01293945 229.21614075 C-125.61131277 233.61683129 -121.20583218 238.0136334 -116.79785156 242.40795898 C-111.69805885 247.49201209 -106.60352583 252.58128714 -101.51196384 257.67358226 C-96.61607212 262.57008377 -91.71733166 267.46372424 -86.81698608 272.3557682 C-84.73012056 274.43909892 -82.64411026 276.5232805 -80.55874634 278.60811424 C-77.6502332 281.51543875 -74.73748579 284.41848406 -71.82421875 287.32104492 C-70.95558197 288.19013489 -70.08694519 289.05922485 -69.19198608 289.95465088 C-68.40119659 290.74117538 -67.6104071 291.52769989 -66.7956543 292.33805847 C-66.1069072 293.02512973 -65.4181601 293.71220098 -64.70854187 294.42009258 C-63.07327596 296.07957234 -63.07327596 296.07957234 -61 297 C-60.75765625 296.45601563 -60.5153125 295.91203125 -60.265625 295.3515625 C-58.69993883 292.44247894 -56.77490343 289.9853347 -54.75 287.375 C-44.12881335 273.37424826 -37.57939062 258.20661356 -34 241 C-33.84901855 240.27683594 -33.69803711 239.55367187 -33.54248047 238.80859375 C-28.32976905 212.22207858 -30.63649695 184.26411181 -32.5 157.4375 C-33.62560116 141.21921858 -34.32941415 125.07162532 -34.375 108.8125 C-34.38623901 107.45498123 -34.38623901 107.45498123 -34.39770508 106.07003784 C-34.65986333 67.92819711 -24.11922137 31.65008391 -1 1 C-0.67 0.67 -0.34 0.34 0 0 Z " fill="#E8E8E8" transform="translate(375,1)"/>
<path d="M0 0 C2.88330643 1.30683699 4.94564108 2.69722137 7.17645264 4.9359436 C8.08080803 5.836175 8.08080803 5.836175 9.00343323 6.7545929 C9.65295456 7.41130478 10.30247589 8.06801666 10.97167969 8.74462891 C11.6647673 9.43742447 12.35785492 10.13022003 13.07194519 10.8440094 C15.36002799 13.13348474 17.64094651 15.4299613 19.921875 17.7265625 C21.5075592 19.31597709 23.09368574 20.90495048 24.68023682 22.49349976 C28.85377854 26.67467585 33.02127917 30.86182346 37.18756104 35.05023193 C41.44042719 39.32356063 45.69896419 43.59122973 49.95703125 47.859375 C58.31025559 56.23404581 66.65711048 64.61503443 75 73 C76.57847784 72.54909927 78.15520855 72.09208006 79.73120117 71.63256836 C80.60943039 71.37873886 81.48765961 71.12490936 82.39250183 70.86338806 C86.31648688 69.56408826 89.76108141 67.65013468 93.3125 65.5625 C93.98861328 65.18029297 94.66472656 64.79808594 95.36132812 64.40429688 C98.41333854 62.65050748 101.04796489 60.9587598 103.73046875 58.65234375 C106 57 106 57 107.95776367 57.18286133 C110.46287328 58.18520465 111.34658245 59.26350705 112.9453125 61.421875 C113.46480469 62.11796875 113.98429687 62.8140625 114.51953125 63.53125 C115.04933594 64.2634375 115.57914062 64.995625 116.125 65.75 C116.66253906 66.46671875 117.20007813 67.1834375 117.75390625 67.921875 C120.37722062 71.48068552 122.6414848 74.73996468 124 79 C89.87076051 109.13751557 42.26380335 112.77769558 -1 112 C-1.94466756 108.75921875 -2.19098828 105.72774345 -2.31640625 102.359375 C-2.35830078 101.28945312 -2.40019531 100.21953125 -2.44335938 99.1171875 C-2.48267578 98.00601563 -2.52199219 96.89484375 -2.5625 95.75 C-2.60568359 94.62335938 -2.64886719 93.49671875 -2.69335938 92.3359375 C-2.79932015 89.55741046 -2.90139142 86.77879609 -3 84 C-1.68733154 83.970271 -1.68733154 83.970271 -0.34814453 83.93994141 C25.17926229 84.3590714 25.17926229 84.3590714 50 80 C48.98189491 79.02186592 48.98189491 79.02186592 47.94322205 78.02397156 C41.53938755 71.86378004 35.1677745 65.67184841 28.8260107 59.44775677 C25.56477603 56.24905558 22.29338418 53.06242376 18.99584961 49.90112305 C15.81162704 46.84764122 12.65795807 43.76544023 9.52295113 40.66147804 C8.32408705 39.48472538 7.11473548 38.31855668 5.89484978 37.16361046 C-3.64321523 28.11345286 -3.64321523 28.11345286 -4.52232361 22.90596008 C-4.29065371 20.10414638 -3.79629741 17.68952247 -3 15 C-2.73797284 13.55007439 -2.48590314 12.0982967 -2.24609375 10.64453125 C-1.97925781 9.37996094 -1.71242188 8.11539063 -1.4375 6.8125 C-1.22963867 5.81379883 -1.22963867 5.81379883 -1.01757812 4.79492188 C-0.68387723 3.19545896 -0.34279182 1.59753925 0 0 Z " fill="#E4E4E4" transform="translate(388,59)"/>
<path d="M0 0 C3.16664666 -0.02940458 6.33325747 -0.04693315 9.5 -0.0625 C10.386875 -0.07087891 11.27375 -0.07925781 12.1875 -0.08789062 C17.55823086 -0.10763596 22.68633663 0.21164107 28 1 C28.76649649 46.8522133 22.96869856 88.74325416 -6 126 C-9.51832123 124.72598605 -12.25812527 123.25703223 -15.20703125 120.9609375 C-15.95791016 120.38085938 -16.70878906 119.80078125 -17.48242188 119.203125 C-18.25134766 118.59984375 -19.02027344 117.9965625 -19.8125 117.375 C-20.60076172 116.76398438 -21.38902344 116.15296875 -22.20117188 115.5234375 C-24.13820974 114.0207657 -26.07092079 112.51286614 -28 111 C-27.08925427 106.6247202 -24.79517031 103.37344236 -22.375 99.6875 C-2.64199081 68.6865341 -0.54897235 35.77419294 0 0 Z " fill="#E7E7E7" transform="translate(144,385)"/>
<path d="M0 0 C0.66 0.33 1.32 0.66 2 1 C-7.57 10.57 -17.14 20.14 -27 30 C-27 25.6856251 -24.39746311 23.8281929 -21.5625 20.875 C-21.01770996 20.2975 -20.47291992 19.72 -19.91162109 19.125 C-18.28398753 17.40718094 -16.64483448 15.70134225 -15 14 C-14.14535156 13.11570313 -13.29070312 12.23140625 -12.41015625 11.3203125 C-8.44843198 7.29763863 -4.42017088 3.51346916 0 0 Z " fill="#525252" transform="translate(199,176)"/>
</svg>
