<?xml version="1.0" encoding="UTF-8"?>
<svg version="1.1" xmlns="http://www.w3.org/2000/svg" width="512" height="512">
<path d="M0 0 C1.01545898 0.19867676 2.03091797 0.39735352 3.07714844 0.60205078 C52.9758035 10.58327711 96.53871388 34.88580573 133 70 C133.7940625 70.7528125 134.588125 71.505625 135.40625 72.28125 C140.75597303 77.46114055 145.38660506 83.16405541 150 89 C151.19109375 90.48306641 151.19109375 90.48306641 152.40625 91.99609375 C175.32205725 121.03970389 191.22147176 154.85685587 199.6875 190.8125 C199.97306763 191.99936401 199.97306763 191.99936401 200.2644043 193.21020508 C204.22851721 210.89052902 205.555362 228.61292655 205.4375 246.6875 C205.43293793 248.18546112 205.43293793 248.18546112 205.42828369 249.71368408 C205.35621635 265.78341917 204.43972751 281.25213186 201 297 C200.78037598 298.02625488 200.56075195 299.05250977 200.33447266 300.10986328 C191.83138831 338.85817193 174.61772522 375.56726438 149 406 C148.57138672 406.51739746 148.14277344 407.03479492 147.70117188 407.56787109 C137.18164284 420.2564129 126.03816903 431.86528878 113 442 C111.52660156 443.18142578 111.52660156 443.18142578 110.0234375 444.38671875 C70.29759115 476.0035908 18.37047678 496.93437939 -32.79296875 497.203125 C-33.69337387 497.21018463 -34.59377899 497.21724426 -35.52146912 497.22451782 C-72.98691069 497.45161655 -72.98691069 497.45161655 -90 494 C-91.01545898 493.80132324 -92.03091797 493.60264648 -93.07714844 493.39794922 C-142.9758035 483.41672289 -186.53871388 459.11419427 -223 424 C-223.7940625 423.2471875 -224.588125 422.494375 -225.40625 421.71875 C-230.75597303 416.53885945 -235.38660506 410.83594459 -240 405 C-240.7940625 404.01128906 -241.588125 403.02257812 -242.40625 402.00390625 C-266.9776499 370.86198961 -283.32468106 334.48759715 -291.25 295.6875 C-291.47671387 294.57942993 -291.47671387 294.57942993 -291.70800781 293.44897461 C-292.18439803 290.97158418 -292.60252786 288.49133778 -293 286 C-293.17805176 284.88423584 -293.35610352 283.76847168 -293.53955078 282.61889648 C-295.19998488 270.98027732 -295.3987437 259.43103747 -295.375 247.6875 C-295.37445618 246.6738739 -295.37391235 245.6602478 -295.37335205 244.61590576 C-295.33347417 228.41878779 -294.46747801 212.87491635 -291 197 C-290.78037598 195.97374512 -290.56075195 194.94749023 -290.33447266 193.89013672 C-279.82149525 145.98280374 -255.85138923 104.15003587 -222 69 C-221.2471875 68.2059375 -220.494375 67.411875 -219.71875 66.59375 C-214.53885945 61.24402697 -208.83594459 56.61339494 -203 52 C-202.01128906 51.2059375 -201.02257812 50.411875 -200.00390625 49.59375 C-167.66655102 24.07913264 -130.33332447 7.86607287 -90 0 C-89.17274414 -0.16661133 -88.34548828 -0.33322266 -87.49316406 -0.50488281 C-59.91781494 -5.80488028 -27.50199116 -5.57960557 0 0 Z " fill="#AC74D0" transform="translate(301,9)"/>
<path d="M0 0 C2.21844626 0.19015254 3.41522155 0.41522155 5 2 C5.02661391 5.65370964 4.97175174 9.29518579 4.87304688 12.94726562 C4.79765818 18.32647066 5.49024078 22.83129492 7 28 C8.59714844 27.51080078 8.59714844 27.51080078 10.2265625 27.01171875 C31.315921 20.62596959 51.86319848 17.56987424 73.875 17.625 C74.66660522 17.62521149 75.45821045 17.62542297 76.27380371 17.62564087 C97.17319509 17.68079335 118.28828875 19.64271287 138 27 C138.76070801 27.28359375 139.52141602 27.5671875 140.30517578 27.859375 C161.82699628 36.06644369 179.94333714 46.6609261 191.8125 67.125 C196.10763821 77.52375566 196.30254652 87.56958419 192 98 C181.50333886 119.5316126 160.74745837 130.97024201 139.00317383 138.53564453 C119.73403127 145 119.73403127 145 113 145 C113.00368717 145.83084044 113.00737434 146.66168087 113.01117325 147.51769829 C113.09961121 167.75827945 113.16575189 187.99882719 113.20724869 208.23956108 C113.22785097 218.02794215 113.25592688 227.81619404 113.30175781 237.60449219 C113.34169711 246.13857682 113.36744977 254.67256786 113.37635398 263.20674336 C113.38155673 267.72320147 113.39373623 272.23939191 113.42292023 276.75576401 C113.45020156 281.01243769 113.45841948 285.26873509 113.45243073 289.5254879 C113.4535253 291.08226381 113.46140327 292.63905316 113.4768219 294.1957531 C113.60175167 307.46719913 111.55726166 316.14871092 102.23046875 325.87109375 C95.24031085 332.54296075 87.62242067 335.49771793 78.01274109 335.31797791 C77.25004262 335.31615794 76.48734416 335.31433798 75.70153362 335.31246287 C73.16750705 335.30308015 70.63419566 335.27239905 68.1003418 335.24194336 C66.27467631 335.23130491 64.44900155 335.22216875 62.62332153 335.2144165 C58.70170333 335.1956898 54.78026347 335.16858817 50.85873985 335.13560295 C44.65076639 335.08568876 38.44296783 335.06835467 32.2348175 335.05799866 C30.1057195 335.0540485 27.97662156 335.05006088 25.84752369 335.04603672 C24.78155984 335.04403141 23.71559598 335.0420261 22.61733019 335.03996003 C8.17302088 335.00998499 -6.27074694 334.95219675 -20.71459961 334.83227539 C-30.47030528 334.75153944 -40.22517996 334.71364573 -49.98122662 334.72391611 C-55.1383122 334.72752692 -60.29321678 334.70913148 -65.4498539 334.63773918 C-70.30250942 334.57071874 -75.15210594 334.55992765 -80.00509262 334.59118652 C-81.77923674 334.59270656 -83.55354102 334.57388824 -85.32720375 334.53253365 C-95.58085698 334.12140565 -95.58085698 334.12140565 -104.41434383 338.60111713 C-107.26254985 341.49795639 -109.61493136 344.71468404 -112 348 C-113.46947143 349.58657864 -114.96140418 351.15315458 -116.48999023 352.68286133 C-117.1969957 353.40592972 -117.90400116 354.12899811 -118.63243103 354.87397766 C-121.74720425 358.03439674 -124.86496335 361.19174908 -127.9909668 364.34106445 C-129.63983689 366.00671778 -131.28329384 367.67774502 -132.92163086 369.35375977 C-135.30958699 371.79606819 -137.71320929 374.22188816 -140.12109375 376.64453125 C-140.85339706 377.39950394 -141.58570038 378.15447662 -142.3401947 378.93232727 C-143.02513504 379.61441757 -143.71007538 380.29650787 -144.41577148 380.99926758 C-145.01324692 381.60482986 -145.61072235 382.21039215 -146.2263031 382.83430481 C-148 384 -148 384 -150.16151428 383.75004578 C-152 383 -152 383 -153 382 C-153.66973618 372.31218835 -152.77193479 362.53388055 -152.0625 352.875 C-151.93234497 351.09633545 -151.93234497 351.09633545 -151.79956055 349.28173828 C-151.42489338 344.44323877 -151.0383265 339.7477221 -150 335 C-150.6798999 335.02094727 -151.3597998 335.04189453 -152.06030273 335.06347656 C-155.18588047 335.14739895 -158.31122016 335.1988991 -161.4375 335.25 C-162.50677734 335.28351563 -163.57605469 335.31703125 -164.67773438 335.3515625 C-175.29048061 335.48138203 -183.18272604 332.17408054 -191 325 C-198.53075437 316.63438825 -201.10229593 308.22857407 -201.15390015 297.01925659 C-201.1582824 296.34064359 -201.16266465 295.66203058 -201.1671797 294.96285355 C-201.18047431 292.70163244 -201.18672537 290.44045022 -201.19287109 288.17919922 C-201.20077943 286.5524834 -201.20904883 284.9257693 -201.21765137 283.29905701 C-201.24378655 277.96761735 -201.25917035 272.63617017 -201.2734375 267.3046875 C-201.27880065 265.46432618 -201.28417816 263.6239649 -201.28956985 261.78360367 C-201.31118595 254.12463243 -201.3299203 246.46566323 -201.34119225 238.80666924 C-201.35741851 227.85617596 -201.39057876 216.90603814 -201.44759309 205.95567882 C-201.48637861 198.24163375 -201.50583509 190.52768342 -201.51111281 182.81354344 C-201.51475441 178.21322969 -201.52664848 173.61329582 -201.55921555 169.01308823 C-201.58944837 164.68074195 -201.59555433 160.34900243 -201.58383179 156.01657295 C-201.58361232 154.43482886 -201.59181129 152.85305534 -201.60948563 151.27140999 C-201.75286314 137.69141115 -199.07660651 127.17042863 -189.41015625 117.1328125 C-183.01414048 111.47280503 -176.76562574 108.87203125 -168.27996826 108.87974548 C-167.11331635 108.87837082 -165.94666443 108.87699615 -164.74465942 108.87557983 C-163.46863861 108.87917511 -162.1926178 108.88277039 -160.87792969 108.88647461 C-159.51775108 108.88675675 -158.15757232 108.88659823 -156.7973938 108.8860321 C-153.10765235 108.88574517 -149.4179434 108.89162513 -145.7282095 108.89860606 C-141.87115582 108.90485687 -138.01410141 108.90544477 -134.15704346 108.90663147 C-126.85439702 108.90973968 -119.55176556 108.91794621 -112.24912572 108.92798096 C-103.93480386 108.93915791 -95.62048128 108.94465654 -87.30615377 108.94967639 C-70.20409386 108.96012924 -53.10204851 108.97771883 -36 109 C-36.61705811 108.00202393 -36.61705811 108.00202393 -37.24658203 106.98388672 C-37.78653809 106.09975098 -38.32649414 105.21561523 -38.8828125 104.3046875 C-39.68549561 102.99733643 -39.68549561 102.99733643 -40.50439453 101.66357422 C-45.65978127 92.48217212 -46.53033749 82.09949043 -43.9375 71.9375 C-40.02301417 60.64502014 -31.23170299 49.08185622 -20.7265625 43.15234375 C-17.67030489 41.19365311 -17.67030489 41.19365311 -17.15234375 37.53125 C-17.05966231 36.18878851 -16.98907762 34.84466816 -16.9375 33.5 C-15.80946908 19.95593439 -10.11198084 9.14599893 0 0 Z " fill="#BB73C8" transform="translate(259,64)"/>
<path d="M0 0 C2.21844626 0.19015254 3.41522155 0.41522155 5 2 C5.02661391 5.65370964 4.97175174 9.29518579 4.87304688 12.94726562 C4.79765818 18.32647066 5.49024078 22.83129492 7 28 C8.59714844 27.51080078 8.59714844 27.51080078 10.2265625 27.01171875 C31.315921 20.62596959 51.86319848 17.56987424 73.875 17.625 C74.66660522 17.62521149 75.45821045 17.62542297 76.27380371 17.62564087 C97.17319509 17.68079335 118.28828875 19.64271287 138 27 C138.76070801 27.28359375 139.52141602 27.5671875 140.30517578 27.859375 C161.82699628 36.06644369 179.94333714 46.6609261 191.8125 67.125 C196.10763821 77.52375566 196.30254652 87.56958419 192 98 C181.50333886 119.5316126 160.74745837 130.97024201 139.00317383 138.53564453 C119.73403127 145 119.73403127 145 113 145 C113.00368717 145.83084044 113.00737434 146.66168087 113.01117325 147.51769829 C113.09961121 167.75827945 113.16575189 187.99882719 113.20724869 208.23956108 C113.22785097 218.02794215 113.25592688 227.81619404 113.30175781 237.60449219 C113.34169711 246.13857682 113.36744977 254.67256786 113.37635398 263.20674336 C113.38155673 267.72320147 113.39373623 272.23939191 113.42292023 276.75576401 C113.45020156 281.01243769 113.45841948 285.26873509 113.45243073 289.5254879 C113.4535253 291.08226381 113.46140327 292.63905316 113.4768219 294.1957531 C113.60175167 307.46719913 111.55726166 316.14871092 102.23046875 325.87109375 C95.24031085 332.54296075 87.62242067 335.49771793 78.01274109 335.31797791 C77.25004262 335.31615794 76.48734416 335.31433798 75.70153362 335.31246287 C73.16750705 335.30308015 70.63419566 335.27239905 68.1003418 335.24194336 C66.27467631 335.23130491 64.44900155 335.22216875 62.62332153 335.2144165 C58.70170333 335.1956898 54.78026347 335.16858817 50.85873985 335.13560295 C44.65076639 335.08568876 38.44296783 335.06835467 32.2348175 335.05799866 C30.1057195 335.0540485 27.97662156 335.05006088 25.84752369 335.04603672 C24.78155984 335.04403141 23.71559598 335.0420261 22.61733019 335.03996003 C8.17302088 335.00998499 -6.27074694 334.95219675 -20.71459961 334.83227539 C-30.47030528 334.75153944 -40.22517996 334.71364573 -49.98122662 334.72391611 C-55.1383122 334.72752692 -60.29321678 334.70913148 -65.4498539 334.63773918 C-70.30250942 334.57071874 -75.15210594 334.55992765 -80.00509262 334.59118652 C-81.77923674 334.59270656 -83.55354102 334.57388824 -85.32720375 334.53253365 C-95.58085698 334.12140565 -95.58085698 334.12140565 -104.41434383 338.60111713 C-107.26254985 341.49795639 -109.61493136 344.71468404 -112 348 C-113.46947143 349.58657864 -114.96140418 351.15315458 -116.48999023 352.68286133 C-117.1969957 353.40592972 -117.90400116 354.12899811 -118.63243103 354.87397766 C-121.74720425 358.03439674 -124.86496335 361.19174908 -127.9909668 364.34106445 C-129.63983689 366.00671778 -131.28329384 367.67774502 -132.92163086 369.35375977 C-135.30958699 371.79606819 -137.71320929 374.22188816 -140.12109375 376.64453125 C-140.85339706 377.39950394 -141.58570038 378.15447662 -142.3401947 378.93232727 C-143.02513504 379.61441757 -143.71007538 380.29650787 -144.41577148 380.99926758 C-145.01324692 381.60482986 -145.61072235 382.21039215 -146.2263031 382.83430481 C-148 384 -148 384 -150.16151428 383.75004578 C-152 383 -152 383 -153 382 C-153.66973618 372.31218835 -152.77193479 362.53388055 -152.0625 352.875 C-151.93234497 351.09633545 -151.93234497 351.09633545 -151.79956055 349.28173828 C-151.42489338 344.44323877 -151.0383265 339.7477221 -150 335 C-150.6798999 335.02094727 -151.3597998 335.04189453 -152.06030273 335.06347656 C-155.18588047 335.14739895 -158.31122016 335.1988991 -161.4375 335.25 C-162.50677734 335.28351563 -163.57605469 335.31703125 -164.67773438 335.3515625 C-175.29048061 335.48138203 -183.18272604 332.17408054 -191 325 C-198.53075437 316.63438825 -201.10229593 308.22857407 -201.15390015 297.01925659 C-201.1582824 296.34064359 -201.16266465 295.66203058 -201.1671797 294.96285355 C-201.18047431 292.70163244 -201.18672537 290.44045022 -201.19287109 288.17919922 C-201.20077943 286.5524834 -201.20904883 284.9257693 -201.21765137 283.29905701 C-201.24378655 277.96761735 -201.25917035 272.63617017 -201.2734375 267.3046875 C-201.27880065 265.46432618 -201.28417816 263.6239649 -201.28956985 261.78360367 C-201.31118595 254.12463243 -201.3299203 246.46566323 -201.34119225 238.80666924 C-201.35741851 227.85617596 -201.39057876 216.90603814 -201.44759309 205.95567882 C-201.48637861 198.24163375 -201.50583509 190.52768342 -201.51111281 182.81354344 C-201.51475441 178.21322969 -201.52664848 173.61329582 -201.55921555 169.01308823 C-201.58944837 164.68074195 -201.59555433 160.34900243 -201.58383179 156.01657295 C-201.58361232 154.43482886 -201.59181129 152.85305534 -201.60948563 151.27140999 C-201.75286314 137.69141115 -199.07660651 127.17042863 -189.41015625 117.1328125 C-183.01414048 111.47280503 -176.76562574 108.87203125 -168.27996826 108.87974548 C-167.11331635 108.87837082 -165.94666443 108.87699615 -164.74465942 108.87557983 C-163.46863861 108.87917511 -162.1926178 108.88277039 -160.87792969 108.88647461 C-159.51775108 108.88675675 -158.15757232 108.88659823 -156.7973938 108.8860321 C-153.10765235 108.88574517 -149.4179434 108.89162513 -145.7282095 108.89860606 C-141.87115582 108.90485687 -138.01410141 108.90544477 -134.15704346 108.90663147 C-126.85439702 108.90973968 -119.55176556 108.91794621 -112.24912572 108.92798096 C-103.93480386 108.93915791 -95.62048128 108.94465654 -87.30615377 108.94967639 C-70.20409386 108.96012924 -53.10204851 108.97771883 -36 109 C-36.61705811 108.00202393 -36.61705811 108.00202393 -37.24658203 106.98388672 C-37.78653809 106.09975098 -38.32649414 105.21561523 -38.8828125 104.3046875 C-39.68549561 102.99733643 -39.68549561 102.99733643 -40.50439453 101.66357422 C-45.65978127 92.48217212 -46.53033749 82.09949043 -43.9375 71.9375 C-40.02301417 60.64502014 -31.23170299 49.08185622 -20.7265625 43.15234375 C-17.67030489 41.19365311 -17.67030489 41.19365311 -17.15234375 37.53125 C-17.05966231 36.18878851 -16.98907762 34.84466816 -16.9375 33.5 C-15.80946908 19.95593439 -10.11198084 9.14599893 0 0 Z M-188 127 C-193.8935611 135.15244036 -193.71996577 143.81903317 -193.6628418 153.45849609 C-193.6712679 155.1055161 -193.68179872 156.75252646 -193.69425964 158.39952087 C-193.72119415 162.84811241 -193.71663685 167.29614047 -193.70455909 171.7447772 C-193.69740013 175.46969171 -193.70594594 179.19450384 -193.71446449 182.91941035 C-193.7343817 191.71296989 -193.72888807 200.50625736 -193.70678711 209.29980469 C-193.68443481 218.34659603 -193.70201594 227.39267334 -193.73983639 236.43939722 C-193.77115149 244.23001048 -193.77896163 252.02040366 -193.76788265 259.81107199 C-193.76142046 264.45379491 -193.76327779 269.09610631 -193.78720665 273.73878098 C-193.80857905 278.10747399 -193.80032615 282.47516656 -193.77011299 286.84379768 C-193.76382653 288.4384155 -193.76754649 290.03311233 -193.78252411 291.6276722 C-193.87472729 302.31804759 -192.65454668 311.70145528 -185.18070507 320.02649498 C-179.59389002 325.32951628 -173.3455122 327.34880875 -165.75390625 327.51171875 C-165.09792953 327.52966995 -164.44195282 327.54762115 -163.76609802 327.56611633 C-161.69829488 327.61972153 -159.63071562 327.65395093 -157.5625 327.6875 C-156.14905769 327.72071743 -154.73564477 327.75521111 -153.32226562 327.79101562 C-149.88172554 327.87541619 -146.44110634 327.94246279 -143 328 C-142.90567564 333.70138368 -142.92337413 339.22525631 -143.74169922 344.8828125 C-144.29262393 349.39852055 -144.38067103 353.95725648 -144.5625 358.5 C-144.60568359 359.51320313 -144.64886719 360.52640625 -144.69335938 361.5703125 C-144.79849192 364.0467679 -144.90063837 366.52330749 -145 369 C-138.51108233 363.6994597 -132.65519881 357.80716523 -126.74804688 351.87841797 C-125.00761581 350.13263921 -123.26191997 348.39225463 -121.515625 346.65234375 C-116.2429681 341.38175559 -111.04047037 336.12494553 -106.26953125 330.38623047 C-105 329 -105 329 -103 328 C-100.55378862 327.90329196 -98.13600708 327.86714887 -95.6895752 327.87542725 C-94.92721416 327.8740171 -94.16485312 327.87260695 -93.37939024 327.87115407 C-90.81085127 327.86748831 -88.24236707 327.87084314 -85.67382812 327.87402344 C-83.83756466 327.87262922 -82.00130153 327.87073026 -80.16503906 327.86836243 C-76.20247642 327.86385827 -72.23992415 327.86200918 -68.27735901 327.86190033 C-62.00710417 327.86076142 -55.73690842 327.84793231 -49.4666748 327.83233643 C-47.88000653 327.82847715 -47.88000653 327.82847715 -46.26128435 327.8245399 C-44.09772233 327.81927296 -41.93416035 327.81398748 -39.77059841 327.80868387 C-25.16932233 327.77357111 -10.56811866 327.74701867 4.03320312 327.74951172 C13.87631042 327.75110202 23.71921713 327.73502147 33.56226015 327.69880509 C38.77060866 327.680366 43.97862241 327.67098404 49.18699646 327.68328094 C54.09223629 327.69474884 58.99687809 327.68294088 63.90203857 327.65364647 C65.69744284 327.64702562 67.49290218 327.64883874 69.2882843 327.65994453 C79.80858364 327.71959315 89.01855332 327.59910291 97.12554169 320.01032639 C102.76705144 314.14038605 105.37993192 308.21778 105.36076355 300.08399963 C105.36332682 299.42465028 105.3658901 298.76530093 105.36853105 298.0859713 C105.37343733 295.89633233 105.35702956 293.70739674 105.34057617 291.51782227 C105.33972921 289.94045528 105.34020639 288.36308712 105.34190369 286.78572083 C105.34276237 282.51757201 105.32515718 278.24967751 105.30418181 273.98158765 C105.28539389 269.51597215 105.28366291 265.05035046 105.28010559 260.58470154 C105.27079134 252.1346288 105.24618595 243.68467287 105.21605712 235.23465151 C105.18249381 225.61195598 105.16602225 215.98925479 105.15097082 206.36651528 C105.11963584 186.57761172 105.0668874 166.78881323 105 147 C104.06730537 147.00999275 104.06730537 147.00999275 103.11576843 147.02018738 C96.54378524 147.08744052 89.97190236 147.13216645 83.3996582 147.16479492 C80.9588625 147.17972383 78.51809285 147.20007427 76.07739258 147.22631836 C57.36883665 147.42219936 39.82131567 146.360239 21.75 141.1875 C20.83089844 140.92888184 19.91179687 140.67026367 18.96484375 140.40380859 C5.74474419 136.58800713 -9.86714487 131.76650996 -20.03405666 122.0575676 C-27.10942391 115.4771675 -32.68720885 114.86359129 -42.11938477 115.02832031 C-43.51512065 115.02401947 -44.91084944 115.01625055 -46.30654907 115.00531006 C-50.06955578 114.98605418 -53.83064107 115.01635605 -57.5934155 115.05712223 C-61.546296 115.09248073 -65.49912673 115.08520991 -69.45213318 115.0836792 C-76.08714601 115.0874155 -82.72142334 115.12200994 -89.35620117 115.17675781 C-97.00901633 115.2396759 -104.66102751 115.26074876 -112.31408268 115.2578156 C-120.48929624 115.2551063 -128.66420315 115.28290799 -136.83932376 115.31960201 C-139.18324957 115.32809544 -141.52712537 115.33096234 -143.87106514 115.33255768 C-147.56419131 115.33659906 -151.25665229 115.36120617 -154.94955826 115.40122223 C-156.9384148 115.41832948 -158.92740791 115.41624902 -160.91633606 115.41345215 C-172.25193365 115.57445242 -180.27814071 118.58764085 -188 127 Z " fill="#9D75D9" transform="translate(259,64)"/>
<path d="M0 0 C2.21844626 0.19015254 3.41522155 0.41522155 5 2 C5.02661391 5.65370964 4.97175174 9.29518579 4.87304688 12.94726562 C4.79765818 18.32647066 5.49024078 22.83129492 7 28 C8.59714844 27.51080078 8.59714844 27.51080078 10.2265625 27.01171875 C31.315921 20.62596959 51.86319848 17.56987424 73.875 17.625 C74.66660522 17.62521149 75.45821045 17.62542297 76.27380371 17.62564087 C97.17319509 17.68079335 118.28828875 19.64271287 138 27 C138.76070801 27.28359375 139.52141602 27.5671875 140.30517578 27.859375 C161.82699628 36.06644369 179.94333714 46.6609261 191.8125 67.125 C196.10763821 77.52375566 196.30254652 87.56958419 192 98 C181.50333886 119.5316126 160.74745837 130.97024201 139.00317383 138.53564453 C119.73403127 145 119.73403127 145 113 145 C113.00368717 145.83084044 113.00737434 146.66168087 113.01117325 147.51769829 C113.09961121 167.75827945 113.16575189 187.99882719 113.20724869 208.23956108 C113.22785097 218.02794215 113.25592688 227.81619404 113.30175781 237.60449219 C113.34169711 246.13857682 113.36744977 254.67256786 113.37635398 263.20674336 C113.38155673 267.72320147 113.39373623 272.23939191 113.42292023 276.75576401 C113.45020156 281.01243769 113.45841948 285.26873509 113.45243073 289.5254879 C113.4535253 291.08226381 113.46140327 292.63905316 113.4768219 294.1957531 C113.60175167 307.46719913 111.55726166 316.14871092 102.23046875 325.87109375 C95.24031085 332.54296075 87.62242067 335.49771793 78.01274109 335.31797791 C77.25004262 335.31615794 76.48734416 335.31433798 75.70153362 335.31246287 C73.16750705 335.30308015 70.63419566 335.27239905 68.1003418 335.24194336 C66.27467631 335.23130491 64.44900155 335.22216875 62.62332153 335.2144165 C58.70170333 335.1956898 54.78026347 335.16858817 50.85873985 335.13560295 C44.65076639 335.08568876 38.44296783 335.06835467 32.2348175 335.05799866 C30.1057195 335.0540485 27.97662156 335.05006088 25.84752369 335.04603672 C24.78155984 335.04403141 23.71559598 335.0420261 22.61733019 335.03996003 C8.17302088 335.00998499 -6.27074694 334.95219675 -20.71459961 334.83227539 C-30.47030528 334.75153944 -40.22517996 334.71364573 -49.98122662 334.72391611 C-55.1383122 334.72752692 -60.29321678 334.70913148 -65.4498539 334.63773918 C-70.30250942 334.57071874 -75.15210594 334.55992765 -80.00509262 334.59118652 C-81.77923674 334.59270656 -83.55354102 334.57388824 -85.32720375 334.53253365 C-95.58085698 334.12140565 -95.58085698 334.12140565 -104.41434383 338.60111713 C-107.26254985 341.49795639 -109.61493136 344.71468404 -112 348 C-113.46947143 349.58657864 -114.96140418 351.15315458 -116.48999023 352.68286133 C-117.1969957 353.40592972 -117.90400116 354.12899811 -118.63243103 354.87397766 C-121.74720425 358.03439674 -124.86496335 361.19174908 -127.9909668 364.34106445 C-129.63983689 366.00671778 -131.28329384 367.67774502 -132.92163086 369.35375977 C-135.30958699 371.79606819 -137.71320929 374.22188816 -140.12109375 376.64453125 C-140.85339706 377.39950394 -141.58570038 378.15447662 -142.3401947 378.93232727 C-143.02513504 379.61441757 -143.71007538 380.29650787 -144.41577148 380.99926758 C-145.01324692 381.60482986 -145.61072235 382.21039215 -146.2263031 382.83430481 C-148 384 -148 384 -150.16151428 383.75004578 C-152 383 -152 383 -153 382 C-153.66973618 372.31218835 -152.77193479 362.53388055 -152.0625 352.875 C-151.93234497 351.09633545 -151.93234497 351.09633545 -151.79956055 349.28173828 C-151.42489338 344.44323877 -151.0383265 339.7477221 -150 335 C-150.6798999 335.02094727 -151.3597998 335.04189453 -152.06030273 335.06347656 C-155.18588047 335.14739895 -158.31122016 335.1988991 -161.4375 335.25 C-162.50677734 335.28351563 -163.57605469 335.31703125 -164.67773438 335.3515625 C-175.29048061 335.48138203 -183.18272604 332.17408054 -191 325 C-198.53075437 316.63438825 -201.10229593 308.22857407 -201.15390015 297.01925659 C-201.1582824 296.34064359 -201.16266465 295.66203058 -201.1671797 294.96285355 C-201.18047431 292.70163244 -201.18672537 290.44045022 -201.19287109 288.17919922 C-201.20077943 286.5524834 -201.20904883 284.9257693 -201.21765137 283.29905701 C-201.24378655 277.96761735 -201.25917035 272.63617017 -201.2734375 267.3046875 C-201.27880065 265.46432618 -201.28417816 263.6239649 -201.28956985 261.78360367 C-201.31118595 254.12463243 -201.3299203 246.46566323 -201.34119225 238.80666924 C-201.35741851 227.85617596 -201.39057876 216.90603814 -201.44759309 205.95567882 C-201.48637861 198.24163375 -201.50583509 190.52768342 -201.51111281 182.81354344 C-201.51475441 178.21322969 -201.52664848 173.61329582 -201.55921555 169.01308823 C-201.58944837 164.68074195 -201.59555433 160.34900243 -201.58383179 156.01657295 C-201.58361232 154.43482886 -201.59181129 152.85305534 -201.60948563 151.27140999 C-201.75286314 137.69141115 -199.07660651 127.17042863 -189.41015625 117.1328125 C-183.01414048 111.47280503 -176.76562574 108.87203125 -168.27996826 108.87974548 C-167.11331635 108.87837082 -165.94666443 108.87699615 -164.74465942 108.87557983 C-163.46863861 108.87917511 -162.1926178 108.88277039 -160.87792969 108.88647461 C-159.51775108 108.88675675 -158.15757232 108.88659823 -156.7973938 108.8860321 C-153.10765235 108.88574517 -149.4179434 108.89162513 -145.7282095 108.89860606 C-141.87115582 108.90485687 -138.01410141 108.90544477 -134.15704346 108.90663147 C-126.85439702 108.90973968 -119.55176556 108.91794621 -112.24912572 108.92798096 C-103.93480386 108.93915791 -95.62048128 108.94465654 -87.30615377 108.94967639 C-70.20409386 108.96012924 -53.10204851 108.97771883 -36 109 C-36.61705811 108.00202393 -36.61705811 108.00202393 -37.24658203 106.98388672 C-37.78653809 106.09975098 -38.32649414 105.21561523 -38.8828125 104.3046875 C-39.68549561 102.99733643 -39.68549561 102.99733643 -40.50439453 101.66357422 C-45.65978127 92.48217212 -46.53033749 82.09949043 -43.9375 71.9375 C-40.02301417 60.64502014 -31.23170299 49.08185622 -20.7265625 43.15234375 C-17.67030489 41.19365311 -17.67030489 41.19365311 -17.15234375 37.53125 C-17.05966231 36.18878851 -16.98907762 34.84466816 -16.9375 33.5 C-15.80946908 19.95593439 -10.11198084 9.14599893 0 0 Z M-5 19 C-8.65685047 26.22865791 -9.49079395 32.79120285 -9.62890625 40.77734375 C-10 44 -10 44 -11.265625 45.7421875 C-11.83796875 46.15726563 -12.4103125 46.57234375 -13 47 C-13.65355469 47.50917969 -14.30710938 48.01835938 -14.98046875 48.54296875 C-15.70878906 49.08566406 -16.43710938 49.62835938 -17.1875 50.1875 C-26.2735727 57.21997253 -33.80326587 64.7132852 -37 76 C-38.26369947 87.4467661 -35.98856873 96.49293196 -29 105.625 C-7.16396295 130.62619551 29.35843353 138.54833046 61 141 C89.1470951 142.37059781 116.92269321 139.52785136 143.25 129.125 C144.2608667 128.72667969 145.2717334 128.32835937 146.31323242 127.91796875 C162.16971212 121.35142196 178.38218881 110.40011688 185.23828125 94.11328125 C188.2565973 85.73938903 187.92145993 77.44854593 184.2578125 69.33984375 C182.21233832 65.53475358 179.8293106 62.25799402 177 59 C176.15501953 58.01386719 176.15501953 58.01386719 175.29296875 57.0078125 C159.0145418 39.39284103 133.60502747 33.0812697 111.13671875 28.05078125 C110.33967529 27.87200439 109.54263184 27.69322754 108.72143555 27.5090332 C101.88052601 26.22946952 95.23882884 25.83124353 88.296875 25.796875 C87.37900208 25.79117493 86.46112915 25.78547485 85.51544189 25.77960205 C83.57573582 25.77019697 81.63601408 25.76363604 79.69628906 25.75976562 C76.79982603 25.75016515 73.90410633 25.71914268 71.0078125 25.6875 C54.67164681 25.59393223 38.87261089 27.33312856 23.0625 31.5625 C22.24072266 31.77068359 21.41894531 31.97886719 20.57226562 32.19335938 C16.57981294 33.22460829 12.81394176 34.41618433 9 36 C6.375 36.375 6.375 36.375 4 36 C1.00470783 32.82669305 0.01217666 29.38681606 -1.1875 25.25 C-1.53167969 24.07953125 -1.87585938 22.9090625 -2.23046875 21.703125 C-2.48441406 20.81109375 -2.73835938 19.9190625 -3 19 C-3.66 19 -4.32 19 -5 19 Z M-188 127 C-193.8935611 135.15244036 -193.71996577 143.81903317 -193.6628418 153.45849609 C-193.6712679 155.1055161 -193.68179872 156.75252646 -193.69425964 158.39952087 C-193.72119415 162.84811241 -193.71663685 167.29614047 -193.70455909 171.7447772 C-193.69740013 175.46969171 -193.70594594 179.19450384 -193.71446449 182.91941035 C-193.7343817 191.71296989 -193.72888807 200.50625736 -193.70678711 209.29980469 C-193.68443481 218.34659603 -193.70201594 227.39267334 -193.73983639 236.43939722 C-193.77115149 244.23001048 -193.77896163 252.02040366 -193.76788265 259.81107199 C-193.76142046 264.45379491 -193.76327779 269.09610631 -193.78720665 273.73878098 C-193.80857905 278.10747399 -193.80032615 282.47516656 -193.77011299 286.84379768 C-193.76382653 288.4384155 -193.76754649 290.03311233 -193.78252411 291.6276722 C-193.87472729 302.31804759 -192.65454668 311.70145528 -185.18070507 320.02649498 C-179.59389002 325.32951628 -173.3455122 327.34880875 -165.75390625 327.51171875 C-165.09792953 327.52966995 -164.44195282 327.54762115 -163.76609802 327.56611633 C-161.69829488 327.61972153 -159.63071562 327.65395093 -157.5625 327.6875 C-156.14905769 327.72071743 -154.73564477 327.75521111 -153.32226562 327.79101562 C-149.88172554 327.87541619 -146.44110634 327.94246279 -143 328 C-142.90567564 333.70138368 -142.92337413 339.22525631 -143.74169922 344.8828125 C-144.29262393 349.39852055 -144.38067103 353.95725648 -144.5625 358.5 C-144.60568359 359.51320313 -144.64886719 360.52640625 -144.69335938 361.5703125 C-144.79849192 364.0467679 -144.90063837 366.52330749 -145 369 C-138.51108233 363.6994597 -132.65519881 357.80716523 -126.74804688 351.87841797 C-125.00761581 350.13263921 -123.26191997 348.39225463 -121.515625 346.65234375 C-116.2429681 341.38175559 -111.04047037 336.12494553 -106.26953125 330.38623047 C-105 329 -105 329 -103 328 C-100.55378862 327.90329196 -98.13600708 327.86714887 -95.6895752 327.87542725 C-94.92721416 327.8740171 -94.16485312 327.87260695 -93.37939024 327.87115407 C-90.81085127 327.86748831 -88.24236707 327.87084314 -85.67382812 327.87402344 C-83.83756466 327.87262922 -82.00130153 327.87073026 -80.16503906 327.86836243 C-76.20247642 327.86385827 -72.23992415 327.86200918 -68.27735901 327.86190033 C-62.00710417 327.86076142 -55.73690842 327.84793231 -49.4666748 327.83233643 C-47.88000653 327.82847715 -47.88000653 327.82847715 -46.26128435 327.8245399 C-44.09772233 327.81927296 -41.93416035 327.81398748 -39.77059841 327.80868387 C-25.16932233 327.77357111 -10.56811866 327.74701867 4.03320312 327.74951172 C13.87631042 327.75110202 23.71921713 327.73502147 33.56226015 327.69880509 C38.77060866 327.680366 43.97862241 327.67098404 49.18699646 327.68328094 C54.09223629 327.69474884 58.99687809 327.68294088 63.90203857 327.65364647 C65.69744284 327.64702562 67.49290218 327.64883874 69.2882843 327.65994453 C79.80858364 327.71959315 89.01855332 327.59910291 97.12554169 320.01032639 C102.76705144 314.14038605 105.37993192 308.21778 105.36076355 300.08399963 C105.36332682 299.42465028 105.3658901 298.76530093 105.36853105 298.0859713 C105.37343733 295.89633233 105.35702956 293.70739674 105.34057617 291.51782227 C105.33972921 289.94045528 105.34020639 288.36308712 105.34190369 286.78572083 C105.34276237 282.51757201 105.32515718 278.24967751 105.30418181 273.98158765 C105.28539389 269.51597215 105.28366291 265.05035046 105.28010559 260.58470154 C105.27079134 252.1346288 105.24618595 243.68467287 105.21605712 235.23465151 C105.18249381 225.61195598 105.16602225 215.98925479 105.15097082 206.36651528 C105.11963584 186.57761172 105.0668874 166.78881323 105 147 C104.06730537 147.00999275 104.06730537 147.00999275 103.11576843 147.02018738 C96.54378524 147.08744052 89.97190236 147.13216645 83.3996582 147.16479492 C80.9588625 147.17972383 78.51809285 147.20007427 76.07739258 147.22631836 C57.36883665 147.42219936 39.82131567 146.360239 21.75 141.1875 C20.83089844 140.92888184 19.91179687 140.67026367 18.96484375 140.40380859 C5.74474419 136.58800713 -9.86714487 131.76650996 -20.03405666 122.0575676 C-27.10942391 115.4771675 -32.68720885 114.86359129 -42.11938477 115.02832031 C-43.51512065 115.02401947 -44.91084944 115.01625055 -46.30654907 115.00531006 C-50.06955578 114.98605418 -53.83064107 115.01635605 -57.5934155 115.05712223 C-61.546296 115.09248073 -65.49912673 115.08520991 -69.45213318 115.0836792 C-76.08714601 115.0874155 -82.72142334 115.12200994 -89.35620117 115.17675781 C-97.00901633 115.2396759 -104.66102751 115.26074876 -112.31408268 115.2578156 C-120.48929624 115.2551063 -128.66420315 115.28290799 -136.83932376 115.31960201 C-139.18324957 115.32809544 -141.52712537 115.33096234 -143.87106514 115.33255768 C-147.56419131 115.33659906 -151.25665229 115.36120617 -154.94955826 115.40122223 C-156.9384148 115.41832948 -158.92740791 115.41624902 -160.91633606 115.41345215 C-172.25193365 115.57445242 -180.27814071 118.58764085 -188 127 Z " fill="#FCF9FD" transform="translate(259,64)"/>
<path d="M0 0 C0.85241366 0.00223072 1.70482733 0.00446144 2.58307171 0.00675976 C3.48160209 0.00519977 4.38013247 0.00363978 5.30589104 0.00203252 C8.34076508 -0.00198153 11.3755898 0.00121372 14.41046429 0.00434887 C16.57644969 0.00299501 18.74243487 0.00121517 20.90841961 -0.00096118 C26.80907151 -0.00553732 32.70970602 -0.00374522 38.61035824 -0.0005821 C44.77053406 0.00194058 50.93070833 -0.00039578 57.09088421 -0.00196826 C67.43797353 -0.00379023 77.78505573 -0.00138294 88.13214397 0.00337231 C100.11376239 0.00881498 112.0953563 0.00705235 124.07697487 0.00154591 C134.34359381 -0.00298445 144.61020762 -0.00363615 154.87682724 -0.00101542 C161.01763024 0.00054778 167.15842522 0.00073994 173.29922771 -0.00255191 C179.07094785 -0.00542951 184.84264593 -0.003457 190.61436367 0.00234234 C192.73929463 0.00367054 194.86422743 0.00327482 196.98915768 0.00107968 C199.87677041 -0.00162949 202.76431129 0.00174642 205.65191936 0.00675976 C206.50433303 0.00452904 207.35674669 0.00229832 208.23499107 0 C214.00334571 0.01959358 214.00334571 0.01959358 215.11749554 1.13374341 C215.30499554 3.57124341 215.30499554 3.57124341 215.11749554 6.13374341 C212.51390821 8.73733073 210.7093449 8.37696087 207.16291809 8.40123022 C206.32188128 8.39676877 205.48084448 8.39230733 204.61432171 8.38771069 C203.27855351 8.39239066 203.27855351 8.39239066 201.91580009 8.39716518 C198.91395534 8.40518064 195.91231076 8.39880777 192.91046429 8.39253247 C190.76565717 8.39524076 188.62085098 8.39880077 186.47604656 8.40315259 C180.63735089 8.41229815 174.79872561 8.40872342 168.96002865 8.40239441 C162.86171809 8.39734561 156.76341374 8.40202274 150.66510296 8.40516675 C140.42233474 8.40880967 130.17959532 8.40399875 119.93683147 8.39448559 C108.07959688 8.38360043 96.22243106 8.38712578 84.36519814 8.3981384 C74.20129811 8.407202 64.03741884 8.40850111 53.87351608 8.40326107 C47.79584468 8.40013625 41.71820565 8.399746 35.64053631 8.40633404 C29.92787092 8.41209341 24.21529455 8.40813653 18.50263882 8.39654553 C16.40070398 8.39389138 14.29876171 8.39467681 12.1968298 8.39907086 C9.33800703 8.40449807 6.47947347 8.39772674 3.62066936 8.38771069 C2.35911416 8.39440286 2.35911416 8.39440286 1.07207298 8.40123022 C-4.65420442 8.36204345 -4.65420442 8.36204345 -6.88250446 6.13374341 C-7.07000446 3.57124341 -7.07000446 3.57124341 -6.88250446 1.13374341 C-5.04179358 -0.70696748 -2.44990688 0.00832169 0 0 Z " fill="#FBF7FC" transform="translate(111.8825044631958,238.8662565946579)"/>
<path d="M0 0 C4.95606817 2.21743777 8.13986694 5.52617869 10.60546875 10.3515625 C12.29936316 15.77422448 12.81182854 21.58124341 10.51171875 26.86328125 C7.550699 31.62768802 4.20757892 35.84099351 -1.39453125 37.3515625 C-7.28582675 38.05115384 -12.45490114 38.25210505 -17.89453125 35.7265625 C-26.75473556 27.30936841 -26.75473556 27.30936841 -27.73046875 21.2734375 C-27.83504731 15.45886956 -26.84026 11.10566941 -23.39453125 6.3515625 C-16.57037113 -0.63978194 -9.74260391 -2.63829078 0 0 Z " fill="#FBFAFE" transform="translate(396.39453125,128.6484375)"/>
<path d="M0 0 C5.70999504 2.43449401 9.27097461 6.74855145 11.640625 12.421875 C12.80250546 18.71390459 12.05687492 24.22427354 8.84765625 29.76953125 C6.20200563 33.39124715 2.74326103 35.73507691 -1.359375 37.421875 C-7.14794699 38.06504967 -12.52847668 38.27193493 -17.859375 35.796875 C-23.60619738 30.33739374 -26.84904124 26.01487884 -27.734375 18.046875 C-27.07053472 11.62975229 -24.58509831 7.21736528 -19.734375 2.984375 C-13.92094697 -1.67398327 -7.18487442 -1.76053214 0 0 Z " fill="#FBFAFD" transform="translate(341.359375,128.578125)"/>
<path d="M0 0 C4.66643291 2.69254137 7.90033466 6.20100399 9.625 11.375 C10.3506797 18.37262569 10.31112867 23.95937567 6.05859375 29.75390625 C2.42693285 33.86055277 -0.72717262 36.08884629 -6.23046875 36.68359375 C-13.00805233 36.94579804 -17.64595946 36.8187273 -22.78515625 32.125 C-28.19734892 26.16759873 -29.15394122 21.55573668 -28.88671875 13.5390625 C-27.95698347 7.79031763 -25.06107449 4.72030385 -20.8046875 1.00390625 C-14.73338475 -3.23427369 -6.58364301 -2.96201708 0 0 Z " fill="#FDFBFD" transform="translate(288.375,129.625)"/>
<path d="M0 0 C1.72900291 -0.00422974 1.72900291 -0.00422974 3.49293518 -0.00854492 C4.76882004 -0.00652069 6.0447049 -0.00449646 7.35925293 -0.00241089 C8.70751493 -0.00376492 10.05577655 -0.00554486 11.40403748 -0.00772095 C15.07542508 -0.01229509 18.74678471 -0.0105058 22.41817284 -0.00734186 C26.25208998 -0.00481816 30.08600465 -0.00715583 33.91992188 -0.00872803 C40.35950147 -0.01054969 46.79906961 -0.00814349 53.23864746 -0.00338745 C60.69414643 0.00205517 68.14961806 0.00029251 75.60511637 -0.00521386 C81.99491056 -0.00974507 88.3846965 -0.01039549 94.77449179 -0.00777519 C98.59580528 -0.00621246 102.4171059 -0.00601853 106.23841858 -0.00931168 C109.83016305 -0.01219051 113.42187212 -0.01021447 117.01361275 -0.00441742 C118.96837947 -0.00245429 120.92314918 -0.00544363 122.87791443 -0.00854492 C124.60691734 -0.00431519 124.60691734 -0.00431519 126.37084961 0 C127.88294636 0.00056554 127.88294636 0.00056554 129.42559052 0.0011425 C131.6854248 0.12698364 131.6854248 0.12698364 132.6854248 1.12698364 C132.8729248 3.56448364 132.8729248 3.56448364 132.6854248 6.12698364 C130.07183838 8.74057007 128.97549868 8.37817981 125.33325195 8.38095093 C123.62959724 8.3894104 123.62959724 8.3894104 121.89152527 8.39804077 C120.01349968 8.39196808 120.01349968 8.39196808 118.09753418 8.38577271 C116.78372269 8.38927734 115.46991119 8.39278198 114.11628723 8.39639282 C110.50684503 8.40553024 106.89751684 8.40196705 103.28807259 8.39563465 C99.5160198 8.39058163 95.74397698 8.39526415 91.97192383 8.39840698 C85.63666018 8.40204867 79.30144311 8.39724223 72.96618652 8.38772583 C65.6350581 8.37684087 58.3040409 8.38036631 50.97291517 8.39137864 C44.6858371 8.40044576 38.39879257 8.40173962 32.11171007 8.3965013 C28.35352282 8.39337842 24.5953879 8.39298093 20.83720398 8.39957428 C16.64917378 8.40640812 12.46133626 8.3969444 8.27331543 8.38577271 C7.02129837 8.38982117 5.76928131 8.39386963 4.47932434 8.39804077 C3.34355453 8.39240112 2.20778473 8.38676147 1.03759766 8.38095093 C0.04650246 8.38019688 -0.94459274 8.37944283 -1.96572113 8.37866592 C-4.3145752 8.12698364 -4.3145752 8.12698364 -6.3145752 6.12698364 C-6.5020752 3.56448364 -6.5020752 3.56448364 -6.3145752 1.12698364 C-4.59822182 -0.58936973 -2.34311053 0.00087635 0 0 Z " fill="#FBF7FC" transform="translate(111.3145751953125,281.8730163574219)"/>
<path d="M0 0 C1.23475571 -0.00315216 2.46951141 -0.00630432 3.74168396 -0.009552 C5.10000646 -0.00776202 6.45832864 -0.00571102 7.81665039 -0.00341797 C9.2004854 -0.00409113 10.5843203 -0.00506126 11.96815491 -0.00631714 C14.87266156 -0.00779403 17.77713753 -0.00564017 20.68164062 -0.00097656 C24.4087745 0.00471543 28.13583628 0.00144505 31.86296749 -0.00454903 C34.72221929 -0.0081594 37.58145395 -0.00701376 40.44070625 -0.00442123 C41.81505911 -0.00375301 43.18941352 -0.00457675 44.56376457 -0.00690079 C46.48391567 -0.00943448 48.4040722 -0.00488939 50.32421875 0 C51.96516762 0.00119339 51.96516762 0.00119339 53.63926697 0.00241089 C56.22680664 0.12939453 56.22680664 0.12939453 58.22680664 1.12939453 C58.35180664 3.50439453 58.35180664 3.50439453 58.22680664 6.12939453 C55.53909126 8.81710991 54.18893767 8.3826131 50.43188477 8.38818359 C49.21722534 8.39448792 48.00256592 8.40079224 46.75109863 8.4072876 C44.77454285 8.4012149 44.77454285 8.4012149 42.75805664 8.39501953 C41.39807058 8.3963663 40.03808499 8.39830692 38.67810059 8.40081787 C35.82661357 8.40376862 32.97525177 8.39947318 30.1237793 8.39013672 C26.46497887 8.37874207 22.80647185 8.38530183 19.14768219 8.39728165 C16.33902772 8.40450165 13.53044305 8.4022117 10.7217865 8.39702606 C8.71536062 8.39503914 6.70893204 8.40112316 4.70251465 8.4072876 C3.48785522 8.40098328 2.2731958 8.39467896 1.02172852 8.38818359 C-0.0514563 8.38659241 -1.12464111 8.38500122 -2.23034668 8.38336182 C-4.77319336 8.12939453 -4.77319336 8.12939453 -6.77319336 6.12939453 C-6.96069336 3.56689453 -6.96069336 3.56689453 -6.77319336 1.12939453 C-4.99608027 -0.64771856 -2.40390756 0.00174953 0 0 Z " fill="#FCF7FB" transform="translate(111.773193359375,324.87060546875)"/>
<path d="M0 0 C1.8569751 -0.00472824 1.8569751 -0.00472824 3.75146484 -0.009552 C5.11295609 -0.00776222 6.47444701 -0.00571127 7.8359375 -0.00341797 C9.22216814 -0.00409106 10.60839867 -0.00506113 11.99462891 -0.00631714 C14.90333172 -0.00779387 17.81200387 -0.00564037 20.72070312 -0.00097656 C24.45690348 0.00472073 28.19303202 0.00144159 31.92922974 -0.00454903 C34.79273016 -0.00815532 37.65621343 -0.00701574 40.51971436 -0.00442123 C41.89768482 -0.00375215 43.27565682 -0.00457973 44.65362549 -0.00690079 C46.57637504 -0.00942839 48.49913002 -0.0048957 50.421875 0 C52.06615479 0.00119339 52.06615479 0.00119339 53.74365234 0.00241089 C56.2109375 0.12939453 56.2109375 0.12939453 57.2109375 1.12939453 C57.3984375 3.56689453 57.3984375 3.56689453 57.2109375 6.12939453 C54.5436528 8.79667923 53.25017836 8.38773825 49.52368164 8.40405273 C47.73656517 8.41835075 47.73656517 8.41835075 45.91334534 8.43293762 C44.62065231 8.43202621 43.32795929 8.43111481 41.99609375 8.43017578 C40.66092291 8.43406164 39.32575331 8.43839609 37.99058533 8.44316101 C35.19037878 8.45062827 32.39029829 8.45032849 29.59008789 8.44506836 C26.00078908 8.43927474 22.41200646 8.45619893 18.82279301 8.47941303 C16.06470215 8.49414257 13.30673581 8.49502315 10.54861259 8.49190331 C8.58154404 8.49266687 6.61449482 8.50654817 4.6474762 8.52058411 C3.45291306 8.51435532 2.25834991 8.50812653 1.02758789 8.50170898 C-0.02561142 8.50233841 -1.07881073 8.50296783 -2.16392517 8.50361633 C-4.7890625 8.12939453 -4.7890625 8.12939453 -6.66822815 6.73893738 C-7.7890625 5.12939453 -7.7890625 5.12939453 -7.5390625 3.00439453 C-6.00320948 -0.83523801 -3.89330926 0.0028257 0 0 Z " fill="#FAF7FC" transform="translate(269.7890625,281.87060546875)"/>
<path d="M0 0 C4.32036821 2.28725376 7.05893629 4.47085134 9 9 C9.58496307 12.92760919 9.18285914 14.65459941 7.3125 18.1875 C4.20635319 21.96524611 1.93140988 23.71234321 -2.9375 24.4375 C-7.84987178 23.7357326 -10.83385818 21.47711298 -13.875 17.625 C-15.25784626 14.39835874 -15.49759088 12.48313618 -15 9 C-11.58746873 2.55410759 -7.52669289 -1.07524184 0 0 Z " fill="#AC78D3" transform="translate(282,135)"/>
<path d="M0 0 C3.6578218 2.03993908 5.66946174 3.50419262 8 7 C8.76768116 11.6864257 8.40885085 15.19690011 6.25 19.4375 C3.05740667 23.07350908 1.44197466 23.78234345 -3.3125 24.5 C-8.17756126 23.84033068 -10.83152337 21.67865507 -14 18 C-15.21762731 14.34711807 -15.39075851 11.84245864 -15 8 C-11.50851137 1.85498 -6.98824484 -0.83858938 0 0 Z " fill="#9279E1" transform="translate(392,135)"/>
<path d="M0 0 C3.6578218 2.03993908 5.66946174 3.50419262 8 7 C8.69920885 11.79689791 8.71482085 15.77459282 6.25 20 C3.13011459 22.77323148 1.28044213 23.83298581 -2.875 24.375 C-7.84247847 23.77890258 -10.81305828 21.50345952 -13.875 17.625 C-15.25784626 14.39835874 -15.49759088 12.48313618 -15 9 C-11.58746873 2.55410759 -7.52669289 -1.07524184 0 0 Z " fill="#9F78DA" transform="translate(337,135)"/>
</svg>
