<?xml version="1.0" encoding="UTF-8"?>
<svg version="1.1" xmlns="http://www.w3.org/2000/svg" width="1024" height="1024">
<path d="M0 0 C5.02002197 0.03284638 9.0922639 0.59325463 13.875 2.1875 C15.06867188 2.28160156 16.26234375 2.37570313 17.4921875 2.47265625 C22.625579 3.07959152 26.69368162 5.23702935 31.1875 7.6875 C32.4403479 8.36462036 32.4403479 8.36462036 33.71850586 9.05541992 C50.38451804 18.28843919 63.92384323 32.86609878 69.55517578 51.4296875 C72.875 63.70004317 72.875 63.70004317 72.875 68.1875 C73.535 68.5175 74.195 68.8475 74.875 69.1875 C74.545 70.1775 74.215 71.1675 73.875 72.1875 C73.545 72.1875 73.215 72.1875 72.875 72.1875 C72.78863281 73.02410156 72.70226562 73.86070312 72.61328125 74.72265625 C70.87840446 89.09507588 66.40844463 101.07065211 59.05859375 113.43359375 C53.36471288 122.67323026 53.36471288 122.67323026 52.875 133.1875 C54.54863835 138.82556921 57.33406695 142.19561305 62.35755157 145.16562653 C67.47034659 147.24099361 72.85511666 146.87557935 78.29589844 146.83105469 C79.64033749 146.83788026 80.98476687 146.84690782 82.32917786 146.85795593 C85.95921643 146.88173752 89.58863769 146.87527591 93.2187109 146.86346722 C97.02456659 146.85659312 100.83025018 146.87875486 104.63604736 146.89801025 C111.83821053 146.93025233 119.04017332 146.93812793 126.24240041 146.93643594 C136.81932115 146.93497325 147.39614396 146.96851947 157.97299576 147.00416946 C159.5342636 147.00939454 161.09553145 147.01461689 162.65679932 147.01983643 C163.80009811 147.02374386 163.80009811 147.02374386 164.96649384 147.02773023 C169.49474243 147.04235916 174.02292196 147.04931307 178.55119371 147.04948473 C181.36477446 147.05013163 184.17834252 147.05448021 186.99191856 147.05945778 C188.91860783 147.06146806 190.8453003 147.05838641 192.77198792 147.05516052 C193.9186644 147.05772354 195.06534088 147.06028656 196.24676514 147.06292725 C197.24297253 147.0628857 198.23917992 147.06284416 199.26557541 147.06280136 C203.34615126 147.25780307 205.44003403 147.89752268 208.875 150.1875 C209.865 150.47625 210.855 150.765 211.875 151.0625 C215.20949092 152.3129341 215.97318857 153.28950163 217.875 156.1875 C218.865 156.8475 219.855 157.5075 220.875 158.1875 C230.47434674 172.3056232 229.17409439 190.15035805 229.10546875 206.5 C229.10427284 208.40852833 229.10382465 210.31705725 229.1040802 212.22558594 C229.10252951 216.19225845 229.09434526 220.1588389 229.08081055 224.12548828 C229.06372952 229.19344008 229.05999974 234.26129218 229.06075573 239.32926941 C229.06048327 243.25674377 229.05499128 247.18419663 229.04775429 251.11166382 C229.04458915 252.98066038 229.04260529 254.84965935 229.04186058 256.71865845 C229.03967923 259.3281059 229.03089929 261.93745 229.02026367 264.546875 C229.02094345 265.68629799 229.02094345 265.68629799 229.02163696 266.84873962 C228.99285887 271.70632484 228.5575627 276.37686819 227.875 281.1875 C221.955845 282.9133584 216.88651912 283.37932538 210.75 283.1875 C202.57855048 283.04623931 194.93252392 283.71532597 186.875 285.1875 C186.875 285.8475 186.875 286.5075 186.875 287.1875 C184.895 287.5175 182.915 287.8475 180.875 288.1875 C180.545 287.5275 180.215 286.8675 179.875 286.1875 C155.94929494 292.47253425 131.77433356 301.28816644 113.875 319.1875 C112.39 320.3940625 112.39 320.3940625 110.875 321.625 C92.67322993 337.26949659 79.41690063 358.98452176 70.6875 381.125 C70.39584961 381.86403564 70.10419922 382.60307129 69.80371094 383.36450195 C68.39429545 387.13947126 67.77914795 390.18383379 67.875 394.1875 C67.215 394.8475 66.555 395.5075 65.875 396.1875 C65.10358247 399.0893558 64.45112011 401.93315175 63.875 404.875 C63.70129883 405.75406006 63.52759766 406.63312012 63.34863281 407.53881836 C57.01787534 441.3691748 57.91927194 480.66128661 72.875 512.1875 C73.32488281 513.20328125 73.77476562 514.2190625 74.23828125 515.265625 C77.60576293 522.512825 81.95536559 528.77263808 86.703125 535.15625 C88.37158631 537.48489385 89.72583151 539.5827181 90.875 542.1875 C91.535 542.1875 92.195 542.1875 92.875 542.1875 C92.875 542.8475 92.875 543.5075 92.875 544.1875 C93.431875 544.39375 93.98875 544.6 94.5625 544.8125 C100.76363563 548.49966172 102.61359243 553.53979651 104.39453125 560.2109375 C104.55308594 560.86320313 104.71164062 561.51546875 104.875 562.1875 C104.215 562.8475 103.555 563.5075 102.875 564.1875 C102.25625 565.30125 101.6375 566.415 101 567.5625 C98.98801568 571.13936101 97.02741248 574.49317339 92.9375 575.8125 C92.256875 575.93625 91.57625 576.06 90.875 576.1875 C90.1545752 576.51251495 89.43415039 576.83752991 88.69189453 577.1723938 C75.10313615 582.06928743 56.23104199 579.3325254 42 579.3203125 C40.00812391 579.32119828 38.01624779 579.32209117 36.02437198 579.32346261 C27.390447 579.3293538 18.75654912 579.32327559 10.12262821 579.31463432 C7.12421459 579.31178706 4.12580062 579.30963697 1.12738645 579.30746174 C-19.23572201 579.29237404 -39.59874436 579.25436109 -59.96179497 579.2044611 C-65.50785265 579.19099404 -71.05391214 579.17938342 -76.59997559 579.1685791 C-93.28453847 579.13541894 -109.96889355 579.08761991 -126.65327072 579.00038338 C-128.09127544 578.99289408 -129.52928026 578.98542165 -130.96728516 578.97796631 C-131.67421108 578.97429814 -132.38113699 578.97062997 -133.10948491 578.96685064 C-138.07119367 578.94209673 -143.03287107 578.92741559 -147.99462891 578.91705322 C-154.66388309 578.9029603 -161.33271504 578.86818736 -168.00181961 578.81931686 C-170.44036355 578.80456255 -172.87895842 578.7964562 -175.31754684 578.79558182 C-178.64749286 578.79322737 -181.97638826 578.76635231 -185.30615234 578.73339844 C-186.74155869 578.74094493 -186.74155869 578.74094493 -188.20596313 578.74864388 C-196.61462993 578.61898586 -203.99562582 576.6972949 -210 570.5625 C-210.51304687 569.97210937 -211.02609375 569.38171875 -211.5546875 568.7734375 C-213.273914 567.03710427 -214.8987888 566.16086507 -217.125 565.1875 C-217.125 564.1975 -217.125 563.2075 -217.125 562.1875 C-217.785 561.8575 -218.445 561.5275 -219.125 561.1875 C-218.97160156 560.66671875 -218.81820312 560.1459375 -218.66015625 559.609375 C-217.98517489 556.55471485 -217.78088882 553.55734029 -217.5625 550.4375 C-217.47871094 549.26703125 -217.39492187 548.0965625 -217.30859375 546.890625 C-217.24800781 545.99859375 -217.18742188 545.1065625 -217.125 544.1875 C-217.785 544.1875 -218.445 544.1875 -219.125 544.1875 C-219.125 531.3175 -219.125 518.4475 -219.125 505.1875 C-218.795 505.1875 -218.465 505.1875 -218.125 505.1875 C-218.125 494.2975 -218.125 483.4075 -218.125 472.1875 C-218.455 472.1875 -218.785 472.1875 -219.125 472.1875 C-219.17902274 470.08361431 -219.21780256 467.97933286 -219.25 465.875 C-219.27320313 464.70324219 -219.29640625 463.53148437 -219.3203125 462.32421875 C-219.125 459.1875 -219.125 459.1875 -217.125 456.1875 C-217.785 456.1875 -218.445 456.1875 -219.125 456.1875 C-219.125 454.5375 -219.125 452.8875 -219.125 451.1875 C-218.795 451.1875 -218.465 451.1875 -218.125 451.1875 C-217.795 447.5575 -217.465 443.9275 -217.125 440.1875 C-217.785 440.1875 -218.445 440.1875 -219.125 440.1875 C-219.20726668 437.14363276 -219.10108217 435.11574652 -218.125 432.1875 C-217.97310346 430.10595485 -217.85180583 428.02209549 -217.75 425.9375 C-217.19325179 418.22867859 -215.56021071 412.94242899 -210.125 407.1875 C-205.56956161 403.32227955 -199.9109474 402.93522944 -194.125 403.1875 C-187.94140334 404.81136625 -183.02408729 409.240533 -179.125 414.1875 C-179.125 414.8475 -179.125 415.5075 -179.125 416.1875 C-178.073125 416.55875 -178.073125 416.55875 -177 416.9375 C-174.125 418.1875 -174.125 418.1875 -171.5 420.0625 C-158.55325788 428.21415245 -141.50165897 429.74749298 -126.7265625 426.69140625 C-110.19330438 422.38419823 -96.75670633 412.80157561 -87.4375 398.5625 C-84.39014841 393.24406953 -82.67609039 388.29082607 -82.125 382.1875 C-81.135 382.1875 -80.145 382.1875 -79.125 382.1875 C-76.60189837 358.89386532 -80.82876487 340.09686066 -95.32006836 321.51220703 C-98.60944897 317.50945911 -102.24277762 314.37171772 -106.5078125 311.45703125 C-107.04148437 311.03808594 -107.57515625 310.61914062 -108.125 310.1875 C-108.125 309.5275 -108.125 308.8675 -108.125 308.1875 C-108.80433594 307.93355469 -109.48367188 307.67960937 -110.18359375 307.41796875 C-114.27063654 305.70824965 -118.1531118 303.60830211 -122.04101562 301.49023438 C-125.61288487 299.60703954 -125.61288487 299.60703954 -129.55859375 299.48046875 C-130.07550781 299.71378906 -130.59242188 299.94710938 -131.125 300.1875 C-131.455 299.5275 -131.785 298.8675 -132.125 298.1875 C-143.07387915 294.53787362 -156.52874161 295.78482926 -167.125 300.1875 C-167.8571875 300.49171875 -168.589375 300.7959375 -169.34375 301.109375 C-174.9541783 303.83556903 -178.85942264 307.8282892 -183.09375 312.29638672 C-186.91514658 316.22708172 -189.84912075 317.89167001 -195.125 319.1875 C-196.45847107 319.52028188 -197.7918392 319.85347729 -199.125 320.1875 C-199.125 319.5275 -199.125 318.8675 -199.125 318.1875 C-200.135625 318.14625 -201.14625 318.105 -202.1875 318.0625 C-206.92489534 317.3802382 -210.08267222 314.77955532 -213.125 311.1875 C-216.89242929 305.48075892 -216.57243485 299.98901919 -216.57324219 293.38989258 C-216.58504013 292.20699646 -216.59683807 291.02410034 -216.60899353 289.80535889 C-216.63817738 286.57155485 -216.65422352 283.33801602 -216.66404247 280.10410523 C-216.67720026 276.70724346 -216.70634067 273.31051579 -216.73345947 269.91374207 C-216.77672512 264.20513645 -216.80884867 258.49655672 -216.83349609 252.7878418 C-216.8619437 246.21222131 -216.90416757 239.63681125 -216.95473552 233.06132585 C-217.00876395 226.03405455 -217.05446195 219.00674935 -217.09677219 211.97939849 C-217.10930454 209.96833728 -217.12315621 207.95728852 -217.13722992 205.94623756 C-217.16185553 202.17485568 -217.17918048 198.40351049 -217.19433594 194.63208008 C-217.20256882 193.53091354 -217.2108017 192.42974701 -217.21928406 191.29521179 C-217.25195622 178.71223032 -217.06492811 167.27867786 -208.453125 157.23828125 C-202.35981254 151.69001279 -194.98483337 148.27118364 -186.75408936 147.87329102 C-185.46825895 147.81080421 -185.46825895 147.81080421 -184.15645218 147.74705505 C-183.23180538 147.70806595 -182.30715858 147.66907684 -181.35449219 147.62890625 C-180.3805891 147.58665421 -179.40668602 147.54440216 -178.40327072 147.50086975 C-168.46296219 147.10552144 -158.53173556 147.07172807 -148.58499908 147.11233521 C-145.35440926 147.12539919 -142.12386166 147.13168727 -138.89324951 147.13647461 C-132.05381357 147.14774087 -125.21441375 147.1670256 -118.375 147.1875 C-110.39511109 147.21122807 -102.41524164 147.23153185 -94.43532562 147.24343872 C-91.2702716 147.24986369 -88.10528031 147.26235844 -84.94024658 147.27514648 C-82.99043836 147.27878048 -81.04062958 147.28213203 -79.09082031 147.28515625 C-78.22626221 147.29032257 -77.3617041 147.29548889 -76.47094727 147.30081177 C-67.74426558 147.34209728 -67.74426558 147.34209728 -59.125 146.1875 C-58.795 145.5275 -58.465 144.8675 -58.125 144.1875 C-57.320625 143.754375 -56.51625 143.32125 -55.6875 142.875 C-52.59169312 140.83629791 -52.0155925 139.74986999 -51.125 136.1875 C-51.08407063 133.85452567 -51.08258277 131.52044775 -51.125 129.1875 C-50.82529297 128.22070312 -50.82529297 128.22070312 -50.51953125 127.234375 C-50.00531043 124.56653628 -50.63841221 123.38804816 -51.875 121 C-52.22046875 120.30519531 -52.5659375 119.61039062 -52.921875 118.89453125 C-54.09842206 116.86677066 -54.09842206 116.86677066 -57.125 116.1875 C-57.48986904 114.86244926 -57.8133965 113.52607841 -58.125 112.1875 C-59.38429426 109.78749973 -60.67252714 107.42380161 -62 105.0625 C-65.18817889 99.26767396 -67.65888018 93.67813462 -69.125 87.1875 C-70.115 87.6825 -70.115 87.6825 -71.125 88.1875 C-71.455 86.2075 -71.785 84.2275 -72.125 82.1875 C-71.465 82.1875 -70.805 82.1875 -70.125 82.1875 C-70.20878906 81.39988281 -70.29257812 80.61226563 -70.37890625 79.80078125 C-71.12821141 71.78606146 -70.97603996 64.18727561 -70.125 56.1875 C-69.465 56.1875 -68.805 56.1875 -68.125 56.1875 C-68.03476562 55.52105469 -67.94453125 54.85460937 -67.8515625 54.16796875 C-66.91855584 50.34063496 -65.27209197 46.99296264 -63.5 43.5 C-63.14534668 42.79681641 -62.79069336 42.09363281 -62.42529297 41.36914062 C-59.50045105 35.68867327 -56.39137296 29.9842869 -52.125 25.1875 C-51.465 25.1875 -50.805 25.1875 -50.125 25.1875 C-49.91230469 24.62675781 -49.69960938 24.06601563 -49.48046875 23.48828125 C-43.32827513 13.0455088 -27.46220799 6.22896136 -16.3203125 3.12890625 C-14.06806852 2.61389641 -11.80790616 2.13141627 -9.5390625 1.6953125 C-1.52098379 0.00866164 -1.52098379 0.00866164 0 0 Z M-81.125 383.1875 C-80.125 385.1875 -80.125 385.1875 -80.125 385.1875 Z M-82.125 385.1875 C-81.125 387.1875 -81.125 387.1875 -81.125 387.1875 Z M-218.125 464.1875 C-217.125 468.1875 -217.125 468.1875 -217.125 468.1875 Z M-218.125 513.1875 C-217.125 516.1875 -217.125 516.1875 -217.125 516.1875 Z M-218.125 517.1875 C-218.125 522.1375 -218.125 527.0875 -218.125 532.1875 C-217.795 532.1875 -217.465 532.1875 -217.125 532.1875 C-217.125 527.2375 -217.125 522.2875 -217.125 517.1875 C-217.455 517.1875 -217.785 517.1875 -218.125 517.1875 Z M-218.125 533.1875 C-218.125 536.4875 -218.125 539.7875 -218.125 543.1875 C-217.795 543.1875 -217.465 543.1875 -217.125 543.1875 C-217.125 539.8875 -217.125 536.5875 -217.125 533.1875 C-217.455 533.1875 -217.785 533.1875 -218.125 533.1875 Z M-217.125 557.1875 C-216.125 561.1875 -216.125 561.1875 -216.125 561.1875 Z M-216.125 561.1875 C-215.795 562.5075 -215.465 563.8275 -215.125 565.1875 C-214.795 564.5275 -214.465 563.8675 -214.125 563.1875 C-214.785 562.5275 -215.445 561.8675 -216.125 561.1875 Z " fill="#FDFEFD" transform="translate(451.125,191.8125)"/>
<path d="M0 0 C5.93713334 4.56786827 7.65250805 9.65623436 9.8046875 16.62890625 C10.46118807 18.34939049 11.14668016 20.05922982 11.8671875 21.75390625 C12.31771484 22.84058594 12.31771484 22.84058594 12.77734375 23.94921875 C13.76836576 25.97474878 13.76836576 25.97474878 16.8046875 26.62890625 C17.11921875 27.263125 17.43375 27.89734375 17.7578125 28.55078125 C19.57915905 32.16629008 23.11897644 33.31843121 26.8046875 34.62890625 C30.14045097 34.9669323 30.14045097 34.9669323 32.8046875 34.62890625 C33.1346875 33.96890625 33.4646875 33.30890625 33.8046875 32.62890625 C35.64653492 32.28411241 37.50538154 32.02845173 39.3671875 31.81640625 C44.50593599 31.05443287 47.84379548 29.7855326 52.046875 26.8046875 C54.4682582 25.18505118 57.01269911 24.39670306 59.8046875 23.62890625 C59.8046875 23.29890625 59.8046875 22.96890625 59.8046875 22.62890625 C61.7846875 22.62890625 63.7646875 22.62890625 65.8046875 22.62890625 C65.8046875 23.28890625 65.8046875 23.94890625 65.8046875 24.62890625 C67.1659375 25.27859375 67.1659375 25.27859375 68.5546875 25.94140625 C71.24602507 27.33883153 73.43668952 28.76833641 75.8046875 30.62890625 C76.4646875 30.95890625 77.1246875 31.28890625 77.8046875 31.62890625 C78.77277178 32.68499819 79.70618181 33.77320014 80.6171875 34.87890625 C82.5072102 37.13771387 84.37775505 39.18864665 86.4921875 41.25390625 C90.42100478 45.28890778 92.58106182 48.92645131 92.8046875 54.62890625 C90.89543912 62.98186792 85.70521038 68.72838337 79.8046875 74.62890625 C77.46801924 81.63891104 78.51102778 88.94894055 80.7578125 95.8515625 C82.09908747 98.12872709 83.40623863 98.60490056 85.8046875 99.62890625 C86.6915625 100.28890625 87.5784375 100.94890625 88.4921875 101.62890625 C93.79325391 104.82955012 99.60600641 106.02882116 105.8046875 105.62890625 C105.8046875 106.28890625 105.8046875 106.94890625 105.8046875 107.62890625 C106.6709375 107.81453125 107.5371875 108.00015625 108.4296875 108.19140625 C113.64049557 110.4108245 116.51260316 113.78341715 118.84765625 118.92578125 C120.96316534 125.16305688 121.14016974 131.0932153 120.8046875 137.62890625 C120.1446875 137.62890625 119.4846875 137.62890625 118.8046875 137.62890625 C118.7221875 138.33015625 118.6396875 139.03140625 118.5546875 139.75390625 C117.19673484 144.95939146 113.91770437 149.23382218 109.8046875 152.62890625 C107.03497927 153.73481666 104.19355479 154.46305855 101.3046875 155.19140625 C94.48429018 156.76234035 94.48429018 156.76234035 88.8046875 160.62890625 C88.4746875 161.61890625 88.1446875 162.60890625 87.8046875 163.62890625 C86.47135417 163.96223958 85.13802083 164.29557292 83.8046875 164.62890625 C79.57672107 169.39189313 79.1358935 175.55980463 79.3515625 181.66015625 C80.27034259 187.67974991 83.13043124 191.99451323 87.4296875 196.19140625 C91.04259767 199.89939301 92.68225665 203.73953829 92.90234375 208.93359375 C92.28555415 217.86952113 86.88141312 222.77758445 80.828125 228.87109375 C78.8046875 230.62890625 78.8046875 230.62890625 76.8046875 230.62890625 C76.4746875 231.61890625 76.1446875 232.60890625 75.8046875 233.62890625 C75.1446875 233.62890625 74.4846875 233.62890625 73.8046875 233.62890625 C73.56105469 234.25152344 73.31742188 234.87414062 73.06640625 235.515625 C71.12315626 238.77041833 68.68289549 239.13156783 65.171875 240.15234375 C58.60755232 241.47387406 53.33237908 238.85640373 47.8046875 235.62890625 C45.52996062 234.07251417 43.7526167 232.57683545 41.8046875 230.62890625 C38.22414095 229.5581539 38.22414095 229.5581539 34.8046875 230.62890625 C34.4746875 229.63890625 34.1446875 228.64890625 33.8046875 227.62890625 C27.2371295 227.08160975 22.21470352 227.6599862 16.8046875 231.62890625 C11.53570503 236.55018936 10.50766782 242.68304102 9.8046875 249.62890625 C9.8046875 250.76328125 9.8046875 251.89765625 9.8046875 253.06640625 C9.8046875 255.8805686 9.14151864 257.2058998 7.8046875 259.62890625 C7.8046875 260.61890625 7.8046875 261.60890625 7.8046875 262.62890625 C6.8146875 262.95890625 5.8246875 263.28890625 4.8046875 263.62890625 C4.2684375 264.57765625 3.7321875 265.52640625 3.1796875 266.50390625 C-0.4521468 271.2826356 -4.78643409 272.04842946 -10.53515625 273.02734375 C-15.0990636 273.60465853 -19.59998161 273.72667925 -24.1953125 273.62890625 C-24.1953125 272.96890625 -24.1953125 272.30890625 -24.1953125 271.62890625 C-24.9996875 271.62890625 -25.8040625 271.62890625 -26.6328125 271.62890625 C-32.47653457 269.98856321 -37.32131644 265.77580529 -40.4375 260.54296875 C-41.2578125 258.62890625 -41.2578125 258.62890625 -42.1953125 255.62890625 C-42.5253125 256.61890625 -42.8553125 257.60890625 -43.1953125 258.62890625 C-43.1953125 257.96890625 -43.1953125 257.30890625 -43.1953125 256.62890625 C-43.8553125 256.29890625 -44.5153125 255.96890625 -45.1953125 255.62890625 C-45.07671875 254.61570312 -44.958125 253.6025 -44.8359375 252.55859375 C-44.70454672 251.20714569 -44.57440454 249.85557583 -44.4453125 248.50390625 C-44.32349609 247.50617188 -44.32349609 247.50617188 -44.19921875 246.48828125 C-43.8581258 242.6225611 -44.20151046 240.61686065 -45.9921875 237.13671875 C-46.71921875 236.30914063 -47.44625 235.4815625 -48.1953125 234.62890625 C-49.1853125 234.62890625 -50.1753125 234.62890625 -51.1953125 234.62890625 C-51.1953125 233.96890625 -51.1953125 233.30890625 -51.1953125 232.62890625 C-51.8553125 232.62890625 -52.5153125 232.62890625 -53.1953125 232.62890625 C-53.1953125 231.63890625 -53.1953125 230.64890625 -53.1953125 229.62890625 C-53.8140625 229.81453125 -54.4328125 230.00015625 -55.0703125 230.19140625 C-57.1953125 230.62890625 -57.1953125 230.62890625 -59.1953125 229.62890625 C-59.1953125 228.63890625 -59.1953125 227.64890625 -59.1953125 226.62890625 C-63.1553125 226.95890625 -67.1153125 227.28890625 -71.1953125 227.62890625 C-70.8653125 228.28890625 -70.5353125 228.94890625 -70.1953125 229.62890625 C-73.1953125 230.62890625 -73.1953125 230.62890625 -77.1953125 230.62890625 C-78.88465172 232.27258765 -80.54791174 233.94319385 -82.1953125 235.62890625 C-85.88023787 238.22661265 -88.56279746 239.62890625 -93.1953125 239.62890625 C-93.5253125 240.28890625 -93.8553125 240.94890625 -94.1953125 241.62890625 C-95.56816406 241.17837891 -95.56816406 241.17837891 -96.96875 240.71875 C-98.15726563 240.33847656 -99.34578125 239.95820312 -100.5703125 239.56640625 C-101.75367188 239.18355469 -102.93703125 238.80070313 -104.15625 238.40625 C-107.08874456 237.30274339 -107.08874456 237.30274339 -109.1953125 238.62890625 C-109.40285156 237.76265625 -109.61039063 236.89640625 -109.82421875 236.00390625 C-111.52586681 231.8152341 -113.84566653 229.63072326 -117.1328125 226.62890625 C-121.7186518 222.4110325 -125.67835319 218.6107238 -126.5234375 212.1015625 C-126.49765625 211.30621094 -126.471875 210.51085937 -126.4453125 209.69140625 C-126.41953125 208.83933594 -126.39375 207.98726562 -126.3671875 207.109375 C-126.14504695 203.903483 -125.74589547 200.7947583 -125.1953125 197.62890625 C-124.2053125 197.62890625 -123.2153125 197.62890625 -122.1953125 197.62890625 C-119.84936478 194.42443209 -119.84936478 194.42443209 -119.1953125 190.62890625 C-118.23625 190.22671875 -118.23625 190.22671875 -117.2578125 189.81640625 C-114.86399564 188.74222873 -114.86399564 188.74222873 -114.1953125 185.62890625 C-113.57467574 177.53010529 -113.33633039 171.31000665 -118.1953125 164.62890625 C-118.1953125 163.96890625 -118.1953125 163.30890625 -118.1953125 162.62890625 C-119.030625 162.22671875 -119.030625 162.22671875 -119.8828125 161.81640625 C-122.1953125 160.62890625 -122.1953125 160.62890625 -124.7578125 159.00390625 C-127.16437229 157.38324566 -127.16437229 157.38324566 -130.1953125 157.62890625 C-130.7934375 157.31953125 -131.3915625 157.01015625 -132.0078125 156.69140625 C-135.47240598 155.0086037 -138.76723305 154.36583898 -142.5703125 155.06640625 C-143.1065625 155.25203125 -143.6428125 155.43765625 -144.1953125 155.62890625 C-144.1953125 154.63890625 -144.1953125 153.64890625 -144.1953125 152.62890625 C-145.85379427 151.61538961 -147.52197211 150.6176983 -149.1953125 149.62890625 C-151.8402855 146.76351883 -153.61725441 144.53079835 -154.1953125 140.62890625 C-154.8553125 140.95890625 -155.5153125 141.28890625 -156.1953125 141.62890625 C-156.7578125 139.69140625 -156.7578125 139.69140625 -157.1953125 137.62890625 C-156.8653125 137.29890625 -156.5353125 136.96890625 -156.1953125 136.62890625 C-156.02009932 134.73744829 -155.84903828 132.84549029 -155.70166016 130.95166016 C-154.94008259 121.82615768 -153.4119721 115.11482754 -146.1875 108.90234375 C-144.1953125 107.62890625 -144.1953125 107.62890625 -141.1953125 107.62890625 C-140.8653125 106.96890625 -140.5353125 106.30890625 -140.1953125 105.62890625 C-138.5453125 105.95890625 -136.8953125 106.28890625 -135.1953125 106.62890625 C-135.5253125 105.30890625 -135.8553125 103.98890625 -136.1953125 102.62890625 C-134.1953125 103.29557292 -132.1953125 103.96223958 -130.1953125 104.62890625 C-124.09166277 102.85897797 -119.61950875 98.87425146 -116.1953125 93.62890625 C-113.19320087 87.51158974 -112.84443985 79.78597313 -114.953125 73.296875 C-116.32116772 70.73852739 -117.51896583 68.9393388 -120.1953125 67.7109375 C-123.96755945 65.67009296 -124.96401208 61.54896474 -126.1953125 57.62890625 C-127.12447105 52.57428372 -126.1273484 48.90597198 -123.49267578 44.50195312 C-121.15420085 41.12581845 -118.30694364 38.30924396 -115.3828125 35.44140625 C-114.49625977 34.53745117 -114.49625977 34.53745117 -113.59179688 33.61523438 C-109.28353957 29.33516632 -104.83974995 25.2381757 -98.6484375 24.203125 C-97.92140625 24.24050781 -97.194375 24.27789063 -96.4453125 24.31640625 C-95.70796875 24.34089844 -94.970625 24.36539063 -94.2109375 24.390625 C-92.1953125 24.62890625 -92.1953125 24.62890625 -89.1953125 25.62890625 C-88.5353125 24.96890625 -87.8753125 24.30890625 -87.1953125 23.62890625 C-86.83759766 24.76585937 -86.83759766 24.76585937 -86.47265625 25.92578125 C-84.21155126 30.7107496 -79.9084605 32.57943037 -75.1953125 34.62890625 C-67.90125625 36.50156466 -61.01206895 35.83969733 -54.1953125 32.62890625 C-51.27740725 30.37848655 -51.27740725 30.37848655 -49.1953125 27.62890625 C-48.54175781 26.90445313 -47.88820313 26.18 -47.21484375 25.43359375 C-44.47993902 21.63540884 -43.43562985 17.60037025 -42.21679688 13.15625 C-40.79935061 8.43142913 -38.86556662 5.87184211 -35.1953125 2.62890625 C-34.3290625 1.57703125 -34.3290625 1.57703125 -33.4453125 0.50390625 C-24.25277842 -7.15653882 -9.69514802 -6.05515472 0 0 Z M37.8046875 33.62890625 C37.1446875 34.28890625 36.4846875 34.94890625 35.8046875 35.62890625 C37.4546875 35.29890625 39.1046875 34.96890625 40.8046875 34.62890625 C39.8146875 34.29890625 38.8246875 33.96890625 37.8046875 33.62890625 Z M-45.1953125 92.62890625 C-46.2265625 93.43328125 -47.2578125 94.23765625 -48.3203125 95.06640625 C-58.22794936 103.65437836 -63.64590919 115.75363835 -65.1328125 128.69140625 C-65.72529442 142.63324634 -62.03683757 154.28903529 -52.9453125 164.94140625 C-43.55632351 174.70658177 -32.5288011 180.74038767 -18.8359375 181.66796875 C-10.88739413 181.55038675 -3.28723132 180.25031161 3.8046875 176.62890625 C4.43761719 176.32984375 5.07054687 176.03078125 5.72265625 175.72265625 C18.23340488 169.15040556 26.34005201 157.51257794 30.55078125 144.28515625 C34.25950414 129.75719349 30.1440967 116.319968 22.8046875 103.62890625 C21.3471645 101.33558638 21.3471645 101.33558638 19.8046875 99.62890625 C19.1446875 99.62890625 18.4846875 99.62890625 17.8046875 99.62890625 C17.56105469 99.04238281 17.31742188 98.45585938 17.06640625 97.8515625 C13.56489185 91.68326004 6.28334445 87.95144365 -0.1953125 85.62890625 C-1.1853125 85.23703125 -2.1753125 84.84515625 -3.1953125 84.44140625 C-6.64564249 83.50694188 -9.63428155 83.49452772 -13.1953125 83.62890625 C-14.52864583 83.62890625 -15.86197917 83.62890625 -17.1953125 83.62890625 C-17.1953125 83.29890625 -17.1953125 82.96890625 -17.1953125 82.62890625 C-27.24356718 81.69418488 -38.04753959 85.48113334 -45.1953125 92.62890625 Z " fill="#FDFDFD" transform="translate(685.1953125,505.37109375)"/>
<path d="M0 0 C337.92 0 675.84 0 1024 0 C1024 337.92 1024 675.84 1024 1024 C686.08 1024 348.16 1024 0 1024 C0 686.08 0 348.16 0 0 Z M1 1 C1 338.26 1 675.52 1 1023 C338.26 1023 675.52 1023 1023 1023 C1023 685.74 1023 348.48 1023 1 C685.74 1 348.48 1 1 1 Z " fill="#5A5A5A" transform="translate(0,0)"/>
<path d="M0 0 C0.56353746 0.42434169 1.12707493 0.84868338 1.70768929 1.2858839 C9.03702946 6.29406835 14.91795147 6.85427285 23.64794922 6.75708008 C24.99268565 6.76362733 26.33741137 6.77281758 27.68211365 6.78442383 C31.30389204 6.80843246 34.92472465 6.79620058 38.54649878 6.77736115 C42.347008 6.7641835 46.14731819 6.78582183 49.94778442 6.80387878 C57.1357671 6.83298655 64.32341833 6.83270787 71.51143849 6.82095498 C82.07077369 6.80503338 92.63000888 6.83385902 103.18930244 6.86232281 C104.74836345 6.86645855 106.3074245 6.87057761 107.8664856 6.87467957 C108.62758074 6.87673249 109.38867588 6.87878542 110.17283452 6.88090056 C114.69273296 6.89210362 119.21253998 6.8949 123.73244929 6.89011252 C126.53947039 6.88757339 129.34648389 6.88865611 132.15350533 6.89025116 C134.0754089 6.8899022 135.99730938 6.88440852 137.91920471 6.87876892 C139.63488396 6.88044571 139.63488396 6.88044571 141.38522339 6.88215637 C142.37883314 6.88081601 143.37244289 6.87947565 144.39616203 6.87809467 C148.4748144 7.0690472 150.56686987 7.71124658 154 10 C154.99 10.28875 155.98 10.5775 157 10.875 C160.33449092 12.1254341 161.09818857 13.10200163 163 16 C163.99 16.66 164.98 17.32 166 18 C175.59934674 32.1181232 174.29909439 49.96285805 174.23046875 66.3125 C174.22927284 68.22102833 174.22882465 70.12955725 174.2290802 72.03808594 C174.22752951 76.00475845 174.21934526 79.9713389 174.20581055 83.93798828 C174.18872952 89.00594008 174.18499974 94.07379218 174.18575573 99.14176941 C174.18548327 103.06924377 174.17999128 106.99669663 174.17275429 110.92416382 C174.16958915 112.79316038 174.16760529 114.66215935 174.16686058 116.53115845 C174.16467923 119.1406059 174.15589929 121.74995 174.14526367 124.359375 C174.14571686 125.11899033 174.14617004 125.87860565 174.14663696 126.66123962 C174.11785887 131.51882484 173.6825627 136.18936819 173 141 C166.29191275 143.09228435 160.47457038 143.08264898 153.5 142.625 C152.48679687 142.56828125 151.47359375 142.5115625 150.4296875 142.453125 C147.95228164 142.31289448 145.47608656 142.16162278 143 142 C143 141.67 143 141.34 143 141 C149.1676029 139.90142276 155.18415123 139.88460896 161.4375 139.9375 C162.45521484 139.94201172 163.47292969 139.94652344 164.52148438 139.95117188 C167.01438509 139.96287563 169.50716074 139.97927152 172 140 C171.96183885 126.79481952 171.90232562 113.58992026 171.81609726 100.38496113 C171.77671037 94.25231725 171.74447876 88.11981508 171.72900391 81.98706055 C171.71377953 76.06056929 171.67923136 70.13446786 171.63169098 64.20815086 C171.61693671 61.95535878 171.60896243 59.70251103 171.60811615 57.44967079 C172.15594063 36.37440973 172.15594063 36.37440973 162.57421875 18.359375 C155.21756333 12.00672962 147.90422982 9.88753521 138.31434631 9.86196899 C137.20554611 9.85651566 136.09674591 9.85106232 134.9543457 9.84544373 C133.75261719 9.8444014 132.55088867 9.84335907 131.31274414 9.84228516 C129.35238527 9.83448623 127.39202641 9.82668325 125.43166816 9.81872725 C123.33235169 9.81103408 121.23303949 9.80563992 119.13371468 9.80076981 C114.75002717 9.79004808 110.36641567 9.76979338 105.98277283 9.74765015 C93.52020748 9.68586211 81.05764786 9.63171143 68.5949707 9.59863281 C61.70555518 9.58026714 54.81626839 9.55131143 47.92694753 9.5106281 C44.28545925 9.48959966 40.64413284 9.47410667 37.00258064 9.47182083 C32.94042359 9.46926763 28.87871676 9.44377383 24.81665039 9.41650391 C23.61694611 9.41951004 22.41724182 9.42251617 21.18118286 9.4256134 C12.49274998 9.33891051 6.54845047 8.15157469 0 2 C0 1.34 0 0.68 0 0 Z " fill="#CACBCB" transform="translate(506,332)"/>
<path d="M0 0 C4.11367695 3.63132102 4.11367695 3.63132102 5.765625 5.55859375 C5.765625 6.21859375 5.765625 6.87859375 5.765625 7.55859375 C5.105625 7.55859375 4.445625 7.55859375 3.765625 7.55859375 C3.04375 6.65109375 2.321875 5.74359375 1.578125 4.80859375 C-1.80051596 0.6638656 -5.340238 -1.98468254 -10.66015625 -2.82421875 C-16.69657049 -3.09901758 -20.46105246 -2.16459783 -25.234375 1.55859375 C-30.23518648 8.02279665 -29.80178777 14.32140217 -29.75195312 22.26147461 C-29.75737965 23.64853142 -29.76450529 25.03558246 -29.77319336 26.42262268 C-29.79136865 30.17483659 -29.78438304 33.92660866 -29.77167702 37.67882991 C-29.76151708 41.61488288 -29.77095117 45.5508992 -29.77722168 49.48695374 C-29.78449027 56.0967586 -29.7749321 62.70638445 -29.75585938 69.31616211 C-29.73410104 76.94446706 -29.74113742 84.57234416 -29.763165 92.20063871 C-29.78135236 98.76309574 -29.78386081 105.3254244 -29.77341032 111.8878985 C-29.76719249 115.80163329 -29.76629214 119.7151674 -29.77955627 123.62888908 C-29.79116266 127.31038872 -29.78300281 130.9913402 -29.75997925 134.67278099 C-29.75221881 136.65834182 -29.76400776 138.64394932 -29.77648926 140.62948608 C-29.69872956 148.87260431 -28.87744388 154.62301569 -23.09375 160.87109375 C-22.39765625 161.42796875 -21.7015625 161.98484375 -20.984375 162.55859375 C-20.27796875 163.13609375 -19.5715625 163.71359375 -18.84375 164.30859375 C-18.31265625 164.72109375 -17.7815625 165.13359375 -17.234375 165.55859375 C-17.894375 165.88859375 -18.554375 166.21859375 -19.234375 166.55859375 C-19.75386719 166.08808594 -20.27335938 165.61757813 -20.80859375 165.1328125 C-25.27506947 161.14205283 -25.27506947 161.14205283 -30.234375 157.80859375 C-30.894375 157.39609375 -31.554375 156.98359375 -32.234375 156.55859375 C-32.234375 155.56859375 -32.234375 154.57859375 -32.234375 153.55859375 C-32.894375 153.22859375 -33.554375 152.89859375 -34.234375 152.55859375 C-34.08097656 152.0378125 -33.92757812 151.51703125 -33.76953125 150.98046875 C-33.09454989 147.9258086 -32.89026382 144.92843404 -32.671875 141.80859375 C-32.58808594 140.638125 -32.50429687 139.46765625 -32.41796875 138.26171875 C-32.35738281 137.3696875 -32.29679688 136.47765625 -32.234375 135.55859375 C-32.894375 135.55859375 -33.554375 135.55859375 -34.234375 135.55859375 C-34.234375 122.68859375 -34.234375 109.81859375 -34.234375 96.55859375 C-33.904375 96.55859375 -33.574375 96.55859375 -33.234375 96.55859375 C-33.234375 85.66859375 -33.234375 74.77859375 -33.234375 63.55859375 C-33.564375 63.55859375 -33.894375 63.55859375 -34.234375 63.55859375 C-34.28839774 61.45470806 -34.32717756 59.35042661 -34.359375 57.24609375 C-34.38257813 56.07433594 -34.40578125 54.90257812 -34.4296875 53.6953125 C-34.234375 50.55859375 -34.234375 50.55859375 -32.234375 47.55859375 C-32.894375 47.55859375 -33.554375 47.55859375 -34.234375 47.55859375 C-34.234375 45.90859375 -34.234375 44.25859375 -34.234375 42.55859375 C-33.904375 42.55859375 -33.574375 42.55859375 -33.234375 42.55859375 C-32.904375 38.92859375 -32.574375 35.29859375 -32.234375 31.55859375 C-32.894375 31.55859375 -33.554375 31.55859375 -34.234375 31.55859375 C-34.31664168 28.51472651 -34.21045717 26.48684027 -33.234375 23.55859375 C-33.08247846 21.4770486 -32.96118083 19.39318924 -32.859375 17.30859375 C-32.30262679 9.59977234 -30.66958571 4.31352274 -25.234375 -1.44140625 C-16.81145838 -7.64776587 -7.68417082 -6.30767565 0 0 Z M-33.234375 55.55859375 C-32.234375 59.55859375 -32.234375 59.55859375 -32.234375 59.55859375 Z M-33.234375 104.55859375 C-32.234375 107.55859375 -32.234375 107.55859375 -32.234375 107.55859375 Z M-33.234375 108.55859375 C-33.234375 113.50859375 -33.234375 118.45859375 -33.234375 123.55859375 C-32.904375 123.55859375 -32.574375 123.55859375 -32.234375 123.55859375 C-32.234375 118.60859375 -32.234375 113.65859375 -32.234375 108.55859375 C-32.564375 108.55859375 -32.894375 108.55859375 -33.234375 108.55859375 Z M-33.234375 124.55859375 C-33.234375 127.85859375 -33.234375 131.15859375 -33.234375 134.55859375 C-32.904375 134.55859375 -32.574375 134.55859375 -32.234375 134.55859375 C-32.234375 131.25859375 -32.234375 127.95859375 -32.234375 124.55859375 C-32.564375 124.55859375 -32.894375 124.55859375 -33.234375 124.55859375 Z M-32.234375 148.55859375 C-31.234375 152.55859375 -31.234375 152.55859375 -31.234375 152.55859375 Z M-31.234375 152.55859375 C-30.904375 153.87859375 -30.574375 155.19859375 -30.234375 156.55859375 C-29.904375 155.89859375 -29.574375 155.23859375 -29.234375 154.55859375 C-29.894375 153.89859375 -30.554375 153.23859375 -31.234375 152.55859375 Z " fill="#D2D2D3" transform="translate(266.234375,600.44140625)"/>
<path d="M0 0 C2.47522862 1.14241321 4.48607359 2.36172918 6.6875 4 C11.98856641 7.20064387 17.80131891 8.39991491 24 8 C24 8.66 24 9.32 24 10 C24.86625 10.185625 25.7325 10.37125 26.625 10.5625 C31.83580807 12.78191825 34.70791566 16.1545109 37.04296875 21.296875 C39.15847784 27.53415063 39.33548224 33.46430905 39 40 C38.34 40 37.68 40 37 40 C36.9175 40.70125 36.835 41.4025 36.75 42.125 C35.39204734 47.33048521 32.11301687 51.60491593 28 55 C25.23029177 56.10591041 22.38886729 56.8341523 19.5 57.5625 C12.67960268 59.1334341 12.67960268 59.1334341 7 63 C6.67 63.99 6.34 64.98 6 66 C4.0625 66.625 4.0625 66.625 2 67 C1.01 67.495 1.01 67.495 0 68 C2.08893088 63.48207971 4.69244259 60.50409211 9 58 C12.52846954 56.73957248 16.13696156 55.7748675 19.78149414 54.91235352 C25.0539314 53.59111542 28.16488591 51.90941585 32 48 C36.07851174 40.90077234 37.39781481 32.73204634 35.45703125 24.7734375 C34.03404882 20.57524624 32.25378609 17.07790576 29 14 C24.41772139 11.8725135 19.98346895 10.77199379 15.0625 9.6875 C9.27002647 8.30378332 4.44232528 6.02725953 0 2 C0 1.34 0 0.68 0 0 Z " fill="#BABBBB" transform="translate(767,603)"/>
<path d="M0 0 C5.02002197 0.03284638 9.0922639 0.59325463 13.875 2.1875 C15.66550781 2.32865234 15.66550781 2.32865234 17.4921875 2.47265625 C22.62624906 3.07967074 26.69247115 5.23831474 31.1875 7.6875 C32.01910645 8.13383789 32.85071289 8.58017578 33.70751953 9.04003906 C42.71687788 14.00527453 50.68282194 19.86008812 56.875 28.1875 C56.545 28.8475 56.215 29.5075 55.875 30.1875 C55.09898437 29.341875 54.32296875 28.49625 53.5234375 27.625 C40.25796386 13.54510731 24.83895151 4.71853181 5.0546875 3.94921875 C-4.51334928 3.75635095 -12.71695126 3.89853612 -21.7265625 7.41015625 C-24.125 8.1875 -24.125 8.1875 -27.125 7.1875 C-21.16343054 4.57455679 -15.48827883 2.65531721 -9.05859375 1.58203125 C-1.34254463 0.00764547 -1.34254463 0.00764547 0 0 Z " fill="#BBBCBC" transform="translate(451.125,191.8125)"/>
<path d="M0 0 C4.13573333 1.47704762 6.1743469 4.14978997 8 8 C9.0865978 11.33770041 10.06167293 14.68442243 10.97265625 18.07421875 C11.98339331 20.95270566 12.69130952 22.11107142 15 24 C16.46908241 25.46908241 17.90172491 26.97483774 19.3125 28.5 C22.95352456 31.88699959 25.35721827 32.93800824 30.3125 33.125 C31.199375 33.08375 32.08625 33.0425 33 33 C33.495 32.01 33.495 32.01 34 31 C36.546875 30.4375 36.546875 30.4375 39.75 30 C43.80631645 29.44050808 47.25124071 28.66611524 51 27 C45.26679065 33.06082131 40.96089131 35.62559311 32.6875 36.25 C23.79575869 35.64717008 17.95057243 31.52681363 12 25 C9.18864949 20.94548004 7.86875756 16.65573086 6.5625 11.9375 C5.21653023 7.09948643 3.13576097 3.89851364 0 0 Z M38 32 C37.34 32.66 36.68 33.32 36 34 C37.65 33.67 39.3 33.34 41 33 C40.01 32.67 39.02 32.34 38 32 Z " fill="#C5C6C6" transform="translate(685,507)"/>
<path d="M0 0 C0.34224609 0.87591797 0.34224609 0.87591797 0.69140625 1.76953125 C3.73113672 6.95068379 10.14347629 10.24828323 15.8203125 11.7421875 C22.12286297 12.47838285 27.89348498 11.60279461 34 10 C34 10.66 34 11.32 34 12 C26.98297617 14.55164503 19.34933134 15.51202516 12.1796875 13.01953125 C7.67027707 10.83213067 3.82632812 8.24658144 0 5 C-5.22461983 3.25846006 -11.15580725 2.66416597 -16.25390625 5.05859375 C-20.56285704 8.1701453 -23.99884905 12.04614282 -27.3984375 16.10546875 C-29.4700126 18.55599052 -31.69929485 20.76502928 -34 23 C-34.66 23.66 -35.32 24.32 -36 25 C-35.08333862 19.75530449 -31.53723592 16.76214687 -28 13 C-27.34128906 12.2884375 -26.68257812 11.576875 -26.00390625 10.84375 C-17.02814262 1.46556422 -17.02814262 1.46556422 -10.66796875 0.73046875 C-7.11729284 0.66737112 -4.38969644 0.87010119 -1 2 C-0.67 1.34 -0.34 0.68 0 0 Z " fill="#D0D0D0" transform="translate(597,529)"/>
<path d="M0 0 C2.95609542 2.25052532 5.78151875 4.59799519 8.58203125 7.0390625 C12.13850531 9.92331126 15.199052 10.32602759 19.7265625 10.30078125 C23.8216219 9.75899504 27.36470849 7.88496597 31 6 C30.02632745 8.4882743 29.44662682 9.74803334 27.08203125 11.08203125 C20.24507023 13.28256776 15.39122628 13.26870869 8.8125 10.125 C5.09988742 8.14302501 1.98155085 5.98155085 -1 3 C-4.58054655 1.92924765 -4.58054655 1.92924765 -8 3 C-8.33 2.01 -8.66 1.02 -9 0 C-14.94566297 -0.35673978 -18.6850825 0.01846091 -24 3 C-24.66 2.67 -25.32 2.34 -26 2 C-18.67128849 -4.44926613 -8.31376523 -4.6539795 0 0 Z " fill="#D3D3D3" transform="translate(728,733)"/>
<path d="M0 0 C7.08556423 6.1998687 8.66746417 16.94435649 10.01171875 25.83081055 C10.28341182 27.56391519 10.63487971 29.28414569 11 31 C11.66 31.33 12.32 31.66 13 32 C12.67 32.99 12.34 33.98 12 35 C11.67 35 11.34 35 11 35 C10.91363281 35.83660156 10.82726562 36.67320312 10.73828125 37.53515625 C9.31726203 49.30745305 6.61056192 60.9617393 0 71 C-0.33 70.34 -0.66 69.68 -1 69 C-0.15042551 66.90896982 0.78231095 64.85155908 1.75 62.8125 C8.74129638 47.27111907 10.61182412 29.82384642 4.7890625 13.6328125 C3.91920844 11.3752144 3.03125783 9.12446292 2.12109375 6.8828125 C1.22486056 4.57821288 0.51814342 2.41024019 0 0 Z " fill="#C3C4C4" transform="translate(513,229)"/>
<path d="M0 0 C0.33 0 0.66 0 1 0 C1.22331199 1.58129029 1.42804644 3.16521089 1.625 4.75 C1.74101563 5.63171875 1.85703125 6.5134375 1.9765625 7.421875 C2.00246146 10.27076076 1.35014528 11.5470643 0 14 C0 14.99 0 15.98 0 17 C-0.99 17.33 -1.98 17.66 -3 18 C-3.53625 18.94875 -4.0725 19.8975 -4.625 20.875 C-8.2568343 25.65372935 -12.59112159 26.41952321 -18.33984375 27.3984375 C-22.9037511 27.97575228 -27.40466911 28.097773 -32 28 C-32 27.34 -32 26.68 -32 26 C-32.804375 26 -33.60875 26 -34.4375 26 C-40.23777777 24.37185185 -45.011298 20.01229862 -48.328125 14.98828125 C-49.13682146 12.59510395 -48.83811121 11.34671139 -48 9 C-47.78085937 9.51949219 -47.56171875 10.03898438 -47.3359375 10.57421875 C-44.3486923 17.14372953 -40.67717141 21.16469817 -33.8125 23.8125 C-25.61185166 26.20664901 -17.95579281 25.77808755 -10.1640625 22.265625 C-5.89869364 19.77107714 -3.76460039 16.72035088 -1.75 12.1875 C-0.79923239 8.14673766 -0.34889477 4.1316486 0 0 Z " fill="#BBBCBC" transform="translate(693,751)"/>
<path d="M0 0 C0.495 0.99 0.495 0.99 1 2 C-3.94349542 14.380232 -13.19328294 24.02170462 -25 30 C-35.21842909 34.04261939 -46.21903373 35.21148026 -57 33 C-57 32.67 -57 32.34 -57 32 C-55.92685547 32.03480469 -55.92685547 32.03480469 -54.83203125 32.0703125 C-45.04422633 32.24758193 -34.59730703 32.2036332 -26 27 C-25.01 26.67 -24.02 26.34 -23 26 C-16.21538119 21.97126766 -11.23228218 17.64531471 -7 11 C-6.53722656 10.28070312 -6.07445312 9.56140625 -5.59765625 8.8203125 C-4.74707398 7.47417361 -3.90588771 6.1220088 -3.078125 4.76171875 C-2.09157382 3.14963694 -1.04838205 1.57257307 0 0 Z " fill="#C7C8C9" transform="translate(714,654)"/>
<path d="M0 0 C1.98 0 3.96 0 6 0 C6 0.66 6 1.32 6 2 C6.9075 2.433125 7.815 2.86625 8.75 3.3125 C11.44133757 4.70992528 13.63200202 6.13943016 16 8 C16.66 8.33 17.32 8.66 18 9 C18.96808428 10.05609194 19.90149431 11.14429389 20.8125 12.25 C22.7025227 14.50880762 24.57306755 16.5597404 26.6875 18.625 C30.61631728 22.66000153 32.77637432 26.29754506 33 32 C32.20490508 34.80055726 31.15738793 37.31485999 30 40 C29.67 39.34 29.34 38.68 29 38 C29.33 37.01 29.66 36.02 30 35 C30.50242956 28.87035937 30.11075344 25.86799749 26 21 C24.03814584 19.28859531 22.03697617 17.62126675 20 16 C15 11 15 11 13.44921875 9.38671875 C9.60730219 5.68611407 6.6476098 4.16432715 1.2890625 3.87890625 C-2.3444655 4.0711236 -5.52695793 4.92651427 -9 6 C-6.47043472 2.9083091 -3.77545388 2.09068668 0 1 C0 0.67 0 0.34 0 0 Z " fill="#C0C1C1" transform="translate(745,528)"/>
<path d="M0 0 C0.99 0 1.98 0 3 0 C3 3 3 3 1.9375 5.625 C0.55246718 10.61111815 0.59290985 15.27817698 3.01171875 19.95703125 C6.41672807 24.88731289 10.66084099 28.94215014 15.3125 32.6875 C16.199375 33.450625 17.08625 34.21375 18 35 C18 35.66 18 36.32 18 37 C18.61875 37.28875 19.2375 37.5775 19.875 37.875 C22 39 22 39 24 41 C22.576875 40.7215625 22.576875 40.7215625 21.125 40.4375 C18.10131207 39.71313368 18.10131207 39.71313368 16 41 C15.79246094 40.13375 15.58492187 39.2675 15.37109375 38.375 C13.66944569 34.18632785 11.34964597 32.00181701 8.0625 29 C3.4766607 24.78212625 -0.48304069 20.98181755 -1.328125 14.47265625 C-1.30234375 13.67730469 -1.2765625 12.88195312 -1.25 12.0625 C-1.22421875 11.21042969 -1.1984375 10.35835937 -1.171875 9.48046875 C-0.94973445 6.27457675 -0.55058297 3.16585205 0 0 Z " fill="#C9C9CA" transform="translate(560,703)"/>
<path d="M0 0 C0 0.33 0 0.66 0 1 C-4.66666667 1 -9.33333333 1 -14 1 C-15.66821323 1.32550502 -17.33499557 1.65846063 -19 2 C-19.33 1.34 -19.66 0.68 -20 0 C-21.72926874 0.31193464 -23.45841044 0.62457362 -25.1875 0.9375 C-26.15042969 1.11152344 -27.11335937 1.28554688 -28.10546875 1.46484375 C-30.74239972 1.9523735 -33.3719905 2.46671105 -36 3 C-35 1 -35 1 -32.890625 0.18359375 C-32.01921875 -0.06261719 -31.1478125 -0.30882812 -30.25 -0.5625 C-29.38890625 -0.81128906 -28.5278125 -1.06007813 -27.640625 -1.31640625 C-17.57186294 -3.92296448 -9.92029355 -2.77768219 0 0 Z " fill="#D5D5D6" transform="translate(684,589)"/>
<path d="M0 0 C0.66 0 1.32 0 2 0 C6.58258167 8.60870699 8.82052284 15.69432054 5.9375 25.25 C4.0924227 29.65668947 0.79836244 32.25269127 -3 35 C-2.67 34.21625 -2.34 33.4325 -2 32.625 C-0.88133489 30.15667503 -0.88133489 30.15667503 -1 28 C-0.360625 27.731875 0.27875 27.46375 0.9375 27.1875 C3.33131686 26.11332248 3.33131686 26.11332248 4 23 C4.62063676 14.90119904 4.85898211 8.6811004 0 2 C0 1.34 0 0.68 0 0 Z " fill="#D0D1D1" transform="translate(567,668)"/>
<path d="M0 0 C0.66 0 1.32 0 2 0 C2.09474609 1.17755859 2.09474609 1.17755859 2.19140625 2.37890625 C2.99217565 9.24866477 4.00317124 12.78730491 9.24609375 17.296875 C12.83594245 20.78278598 14.73702274 25.4047162 15.23828125 30.3515625 C15.24826956 32.23602311 15.13669258 34.120477 15 36 C14.67 36 14.34 36 14 36 C13.90203125 35.35933594 13.8040625 34.71867188 13.703125 34.05859375 C12.69554907 28.23028814 11.43545729 23.85005735 8 19 C7.34257813 18.69320312 6.68515625 18.38640625 6.0078125 18.0703125 C2.78813149 16.35398449 2.10198203 13.7233317 0.75 10.46484375 C-0.35767539 6.82451474 -0.27496407 3.78075597 0 0 Z " fill="#CBCBCC" transform="translate(559,555)"/>
<path d="M0 0 C0.66 0.33 1.32 0.66 2 1 C-5.06213521 6.83314025 -10.61187894 9.38318861 -20 9 C-17.5818124 5.71817397 -16.13187315 4.27610383 -12.1015625 3.29296875 C-9.98685288 2.97806647 -7.86658303 2.69807862 -5.7421875 2.45703125 C-2.7927694 2.15822076 -2.7927694 2.15822076 0 0 Z M-11 5 C-11.66 5.66 -12.32 6.32 -13 7 C-11.35 6.67 -9.7 6.34 -8 6 C-8.99 5.67 -9.98 5.34 -11 5 Z " fill="#DEDEDD" transform="translate(734,534)"/>
<path d="M0 0 C-0.556875 0.32871094 -1.11375 0.65742187 -1.6875 0.99609375 C-7.9237037 4.88318694 -12.28490452 9.42012718 -17 15 C-18.62923377 16.71193599 -20.30367534 18.35356724 -22 20 C-22.66 20.66 -23.32 21.32 -24 22 C-22.50842993 13.46595353 -11.9042458 4.86311359 -5.1875 -0.0625 C-3 -1 -3 -1 0 0 Z " fill="#C7C7C7" transform="translate(585,532)"/>
<path d="M0 0 C2.30161177 1.15080588 4.53150394 2.31407051 6.75 3.625 C11.63867379 5.69328506 15.58284383 5.86837181 20.51171875 4.09765625 C22.71265031 3.12675865 24.86479378 2.10714396 27 1 C26.02632745 3.4882743 25.44662682 4.74803334 23.08203125 6.08203125 C15.24678922 8.60387335 9.92697947 7.72481233 2.6015625 4.1328125 C1 3 1 3 0 0 Z " fill="#C4C4C4" transform="translate(732,738)"/>
<path d="M0 0 C2.47522862 1.14241321 4.48607359 2.36172918 6.6875 4 C11.98856641 7.20064387 17.80131891 8.39991491 24 8 C23.67 8.99 23.34 9.98 23 11 C14.63143041 10.16601884 7.61374508 8.44906041 1 3 C0.67 2.01 0.34 1.02 0 0 Z " fill="#C7C7C7" transform="translate(767,603)"/>
<path d="M0 0 C0.33 0 0.66 0 1 0 C1.22331199 1.58129029 1.42804644 3.16521089 1.625 4.75 C1.74101563 5.63171875 1.85703125 6.5134375 1.9765625 7.421875 C2.00246146 10.27076076 1.35014528 11.5470643 0 14 C0 14.99 0 15.98 0 17 C-0.99 17.33 -1.98 17.66 -3 18 C-4.39712274 19.95597184 -5.73779907 21.95436401 -7 24 C-7.33 23.01 -7.66 22.02 -8 21 C-6.77884191 19.51480773 -5.55146957 18.03375923 -4.27734375 16.59375 C-0.55153389 11.94503311 -0.48216226 5.70981627 0 0 Z " fill="#C5C6C6" transform="translate(693,751)"/>
<path d="M0 0 C11.64812239 1.39777469 11.64812239 1.39777469 14.6875 5 C15.120625 5.66 15.55375 6.32 16 7 C16.99 7.66 17.98 8.32 19 9 C19.33 9.99 19.66 10.98 20 12 C17.08278732 10.65111184 14.74050974 9.08475275 12.25 7.0625 C8.34425465 4.05977472 4.67563319 2.5028821 0 1 C0 0.67 0 0.34 0 0 Z " fill="#C1C1C1" transform="translate(653,341)"/>
<path d="M0 0 C-0.53625 0.2475 -1.0725 0.495 -1.625 0.75 C-7.62125906 3.67130596 -7.62125906 3.67130596 -11 9 C-12.9375 9.625 -12.9375 9.625 -15 10 C-15.99 10.495 -15.99 10.495 -17 11 C-15.63981009 7.88036045 -14.16739866 5.99165178 -11.5625 3.8125 C-10.96566406 3.30332031 -10.36882813 2.79414062 -9.75390625 2.26953125 C-6.57033438 -0.03483592 -3.79613023 -0.10259811 0 0 Z " fill="#CDCECE" transform="translate(784,660)"/>
<path d="M0 0 C2 2 2 2 4.0625 4.4375 C7.75869204 7.66183774 11.32667098 8.74767 16 10 C16 10.33 16 10.66 16 11 C10.43045004 11.85685384 7.38786005 9.6897833 2.953125 6.703125 C0.9145809 4.92551454 0.01453686 3.48237743 -1 1 C-0.67 0.67 -0.34 0.34 0 0 Z " fill="#D1D2D2" transform="translate(700,531)"/>
<path d="M0 0 C1.79244141 0.01740234 1.79244141 0.01740234 3.62109375 0.03515625 C5.41740234 0.04869141 5.41740234 0.04869141 7.25 0.0625 C8.17683594 0.07410156 9.10367187 0.08570313 10.05859375 0.09765625 C10.38859375 0.75765625 10.71859375 1.41765625 11.05859375 2.09765625 C8.73263429 3.26063598 7.27136144 3.26366316 4.68359375 3.28515625 C3.52730469 3.30642578 3.52730469 3.30642578 2.34765625 3.328125 C-0.15975513 3.07567232 -1.77402527 2.34959092 -3.94140625 1.09765625 C-2.94140625 0.09765625 -2.94140625 0.09765625 0 0 Z " fill="#D0CFD0" transform="translate(447.94140625,191.90234375)"/>
<path d="M0 0 C0.33 0 0.66 0 1 0 C1 7.59 1 15.18 1 23 C0.67 23 0.34 23 0 23 C0 15.41 0 7.82 0 0 Z " fill="#F4F5F5" transform="translate(232,665)"/>
<path d="M0 0 C3.37503669 1.1858237 5.64722731 2.27573689 8 5 C7.05125 4.814375 6.1025 4.62875 5.125 4.4375 C2.10131207 3.71313368 2.10131207 3.71313368 0 5 C0 3.35 0 1.7 0 0 Z " fill="#DADBDB" transform="translate(576,739)"/>
<path d="M0 0 C1.670625 0.061875 1.670625 0.061875 3.375 0.125 C3.375 0.455 3.375 0.785 3.375 1.125 C-1.08 1.62 -1.08 1.62 -5.625 2.125 C-3.625 0.125 -3.625 0.125 0 0 Z " fill="#EAE9E9" transform="translate(440.625,191.875)"/>
<path d="M0 0 C0.66 1.32 1.32 2.64 2 4 C1.01 3.67 0.02 3.34 -1 3 C-0.67 2.01 -0.34 1.02 0 0 Z " fill="#F1F1F0" transform="translate(643,764)"/>
<path d="M0 0 C0.99 0.33 1.98 0.66 3 1 C2.01 1.99 1.02 2.98 0 4 C0 2.68 0 1.36 0 0 Z " fill="#FCFCFB" transform="translate(284,492)"/>
<path d="M0 0 C2.31 0 4.62 0 7 0 C6.67 0.66 6.34 1.32 6 2 C3.03 1.505 3.03 1.505 0 1 C0 0.67 0 0.34 0 0 Z " fill="#FAFAFA" transform="translate(654,475)"/>
<path d="M0 0 C0.33 0 0.66 0 1 0 C1 2.31 1 4.62 1 7 C0.67 7 0.34 7 0 7 C0 4.69 0 2.38 0 0 Z " fill="#E9E9E9" transform="translate(232,741)"/>
<path d="M0 0 C1.32 0.33 2.64 0.66 4 1 C2.68 1.33 1.36 1.66 0 2 C0 1.34 0 0.68 0 0 Z " fill="#F7F7F7" transform="translate(708,734)"/>
<path d="M0 0 C0.33 0 0.66 0 1 0 C1 2.31 1 4.62 1 7 C0.67 7 0.34 7 0 7 C0 4.69 0 2.38 0 0 Z " fill="#F3F4F5" transform="translate(232,689)"/>
<path d="M0 0 C0.99 0 1.98 0 3 0 C3 0.99 3 1.98 3 3 C2.01 2.67 1.02 2.34 0 2 C0 1.34 0 0.68 0 0 Z " fill="#FBFAFA" transform="translate(508,331)"/>
<path d="M0 0 C0.99 0.495 0.99 0.495 2 1 C1.67 2.32 1.34 3.64 1 5 C0.67 3.35 0.34 1.7 0 0 Z " fill="#FBFCFB" transform="translate(569,676)"/>
<path d="M0 0 C0.33 0 0.66 0 1 0 C1 1.98 1 3.96 1 6 C0.67 6 0.34 6 0 6 C0 4.02 0 2.04 0 0 Z " fill="#FBFAFA" transform="translate(528,631)"/>
<path d="M0 0 C0.33 0 0.66 0 1 0 C1 1.65 1 3.3 1 5 C0.34 4.34 -0.32 3.68 -1 3 C-0.67 2.01 -0.34 1.02 0 0 Z " fill="#FCFCFC" transform="translate(714,627)"/>
<path d="M0 0 C0.99 1.485 0.99 1.485 2 3 C1.67 3.66 1.34 4.32 1 5 C0.67 3.35 0.34 1.7 0 0 Z " fill="#FBFBFB" transform="translate(369,539)"/>
<path d="M0 0 C0.33 1.32 0.66 2.64 1 4 C0.34 3.34 -0.32 2.68 -1 2 C-0.67 1.34 -0.34 0.68 0 0 Z " fill="#FAFBFB" transform="translate(557,716)"/>
<path d="M0 0 C0.99 0.495 0.99 0.495 2 1 C1.67 1.99 1.34 2.98 1 4 C0.67 2.68 0.34 1.36 0 0 Z " fill="#FBFBFA" transform="translate(529,712)"/>
<path d="M0 0 C0.99 0 1.98 0 3 0 C3 0.66 3 1.32 3 2 C2.01 1.67 1.02 1.34 0 1 C0 0.67 0 0.34 0 0 Z " fill="#FBFAFA" transform="translate(546,661)"/>
<path d="M0 0 C0.33 0 0.66 0 1 0 C1 1.65 1 3.3 1 5 C0.67 5 0.34 5 0 5 C0 3.35 0 1.7 0 0 Z " fill="#FAFAF9" transform="translate(715,634)"/>
<path d="M0 0 C0.33 0 0.66 0 1 0 C1 1.65 1 3.3 1 5 C0.67 5 0.34 5 0 5 C0 3.35 0 1.7 0 0 Z " fill="#F2F3F3" transform="translate(232,619)"/>
<path d="M0 0 C1.485 0.99 1.485 0.99 3 2 C1.68 1.67 0.36 1.34 -1 1 C-0.67 0.67 -0.34 0.34 0 0 Z " fill="#FBFBFB" transform="translate(324,616)"/>
<path d="M0 0 C0.99 0.33 1.98 0.66 3 1 C2.01 1.33 1.02 1.66 0 2 C0 1.34 0 0.68 0 0 Z " fill="#FBFBFC" transform="translate(688,594)"/>
<path d="M0 0 C0.99 0.495 0.99 0.495 2 1 C2 1.66 2 2.32 2 3 C1.34 3 0.68 3 0 3 C0 2.01 0 1.02 0 0 Z " fill="#FBFBFA" transform="translate(340,500)"/>
<path d="M0 0 C1.65 0 3.3 0 5 0 C5 0.33 5 0.66 5 1 C3.35 1 1.7 1 0 1 C0 0.67 0 0.34 0 0 Z " fill="#FCFBFA" transform="translate(639,477)"/>
<path d="M0 0 C0.99 0.495 0.99 0.495 2 1 C1.67 1.99 1.34 2.98 1 4 C0.67 2.68 0.34 1.36 0 0 Z " fill="#EDEDEC" transform="translate(676,355)"/>
<path d="M0 0 C1.485 0.99 1.485 0.99 3 2 C1.68 1.67 0.36 1.34 -1 1 C-0.67 0.67 -0.34 0.34 0 0 Z " fill="#EEEEED" transform="translate(648,337)"/>
<path d="M0 0 C0.99 1.485 0.99 1.485 2 3 C1.01 3.495 1.01 3.495 0 4 C0 2.68 0 1.36 0 0 Z " fill="#F5F5F4" transform="translate(524,268)"/>
<path d="M0 0 C0.33 0 0.66 0 1 0 C1 1.65 1 3.3 1 5 C0.67 5 0.34 5 0 5 C0 3.35 0 1.7 0 0 Z " fill="#F4F4F3" transform="translate(524,251)"/>
<path d="M0 0 C0.66 0 1.32 0 2 0 C1.67 1.32 1.34 2.64 1 4 C0.67 2.68 0.34 1.36 0 0 Z " fill="#F2F0F0" transform="translate(379,249)"/>
<path d="M0 0 C0.66 0 1.32 0 2 0 C2 0.66 2 1.32 2 2 C1.34 2 0.68 2 0 2 C0 1.34 0 0.68 0 0 Z " fill="#EAEAEA" transform="translate(658,778)"/>
<path d="M0 0 C0.99 0.495 0.99 0.495 2 1 C1.34 1.66 0.68 2.32 0 3 C0 2.01 0 1.02 0 0 Z " fill="#F7F6F6" transform="translate(716,733)"/>
<path d="M0 0 C0.99 0.495 0.99 0.495 2 1 C1.34 1.66 0.68 2.32 0 3 C0 2.01 0 1.02 0 0 Z " fill="#FAFAFA" transform="translate(620,733)"/>
<path d="M0 0 C0.66 0 1.32 0 2 0 C1.67 0.99 1.34 1.98 1 3 C0.67 2.01 0.34 1.02 0 0 Z " fill="#FBFBF9" transform="translate(623,733)"/>
<path d="M0 0 C1 4 1 4 1 4 Z " fill="#FCFCFC" transform="translate(714,643)"/>
<path d="M0 0 C0 3 0 3 0 3 Z " fill="#FCFCFC" transform="translate(713,624)"/>
<path d="M0 0 C0.99 0.495 0.99 0.495 2 1 C1.67 1.66 1.34 2.32 1 3 C0.67 2.01 0.34 1.02 0 0 Z " fill="#FCFBFA" transform="translate(705,608)"/>
<path d="M0 0 C4 1 4 1 4 1 Z " fill="#FAFBFA" transform="translate(675,590)"/>
<path d="M0 0 C0.99 0.33 1.98 0.66 3 1 C2.01 1 1.02 1 0 1 C0 0.67 0 0.34 0 0 Z " fill="#FCFCFB" transform="translate(659,590)"/>
<path d="M0 0 C1 4 1 4 1 4 Z " fill="#F8F9F8" transform="translate(371,564)"/>
<path d="M0 0 C0.99 0.495 0.99 0.495 2 1 C1.67 1.66 1.34 2.32 1 3 C0.67 2.01 0.34 1.02 0 0 Z " fill="#FBFCFB" transform="translate(369,544)"/>
<path d="M0 0 C0.33 0.66 0.66 1.32 1 2 C0.01 1.67 -0.98 1.34 -2 1 C-1.34 0.67 -0.68 0.34 0 0 Z " fill="#FCFCFC" transform="translate(629,536)"/>
<path d="M0 0 C0.99 0.33 1.98 0.66 3 1 C2.01 1 1.02 1 0 1 C0 0.67 0 0.34 0 0 Z " fill="#FCFBFC" transform="translate(580,528)"/>
<path d="M0 0 C4 1 4 1 4 1 Z " fill="#FBFAFA" transform="translate(663,499)"/>
<path d="M0 0 C4 1 4 1 4 1 Z " fill="#FBFCFA" transform="translate(627,479)"/>
<path d="M0 0 C4 1 4 1 4 1 Z " fill="#FCFCFC" transform="translate(644,476)"/>
<path d="M0 0 C1 4 1 4 1 4 Z " fill="#F4F4F4" transform="translate(379,268)"/>
<path d="M0 0 C0.66 0.66 1.32 1.32 2 2 C1.34 2 0.68 2 0 2 C0 1.34 0 0.68 0 0 Z " fill="#ECEDEE" transform="translate(648,771)"/>
<path d="" fill="#FAFAFA" transform="translate(0,0)"/>
<path d="M0 0 C3 1 3 1 3 1 Z " fill="#F9F9FA" transform="translate(616,733)"/>
<path d="" fill="#FBFBFB" transform="translate(0,0)"/>
<path d="M0 0 C0.99 0.495 0.99 0.495 2 1 C1.01 1.495 1.01 1.495 0 2 C0 1.34 0 0.68 0 0 Z " fill="#F2F1F0" transform="translate(785,661)"/>
<path d="M0 0 C0.66 0.66 1.32 1.32 2 2 C1.34 2 0.68 2 0 2 C0 1.34 0 0.68 0 0 Z " fill="#FDFDFC" transform="translate(627,659)"/>
<path d="M0 0 C0.66 0.66 1.32 1.32 2 2 C1.34 2 0.68 2 0 2 C0 1.34 0 0.68 0 0 Z " fill="#E5E4E4" transform="translate(805,645)"/>
<path d="" fill="#FBFBFA" transform="translate(0,0)"/>
<path d="M0 0 C0.66 0 1.32 0 2 0 C1.67 0.66 1.34 1.32 1 2 C0.67 1.34 0.34 0.68 0 0 Z " fill="#FDFCFC" transform="translate(528,627)"/>
<path d="" fill="#E5E6E5" transform="translate(0,0)"/>
<path d="M0 0 C3 1 3 1 3 1 Z " fill="#FAFCFB" transform="translate(327,616)"/>
<path d="M0 0 C0.33 0.66 0.66 1.32 1 2 C0.34 1.67 -0.32 1.34 -1 1 C-0.67 0.67 -0.34 0.34 0 0 Z " fill="#FCFCFA" transform="translate(707,611)"/>
<path d="M0 0 C3 1 3 1 3 1 Z " fill="#F8F7F7" transform="translate(653,591)"/>
<path d="" fill="#FDFDFD" transform="translate(0,0)"/>
<path d="" fill="#FAFBFA" transform="translate(0,0)"/>
<path d="M0 0 C0.66 0.66 1.32 1.32 2 2 C1.34 2 0.68 2 0 2 C0 1.34 0 0.68 0 0 Z " fill="#FCFCFB" transform="translate(579,529)"/>
<path d="" fill="#FDFCFC" transform="translate(0,0)"/>
<path d="M0 0 C3 1 3 1 3 1 Z " fill="#F1F0F2" transform="translate(741,528)"/>
<path d="M0 0 C0.99 0.495 0.99 0.495 2 1 C1.01 1.495 1.01 1.495 0 2 C0 1.34 0 0.68 0 0 Z " fill="#FBFBFB" transform="translate(656,501)"/>
<path d="M0 0 C3 1 3 1 3 1 Z " fill="#F8F9F8" transform="translate(675,500)"/>
<path d="M0 0 C3 1 3 1 3 1 Z " fill="#F9FAF8" transform="translate(668,499)"/>
<path d="M0 0 C3 1 3 1 3 1 Z " fill="#FAFAF9" transform="translate(605,486)"/>
<path d="M0 0 C3 1 3 1 3 1 Z " fill="#ECEAEB" transform="translate(256,339)"/>
<path d="M0 0 C3 1 3 1 3 1 Z " fill="#EDEDEC" transform="translate(261,338)"/>
<path d="M0 0 C0.66 0 1.32 0 2 0 C1.67 0.66 1.34 1.32 1 2 C0.67 1.34 0.34 0.68 0 0 Z " fill="#F1F0EF" transform="translate(524,257)"/>
<path d="M0 0 C0.66 0.66 1.32 1.32 2 2 C1.34 2 0.68 2 0 2 C0 1.34 0 0.68 0 0 Z " fill="#EDEDEC" transform="translate(492,203)"/>
<path d="M0 0 C3 1 3 1 3 1 Z " fill="#E8E8E8" transform="translate(461,192)"/>
<path d="M0 0 C2 1 2 1 2 1 Z " fill="#E8E8E7" transform="translate(678,778)"/>
<path d="" fill="#F5F6F6" transform="translate(0,0)"/>
<path d="M0 0 C2 1 2 1 2 1 Z " fill="#EAE9E9" transform="translate(750,746)"/>
<path d="M0 0 C2 1 2 1 2 1 Z " fill="#F8F8F6" transform="translate(604,740)"/>
<path d="M0 0 C2 1 2 1 2 1 Z " fill="#F8F8F7" transform="translate(713,733)"/>
<path d="" fill="#FCFCFA" transform="translate(0,0)"/>
<path d="" fill="#FAFAFB" transform="translate(0,0)"/>
<path d="" fill="#FBFBFB" transform="translate(0,0)"/>
<path d="M0 0 C2 1 2 1 2 1 Z " fill="#F9F9F9" transform="translate(662,684)"/>
<path d="M0 0 C2 1 2 1 2 1 Z " fill="#FCFDFC" transform="translate(682,682)"/>
<path d="M0 0 C2 1 2 1 2 1 Z " fill="#FCFCFC" transform="translate(685,681)"/>
<path d="" fill="#FDFDFC" transform="translate(0,0)"/>
<path d="" fill="#FBFBFB" transform="translate(0,0)"/>
<path d="" fill="#FBFBFA" transform="translate(0,0)"/>
<path d="" fill="#FDFCFC" transform="translate(0,0)"/>
<path d="" fill="#FAF9F9" transform="translate(0,0)"/>
<path d="" fill="#F9FAFA" transform="translate(0,0)"/>
<path d="M0 0 C2 1 2 1 2 1 Z " fill="#FBF9FA" transform="translate(298,617)"/>
<path d="M0 0 C2 1 2 1 2 1 Z " fill="#F7F8F9" transform="translate(292,616)"/>
<path d="" fill="#FCFCFB" transform="translate(0,0)"/>
<path d="" fill="#FBFCFB" transform="translate(0,0)"/>
<path d="M0 0 C2 1 2 1 2 1 Z " fill="#EFEFEE" transform="translate(788,610)"/>
<path d="" fill="#FBFAFB" transform="translate(0,0)"/>
<path d="" fill="#F2F2F1" transform="translate(0,0)"/>
<path d="" fill="#FDFEFC" transform="translate(0,0)"/>
<path d="M0 0 C2 1 2 1 2 1 Z " fill="#FDFCFB" transform="translate(637,602)"/>
<path d="M0 0 C2 1 2 1 2 1 Z " fill="#FAFBF9" transform="translate(694,598)"/>
<path d="M0 0 C2 1 2 1 2 1 Z " fill="#FBFCFC" transform="translate(642,597)"/>
<path d="" fill="#F9FAF9" transform="translate(0,0)"/>
<path d="" fill="#FCFDFD" transform="translate(0,0)"/>
<path d="" fill="#F3F3F4" transform="translate(0,0)"/>
<path d="" fill="#FBFCFB" transform="translate(0,0)"/>
<path d="M0 0 C2 1 2 1 2 1 Z " fill="#F4F4F2" transform="translate(772,572)"/>
<path d="" fill="#FCFDFC" transform="translate(0,0)"/>
<path d="" fill="#FEFDFC" transform="translate(0,0)"/>
<path d="" fill="#F9FAFA" transform="translate(0,0)"/>
<path d="M0 0 C2 1 2 1 2 1 Z " fill="#FBFCFB" transform="translate(539,541)"/>
<path d="" fill="#FAFBFB" transform="translate(0,0)"/>
<path d="M0 0 C2 1 2 1 2 1 Z " fill="#FCFCFB" transform="translate(577,528)"/>
<path d="M0 0 C2 1 2 1 2 1 Z " fill="#FCFBFA" transform="translate(360,523)"/>
<path d="" fill="#F8F8F8" transform="translate(0,0)"/>
<path d="M0 0 C2 1 2 1 2 1 Z " fill="#F7F7F6" transform="translate(260,510)"/>
<path d="" fill="#FAF9F9" transform="translate(0,0)"/>
<path d="" fill="#FBFAFA" transform="translate(0,0)"/>
<path d="M0 0 C2 1 2 1 2 1 Z " fill="#FAFAFA" transform="translate(660,500)"/>
<path d="M0 0 C2 1 2 1 2 1 Z " fill="#FCFCFB" transform="translate(580,499)"/>
<path d="" fill="#EBECEB" transform="translate(0,0)"/>
<path d="M0 0 C2 1 2 1 2 1 Z " fill="#FBFBFA" transform="translate(582,498)"/>
<path d="M0 0 C2 1 2 1 2 1 Z " fill="#FBFAF9" transform="translate(587,495)"/>
<path d="M0 0 C2 1 2 1 2 1 Z " fill="#FAF9F8" transform="translate(278,495)"/>
<path d="M0 0 C2 1 2 1 2 1 Z " fill="#FAFBF9" transform="translate(589,494)"/>
<path d="M0 0 C2 1 2 1 2 1 Z " fill="#FCFCFC" transform="translate(324,492)"/>
<path d="" fill="#FCFCFB" transform="translate(0,0)"/>
<path d="M0 0 C2 1 2 1 2 1 Z " fill="#FBFBFA" transform="translate(294,490)"/>
<path d="M0 0 C2 1 2 1 2 1 Z " fill="#FDFCFC" transform="translate(612,486)"/>
<path d="M0 0 C2 1 2 1 2 1 Z " fill="#FCFCFC" transform="translate(612,484)"/>
<path d="M0 0 C2 1 2 1 2 1 Z " fill="#FBFCFA" transform="translate(614,483)"/>
<path d="M0 0 C2 1 2 1 2 1 Z " fill="#FDFDFC" transform="translate(643,479)"/>
<path d="" fill="#F9F8F7" transform="translate(0,0)"/>
<path d="M0 0 C2 1 2 1 2 1 Z " fill="#F7F7F6" transform="translate(678,474)"/>
<path d="" fill="#F4F6F5" transform="translate(0,0)"/>
<path d="" fill="#EEEFEF" transform="translate(0,0)"/>
<path d="" fill="#ECEDEB" transform="translate(0,0)"/>
<path d="" fill="#EDEDEC" transform="translate(0,0)"/>
<path d="" fill="#F9F8F8" transform="translate(0,0)"/>
<path d="M0 0 C2 1 2 1 2 1 Z " fill="#E8E8E9" transform="translate(259,336)"/>
<path d="" fill="#FAFAF8" transform="translate(0,0)"/>
<path d="M0 0 C2 1 2 1 2 1 Z " fill="#FBFBF9" transform="translate(506,329)"/>
<path d="" fill="#FCFBFB" transform="translate(0,0)"/>
<path d="" fill="#FAFAFA" transform="translate(0,0)"/>
<path d="M0 0 C2 1 2 1 2 1 Z " fill="#FBFBFA" transform="translate(392,305)"/>
<path d="" fill="#FAFAFA" transform="translate(0,0)"/>
<path d="" fill="#FAFAF8" transform="translate(0,0)"/>
<path d="" fill="#F9F8F8" transform="translate(0,0)"/>
<path d="" fill="#F4F4F2" transform="translate(0,0)"/>
<path d="" fill="#F2F1F1" transform="translate(0,0)"/>
<path d="" fill="#F0F0F0" transform="translate(0,0)"/>
<path d="" fill="#F1F2F2" transform="translate(0,0)"/>
<path d="M0 0 C2 1 2 1 2 1 Z " fill="#EDEDED" transform="translate(396,216)"/>
<path d="M0 0 C2 1 2 1 2 1 Z " fill="#F0EFEF" transform="translate(499,210)"/>
<path d="M0 0 C2 1 2 1 2 1 Z " fill="#ECEAEA" transform="translate(425,196)"/>
<path d="M0 0 C2 1 2 1 2 1 Z " fill="#EEEDEC" transform="translate(474,195)"/>
<path d="M0 0 C2 1 2 1 2 1 Z " fill="#ECEBEB" transform="translate(432,194)"/>
<path d="" fill="#595958" transform="translate(0,0)"/>
<path d="" fill="#585758" transform="translate(0,0)"/>
<path d="" fill="#585855" transform="translate(0,0)"/>
<path d="" fill="#454947" transform="translate(0,0)"/>
<path d="" fill="#454442" transform="translate(0,0)"/>
<path d="" fill="#565655" transform="translate(0,0)"/>
<path d="" fill="#3E3F3F" transform="translate(0,0)"/>
<path d="" fill="#EAEBEA" transform="translate(0,0)"/>
<path d="" fill="#EBEBEA" transform="translate(0,0)"/>
<path d="" fill="#E9E8E8" transform="translate(0,0)"/>
<path d="" fill="#494949" transform="translate(0,0)"/>
<path d="" fill="#ECEDEB" transform="translate(0,0)"/>
<path d="" fill="#EDEFEC" transform="translate(0,0)"/>
<path d="" fill="#F2F1EF" transform="translate(0,0)"/>
<path d="" fill="#F2F2F2" transform="translate(0,0)"/>
<path d="" fill="#F0F2F1" transform="translate(0,0)"/>
<path d="" fill="#F3F4F1" transform="translate(0,0)"/>
<path d="" fill="#F3F3F1" transform="translate(0,0)"/>
<path d="" fill="#F4F5F4" transform="translate(0,0)"/>
<path d="" fill="#F3F5F2" transform="translate(0,0)"/>
<path d="" fill="#F5F4F4" transform="translate(0,0)"/>
<path d="" fill="#F2F2F2" transform="translate(0,0)"/>
<path d="" fill="#F3F5F3" transform="translate(0,0)"/>
<path d="" fill="#F5F4F4" transform="translate(0,0)"/>
<path d="" fill="#F2F4F2" transform="translate(0,0)"/>
<path d="" fill="#F2F3F1" transform="translate(0,0)"/>
<path d="" fill="#F3F5F3" transform="translate(0,0)"/>
<path d="" fill="#F5F5F6" transform="translate(0,0)"/>
<path d="" fill="#F4F6F4" transform="translate(0,0)"/>
<path d="" fill="#F3F3F1" transform="translate(0,0)"/>
<path d="" fill="#F2F3F1" transform="translate(0,0)"/>
<path d="" fill="#F2F2F3" transform="translate(0,0)"/>
<path d="" fill="#F3F3F0" transform="translate(0,0)"/>
<path d="" fill="#F0F1F0" transform="translate(0,0)"/>
<path d="" fill="#ECEDEC" transform="translate(0,0)"/>
<path d="" fill="#E8EAEA" transform="translate(0,0)"/>
<path d="" fill="#ECECEC" transform="translate(0,0)"/>
<path d="" fill="#E8E8E8" transform="translate(0,0)"/>
<path d="" fill="#EFF0EE" transform="translate(0,0)"/>
<path d="" fill="#EEF1EE" transform="translate(0,0)"/>
<path d="" fill="#F0EFEE" transform="translate(0,0)"/>
<path d="" fill="#E7E6E6" transform="translate(0,0)"/>
<path d="" fill="#F1F0ED" transform="translate(0,0)"/>
<path d="" fill="#F3F3F2" transform="translate(0,0)"/>
<path d="" fill="#E7E4E7" transform="translate(0,0)"/>
<path d="" fill="#EFEFF0" transform="translate(0,0)"/>
<path d="" fill="#E8E7E8" transform="translate(0,0)"/>
<path d="" fill="#F0EFF0" transform="translate(0,0)"/>
<path d="" fill="#F3F3F1" transform="translate(0,0)"/>
<path d="" fill="#E1E2E2" transform="translate(0,0)"/>
<path d="" fill="#E3E3E3" transform="translate(0,0)"/>
<path d="" fill="#F2F4F2" transform="translate(0,0)"/>
<path d="" fill="#FBFBFC" transform="translate(0,0)"/>
<path d="" fill="#F3F4F3" transform="translate(0,0)"/>
<path d="" fill="#F6F6F5" transform="translate(0,0)"/>
<path d="" fill="#EAEAE9" transform="translate(0,0)"/>
<path d="" fill="#EBEDEB" transform="translate(0,0)"/>
<path d="" fill="#F7F6F4" transform="translate(0,0)"/>
<path d="" fill="#F7F4F3" transform="translate(0,0)"/>
<path d="" fill="#F9F8F7" transform="translate(0,0)"/>
<path d="" fill="#F9F8F7" transform="translate(0,0)"/>
<path d="" fill="#F7FBFA" transform="translate(0,0)"/>
<path d="" fill="#F3F4F3" transform="translate(0,0)"/>
<path d="" fill="#F7F5F6" transform="translate(0,0)"/>
<path d="" fill="#F5F5F4" transform="translate(0,0)"/>
<path d="" fill="#F6F6F4" transform="translate(0,0)"/>
<path d="" fill="#F3F3F3" transform="translate(0,0)"/>
<path d="" fill="#F2F1F0" transform="translate(0,0)"/>
<path d="" fill="#F4F3F3" transform="translate(0,0)"/>
<path d="" fill="#F7F8F6" transform="translate(0,0)"/>
<path d="" fill="#FAF9F9" transform="translate(0,0)"/>
<path d="" fill="#F7F7F6" transform="translate(0,0)"/>
<path d="" fill="#FAF9F8" transform="translate(0,0)"/>
<path d="" fill="#E4E6E5" transform="translate(0,0)"/>
<path d="" fill="#F6F7F4" transform="translate(0,0)"/>
<path d="" fill="#F4F4F6" transform="translate(0,0)"/>
<path d="" fill="#FBF9F8" transform="translate(0,0)"/>
<path d="" fill="#F7F6F6" transform="translate(0,0)"/>
<path d="" fill="#F9FAF9" transform="translate(0,0)"/>
<path d="" fill="#ECE9EB" transform="translate(0,0)"/>
<path d="" fill="#F4F5F4" transform="translate(0,0)"/>
<path d="" fill="#F8F7F5" transform="translate(0,0)"/>
<path d="" fill="#FAF9F8" transform="translate(0,0)"/>
<path d="" fill="#FBFCF9" transform="translate(0,0)"/>
<path d="" fill="#F9FAF9" transform="translate(0,0)"/>
<path d="" fill="#EAEBEB" transform="translate(0,0)"/>
<path d="" fill="#F9F8F8" transform="translate(0,0)"/>
<path d="" fill="#F8F9F8" transform="translate(0,0)"/>
<path d="" fill="#F8F9F9" transform="translate(0,0)"/>
<path d="" fill="#FBFAF8" transform="translate(0,0)"/>
<path d="" fill="#F8F7F8" transform="translate(0,0)"/>
<path d="" fill="#FBFAFA" transform="translate(0,0)"/>
<path d="" fill="#FBFBFC" transform="translate(0,0)"/>
<path d="" fill="#FAFAFA" transform="translate(0,0)"/>
<path d="" fill="#FBFAFB" transform="translate(0,0)"/>
<path d="" fill="#F2F5F4" transform="translate(0,0)"/>
<path d="" fill="#FCFBFB" transform="translate(0,0)"/>
<path d="" fill="#FDFEFA" transform="translate(0,0)"/>
<path d="" fill="#FCFBF8" transform="translate(0,0)"/>
<path d="" fill="#FBFCFB" transform="translate(0,0)"/>
<path d="" fill="#F6F8F8" transform="translate(0,0)"/>
<path d="" fill="#FEFEFC" transform="translate(0,0)"/>
<path d="" fill="#FCFCFB" transform="translate(0,0)"/>
<path d="" fill="#F8F9F6" transform="translate(0,0)"/>
<path d="" fill="#FBFBFB" transform="translate(0,0)"/>
<path d="" fill="#FCFDFD" transform="translate(0,0)"/>
<path d="" fill="#FBFCFB" transform="translate(0,0)"/>
<path d="" fill="#FCFBFA" transform="translate(0,0)"/>
<path d="" fill="#FDFBFB" transform="translate(0,0)"/>
<path d="" fill="#FDFBFB" transform="translate(0,0)"/>
<path d="" fill="#FCFCFA" transform="translate(0,0)"/>
<path d="" fill="#FCF9FA" transform="translate(0,0)"/>
<path d="" fill="#FBFCFB" transform="translate(0,0)"/>
<path d="" fill="#FEFDFB" transform="translate(0,0)"/>
<path d="" fill="#FDFDFD" transform="translate(0,0)"/>
<path d="" fill="#FDFDFE" transform="translate(0,0)"/>
<path d="" fill="#FDFDFE" transform="translate(0,0)"/>
<path d="" fill="#FBFDFB" transform="translate(0,0)"/>
<path d="" fill="#F6F7F4" transform="translate(0,0)"/>
<path d="" fill="#FDFFFF" transform="translate(0,0)"/>
<path d="" fill="#FAFAFC" transform="translate(0,0)"/>
<path d="" fill="#FBFAFA" transform="translate(0,0)"/>
<path d="" fill="#FEFDFC" transform="translate(0,0)"/>
<path d="" fill="#FFFFFB" transform="translate(0,0)"/>
<path d="" fill="#FEFEFC" transform="translate(0,0)"/>
<path d="" fill="#FEFDFC" transform="translate(0,0)"/>
<path d="" fill="#FCFFFC" transform="translate(0,0)"/>
<path d="" fill="#FCFDFB" transform="translate(0,0)"/>
<path d="" fill="#FBFBFA" transform="translate(0,0)"/>
<path d="" fill="#FBFBFC" transform="translate(0,0)"/>
<path d="" fill="#FDFEFE" transform="translate(0,0)"/>
<path d="" fill="#FCFDFC" transform="translate(0,0)"/>
<path d="" fill="#EFEDEE" transform="translate(0,0)"/>
<path d="" fill="#F6F4F4" transform="translate(0,0)"/>
<path d="" fill="#FDFEFD" transform="translate(0,0)"/>
<path d="" fill="#F0F0F0" transform="translate(0,0)"/>
<path d="" fill="#F3F3F2" transform="translate(0,0)"/>
<path d="" fill="#FBFAF9" transform="translate(0,0)"/>
<path d="" fill="#FAF9FB" transform="translate(0,0)"/>
<path d="" fill="#EAECEA" transform="translate(0,0)"/>
<path d="" fill="#FDFCFD" transform="translate(0,0)"/>
<path d="" fill="#FAFAFA" transform="translate(0,0)"/>
<path d="" fill="#FDFEFD" transform="translate(0,0)"/>
<path d="" fill="#FCFEFC" transform="translate(0,0)"/>
<path d="" fill="#E9E8E8" transform="translate(0,0)"/>
<path d="" fill="#FAFAFA" transform="translate(0,0)"/>
<path d="" fill="#FAFAFA" transform="translate(0,0)"/>
<path d="" fill="#FFFDFD" transform="translate(0,0)"/>
<path d="" fill="#FDFEFD" transform="translate(0,0)"/>
<path d="" fill="#FDFDFD" transform="translate(0,0)"/>
<path d="" fill="#F6F4F6" transform="translate(0,0)"/>
<path d="" fill="#FCFAFB" transform="translate(0,0)"/>
<path d="" fill="#E6E4E3" transform="translate(0,0)"/>
<path d="" fill="#FFFEFD" transform="translate(0,0)"/>
<path d="" fill="#FCFBFB" transform="translate(0,0)"/>
<path d="" fill="#FDFCFD" transform="translate(0,0)"/>
<path d="" fill="#E3E5E6" transform="translate(0,0)"/>
<path d="" fill="#FCFCFD" transform="translate(0,0)"/>
<path d="" fill="#F3F4F3" transform="translate(0,0)"/>
<path d="" fill="#F3F4F3" transform="translate(0,0)"/>
<path d="" fill="#F4F4F5" transform="translate(0,0)"/>
<path d="" fill="#646564" transform="translate(0,0)"/>
<path d="" fill="#F2F2F3" transform="translate(0,0)"/>
<path d="" fill="#E9E7EA" transform="translate(0,0)"/>
<path d="" fill="#E6E5E7" transform="translate(0,0)"/>
<path d="" fill="#FCFBFA" transform="translate(0,0)"/>
<path d="" fill="#FBFBFB" transform="translate(0,0)"/>
<path d="" fill="#F2F1F1" transform="translate(0,0)"/>
<path d="" fill="#E3E4E4" transform="translate(0,0)"/>
<path d="" fill="#FAFDFD" transform="translate(0,0)"/>
<path d="" fill="#FAF8F7" transform="translate(0,0)"/>
<path d="" fill="#FEFBFB" transform="translate(0,0)"/>
<path d="" fill="#FDFCFC" transform="translate(0,0)"/>
<path d="" fill="#FEFCFB" transform="translate(0,0)"/>
<path d="" fill="#E5E7E7" transform="translate(0,0)"/>
<path d="" fill="#FBFCFC" transform="translate(0,0)"/>
<path d="" fill="#FBFDFA" transform="translate(0,0)"/>
<path d="" fill="#FBFBFC" transform="translate(0,0)"/>
<path d="" fill="#EBEAEB" transform="translate(0,0)"/>
<path d="" fill="#F9F9F8" transform="translate(0,0)"/>
<path d="" fill="#FBFAF8" transform="translate(0,0)"/>
<path d="" fill="#E2E4E3" transform="translate(0,0)"/>
<path d="" fill="#F1F1F0" transform="translate(0,0)"/>
<path d="" fill="#FCFCFC" transform="translate(0,0)"/>
<path d="" fill="#FCFBFA" transform="translate(0,0)"/>
<path d="" fill="#EFEFEF" transform="translate(0,0)"/>
<path d="" fill="#FEFDFA" transform="translate(0,0)"/>
<path d="" fill="#FAF9FA" transform="translate(0,0)"/>
<path d="" fill="#FBFAFA" transform="translate(0,0)"/>
<path d="" fill="#EEEFF1" transform="translate(0,0)"/>
<path d="" fill="#FDFCFA" transform="translate(0,0)"/>
<path d="" fill="#FCFAF9" transform="translate(0,0)"/>
<path d="" fill="#ECEEEC" transform="translate(0,0)"/>
<path d="" fill="#FCFBFB" transform="translate(0,0)"/>
<path d="" fill="#F9FAFA" transform="translate(0,0)"/>
<path d="" fill="#F1F0F1" transform="translate(0,0)"/>
<path d="" fill="#FCFBF9" transform="translate(0,0)"/>
<path d="" fill="#F9FAFB" transform="translate(0,0)"/>
<path d="" fill="#F0EFEF" transform="translate(0,0)"/>
<path d="" fill="#FBFBFB" transform="translate(0,0)"/>
<path d="" fill="#F1F2F2" transform="translate(0,0)"/>
<path d="" fill="#ECEDED" transform="translate(0,0)"/>
<path d="" fill="#FBFCFA" transform="translate(0,0)"/>
<path d="" fill="#F7F8F5" transform="translate(0,0)"/>
<path d="" fill="#F6F5F5" transform="translate(0,0)"/>
<path d="" fill="#FDFDFA" transform="translate(0,0)"/>
<path d="" fill="#F9F8F9" transform="translate(0,0)"/>
<path d="" fill="#FBFBFC" transform="translate(0,0)"/>
<path d="" fill="#F7F8F6" transform="translate(0,0)"/>
<path d="" fill="#FDFDFB" transform="translate(0,0)"/>
<path d="" fill="#F7F9F7" transform="translate(0,0)"/>
<path d="" fill="#FDFFFC" transform="translate(0,0)"/>
<path d="" fill="#F9F8F7" transform="translate(0,0)"/>
<path d="" fill="#FBFBFA" transform="translate(0,0)"/>
<path d="" fill="#F0F2EF" transform="translate(0,0)"/>
<path d="" fill="#FDFCFB" transform="translate(0,0)"/>
<path d="" fill="#F9F9FA" transform="translate(0,0)"/>
<path d="" fill="#FAF9F9" transform="translate(0,0)"/>
<path d="" fill="#FCFCFB" transform="translate(0,0)"/>
<path d="" fill="#FEFEFD" transform="translate(0,0)"/>
<path d="" fill="#F3F0F2" transform="translate(0,0)"/>
<path d="" fill="#FCFDFD" transform="translate(0,0)"/>
<path d="" fill="#F7F6F6" transform="translate(0,0)"/>
<path d="" fill="#FCFFFC" transform="translate(0,0)"/>
<path d="" fill="#F4F3F2" transform="translate(0,0)"/>
<path d="" fill="#F5F7F6" transform="translate(0,0)"/>
<path d="" fill="#FDFDFD" transform="translate(0,0)"/>
<path d="" fill="#F3F4F5" transform="translate(0,0)"/>
<path d="" fill="#F7F7F6" transform="translate(0,0)"/>
<path d="" fill="#F6F5F4" transform="translate(0,0)"/>
<path d="" fill="#FDFCFB" transform="translate(0,0)"/>
<path d="" fill="#FAFAF9" transform="translate(0,0)"/>
<path d="" fill="#FAFCFD" transform="translate(0,0)"/>
<path d="" fill="#FDFEFC" transform="translate(0,0)"/>
<path d="" fill="#FEFBFC" transform="translate(0,0)"/>
<path d="" fill="#FEFDFC" transform="translate(0,0)"/>
<path d="" fill="#FBFAFA" transform="translate(0,0)"/>
<path d="" fill="#FAF9F9" transform="translate(0,0)"/>
<path d="" fill="#FCFDFC" transform="translate(0,0)"/>
<path d="" fill="#FAFBF9" transform="translate(0,0)"/>
<path d="" fill="#FDFDFC" transform="translate(0,0)"/>
<path d="" fill="#F5F5F3" transform="translate(0,0)"/>
<path d="" fill="#FDFBFB" transform="translate(0,0)"/>
<path d="" fill="#FEFCFB" transform="translate(0,0)"/>
<path d="" fill="#EEEDEC" transform="translate(0,0)"/>
<path d="" fill="#FFFEFE" transform="translate(0,0)"/>
<path d="" fill="#FBFBFB" transform="translate(0,0)"/>
<path d="" fill="#FBFBFB" transform="translate(0,0)"/>
<path d="" fill="#EAECEC" transform="translate(0,0)"/>
<path d="" fill="#FAFCFA" transform="translate(0,0)"/>
<path d="" fill="#F9FAFA" transform="translate(0,0)"/>
<path d="" fill="#FAFBFB" transform="translate(0,0)"/>
<path d="" fill="#FEFDFD" transform="translate(0,0)"/>
<path d="" fill="#FDFDFD" transform="translate(0,0)"/>
<path d="" fill="#EBEAEA" transform="translate(0,0)"/>
<path d="" fill="#F7F8F8" transform="translate(0,0)"/>
<path d="" fill="#FAFAFA" transform="translate(0,0)"/>
<path d="" fill="#EDEFEE" transform="translate(0,0)"/>
<path d="" fill="#FBFAFB" transform="translate(0,0)"/>
<path d="" fill="#FFFDFC" transform="translate(0,0)"/>
<path d="" fill="#FAFAF9" transform="translate(0,0)"/>
<path d="" fill="#FCFDFD" transform="translate(0,0)"/>
<path d="" fill="#FDFEFD" transform="translate(0,0)"/>
<path d="" fill="#FEFEFD" transform="translate(0,0)"/>
<path d="" fill="#FBFBFA" transform="translate(0,0)"/>
<path d="" fill="#FAF9F9" transform="translate(0,0)"/>
<path d="" fill="#FBFCFB" transform="translate(0,0)"/>
<path d="" fill="#FBFCF9" transform="translate(0,0)"/>
<path d="" fill="#F2F0EF" transform="translate(0,0)"/>
<path d="" fill="#FBFCFB" transform="translate(0,0)"/>
<path d="" fill="#FBFBFC" transform="translate(0,0)"/>
<path d="" fill="#FAFCFB" transform="translate(0,0)"/>
<path d="" fill="#FCFBFC" transform="translate(0,0)"/>
<path d="" fill="#F9F9FA" transform="translate(0,0)"/>
<path d="" fill="#F5F7F7" transform="translate(0,0)"/>
<path d="" fill="#FDFBFA" transform="translate(0,0)"/>
<path d="" fill="#FBFDFE" transform="translate(0,0)"/>
<path d="" fill="#FAF9FB" transform="translate(0,0)"/>
<path d="" fill="#FBF9F9" transform="translate(0,0)"/>
<path d="" fill="#F0F1F1" transform="translate(0,0)"/>
<path d="" fill="#F3F4F4" transform="translate(0,0)"/>
<path d="" fill="#FBFFFB" transform="translate(0,0)"/>
<path d="" fill="#FBFCFC" transform="translate(0,0)"/>
<path d="" fill="#FCFEFD" transform="translate(0,0)"/>
<path d="" fill="#F3F4F5" transform="translate(0,0)"/>
<path d="" fill="#FBFCFB" transform="translate(0,0)"/>
<path d="" fill="#FDFFFD" transform="translate(0,0)"/>
<path d="" fill="#EFEFEF" transform="translate(0,0)"/>
<path d="" fill="#F0EFF0" transform="translate(0,0)"/>
<path d="" fill="#F4F3F3" transform="translate(0,0)"/>
<path d="" fill="#FCFDFC" transform="translate(0,0)"/>
<path d="" fill="#FCFCFA" transform="translate(0,0)"/>
<path d="" fill="#FDFEFC" transform="translate(0,0)"/>
<path d="" fill="#FBFCFB" transform="translate(0,0)"/>
<path d="" fill="#FDFDFB" transform="translate(0,0)"/>
<path d="" fill="#FEFBFC" transform="translate(0,0)"/>
<path d="" fill="#FBFBFC" transform="translate(0,0)"/>
<path d="" fill="#FDFCFE" transform="translate(0,0)"/>
<path d="" fill="#FAF8F8" transform="translate(0,0)"/>
<path d="" fill="#FAFAF9" transform="translate(0,0)"/>
<path d="" fill="#FCFCFA" transform="translate(0,0)"/>
<path d="" fill="#FCFDFD" transform="translate(0,0)"/>
<path d="" fill="#FAFBFA" transform="translate(0,0)"/>
<path d="" fill="#FCFCFB" transform="translate(0,0)"/>
<path d="" fill="#FCFDFC" transform="translate(0,0)"/>
<path d="" fill="#FBFBFB" transform="translate(0,0)"/>
<path d="" fill="#FBFBFC" transform="translate(0,0)"/>
<path d="" fill="#FAFAFA" transform="translate(0,0)"/>
<path d="" fill="#F6F9F9" transform="translate(0,0)"/>
<path d="" fill="#FAFBFA" transform="translate(0,0)"/>
<path d="" fill="#FCFDFD" transform="translate(0,0)"/>
<path d="" fill="#F5F6F5" transform="translate(0,0)"/>
<path d="" fill="#F4F4F3" transform="translate(0,0)"/>
<path d="" fill="#F3F4F3" transform="translate(0,0)"/>
<path d="" fill="#FBFCFB" transform="translate(0,0)"/>
<path d="" fill="#FBFBFC" transform="translate(0,0)"/>
<path d="" fill="#FCFAFB" transform="translate(0,0)"/>
<path d="" fill="#F9F9F8" transform="translate(0,0)"/>
<path d="" fill="#F9FAFA" transform="translate(0,0)"/>
<path d="" fill="#F8F8F7" transform="translate(0,0)"/>
<path d="" fill="#FDFEFC" transform="translate(0,0)"/>
<path d="" fill="#F8FAFA" transform="translate(0,0)"/>
<path d="" fill="#EBEDEC" transform="translate(0,0)"/>
<path d="" fill="#F9F6F7" transform="translate(0,0)"/>
<path d="" fill="#FCFCFB" transform="translate(0,0)"/>
<path d="" fill="#FBFAFA" transform="translate(0,0)"/>
<path d="" fill="#EBECEB" transform="translate(0,0)"/>
<path d="" fill="#FBFAFB" transform="translate(0,0)"/>
<path d="" fill="#FBFBF9" transform="translate(0,0)"/>
<path d="" fill="#FEFDFC" transform="translate(0,0)"/>
<path d="" fill="#FDFEFB" transform="translate(0,0)"/>
<path d="" fill="#FCFDFB" transform="translate(0,0)"/>
<path d="" fill="#FBFBFB" transform="translate(0,0)"/>
<path d="" fill="#FBFAFA" transform="translate(0,0)"/>
<path d="" fill="#FBFAF9" transform="translate(0,0)"/>
<path d="" fill="#FCFAFA" transform="translate(0,0)"/>
<path d="" fill="#FBFBFA" transform="translate(0,0)"/>
<path d="" fill="#F8F8F8" transform="translate(0,0)"/>
<path d="" fill="#FCFBFB" transform="translate(0,0)"/>
<path d="" fill="#F9FBFA" transform="translate(0,0)"/>
<path d="" fill="#FAFAFA" transform="translate(0,0)"/>
<path d="" fill="#F9FAFA" transform="translate(0,0)"/>
<path d="" fill="#FBFBFB" transform="translate(0,0)"/>
<path d="" fill="#FBFBFA" transform="translate(0,0)"/>
<path d="" fill="#FBFBFC" transform="translate(0,0)"/>
<path d="" fill="#F0F1EF" transform="translate(0,0)"/>
<path d="" fill="#FCFBFB" transform="translate(0,0)"/>
<path d="" fill="#FDFCFB" transform="translate(0,0)"/>
<path d="" fill="#FBFAFB" transform="translate(0,0)"/>
<path d="" fill="#F7FAF8" transform="translate(0,0)"/>
<path d="" fill="#FDFDFC" transform="translate(0,0)"/>
<path d="" fill="#F6F7F4" transform="translate(0,0)"/>
<path d="" fill="#F7F7F6" transform="translate(0,0)"/>
<path d="" fill="#FCFCFC" transform="translate(0,0)"/>
<path d="" fill="#F9F8F9" transform="translate(0,0)"/>
<path d="" fill="#FBFAFB" transform="translate(0,0)"/>
<path d="" fill="#FBFCF9" transform="translate(0,0)"/>
<path d="" fill="#FBFBFA" transform="translate(0,0)"/>
<path d="" fill="#FBFBFB" transform="translate(0,0)"/>
<path d="" fill="#FAFBFA" transform="translate(0,0)"/>
<path d="" fill="#F9FAF8" transform="translate(0,0)"/>
<path d="" fill="#5A5B5B" transform="translate(0,0)"/>
<path d="" fill="#EDEEEC" transform="translate(0,0)"/>
<path d="" fill="#E9E8E7" transform="translate(0,0)"/>
<path d="" fill="#E7E7E9" transform="translate(0,0)"/>
<path d="" fill="#E9EAE9" transform="translate(0,0)"/>
<path d="" fill="#585757" transform="translate(0,0)"/>
<path d="" fill="#E9EAEA" transform="translate(0,0)"/>
<path d="" fill="#ECEDED" transform="translate(0,0)"/>
<path d="" fill="#E8E8E7" transform="translate(0,0)"/>
<path d="" fill="#E9E8E8" transform="translate(0,0)"/>
<path d="" fill="#ECECEB" transform="translate(0,0)"/>
<path d="" fill="#FAFBFA" transform="translate(0,0)"/>
<path d="" fill="#F7F8F8" transform="translate(0,0)"/>
<path d="" fill="#FDFEFA" transform="translate(0,0)"/>
<path d="" fill="#FAFAF8" transform="translate(0,0)"/>
<path d="" fill="#FCFCFA" transform="translate(0,0)"/>
<path d="" fill="#FBFCFB" transform="translate(0,0)"/>
<path d="" fill="#FCFBF9" transform="translate(0,0)"/>
<path d="" fill="#515152" transform="translate(0,0)"/>
<path d="" fill="#F8F8F7" transform="translate(0,0)"/>
<path d="" fill="#FAF9F8" transform="translate(0,0)"/>
<path d="" fill="#FAFAF9" transform="translate(0,0)"/>
<path d="" fill="#FBFBFA" transform="translate(0,0)"/>
<path d="" fill="#FCFCFB" transform="translate(0,0)"/>
<path d="" fill="#515050" transform="translate(0,0)"/>
<path d="" fill="#F9F9F9" transform="translate(0,0)"/>
<path d="" fill="#F9F9F8" transform="translate(0,0)"/>
<path d="" fill="#F9F9FB" transform="translate(0,0)"/>
<path d="" fill="#FAF8F8" transform="translate(0,0)"/>
<path d="" fill="#F8F7F6" transform="translate(0,0)"/>
<path d="" fill="#F7F8F6" transform="translate(0,0)"/>
<path d="" fill="#F8F7F6" transform="translate(0,0)"/>
<path d="" fill="#F4F5F5" transform="translate(0,0)"/>
<path d="" fill="#F4F4F4" transform="translate(0,0)"/>
<path d="" fill="#F4F3F3" transform="translate(0,0)"/>
<path d="" fill="#F2F1F1" transform="translate(0,0)"/>
<path d="" fill="#F2F3F3" transform="translate(0,0)"/>
<path d="" fill="#F0F1F0" transform="translate(0,0)"/>
<path d="" fill="#F0F0EF" transform="translate(0,0)"/>
<path d="" fill="#F0F1EF" transform="translate(0,0)"/>
<path d="" fill="#EAEAEA" transform="translate(0,0)"/>
<path d="" fill="#E9E9E9" transform="translate(0,0)"/>
<path d="" fill="#F3F1F0" transform="translate(0,0)"/>
<path d="" fill="#EEEFED" transform="translate(0,0)"/>
<path d="" fill="#ECECEC" transform="translate(0,0)"/>
<path d="" fill="#EDEDEB" transform="translate(0,0)"/>
<path d="" fill="#EAEAEA" transform="translate(0,0)"/>
<path d="" fill="#EFEDED" transform="translate(0,0)"/>
<path d="" fill="#F0F0EE" transform="translate(0,0)"/>
<path d="" fill="#F1EFF0" transform="translate(0,0)"/>
<path d="" fill="#EEEEED" transform="translate(0,0)"/>
<path d="" fill="#EFEEEB" transform="translate(0,0)"/>
<path d="" fill="#F3F3F1" transform="translate(0,0)"/>
<path d="" fill="#EBEAE9" transform="translate(0,0)"/>
<path d="" fill="#EBEAEA" transform="translate(0,0)"/>
<path d="" fill="#EEF0EF" transform="translate(0,0)"/>
<path d="" fill="#EEEDEC" transform="translate(0,0)"/>
<path d="" fill="#EEEDEC" transform="translate(0,0)"/>
<path d="" fill="#EDEFEE" transform="translate(0,0)"/>
<path d="" fill="#EAEBEA" transform="translate(0,0)"/>
<path d="" fill="#EEF0EE" transform="translate(0,0)"/>
<path d="" fill="#E9EAE9" transform="translate(0,0)"/>
<path d="" fill="#ECEBEC" transform="translate(0,0)"/>
<path d="" fill="#EBECEB" transform="translate(0,0)"/>
<path d="" fill="#EEEFEF" transform="translate(0,0)"/>
<path d="" fill="#3E3E3D" transform="translate(0,0)"/>
<path d="" fill="#4E4E4E" transform="translate(0,0)"/>
<path d="" fill="#515151" transform="translate(0,0)"/>
<path d="" fill="#525252" transform="translate(0,0)"/>
<path d="" fill="#555452" transform="translate(0,0)"/>
<path d="" fill="#666564" transform="translate(0,0)"/>
</svg>
